<?xml version="1.0" encoding="utf-8"?>
<!-- Generator: Adobe Illustrator 26.1.0, SVG Export Plug-In . SVG Version: 6.00 Build 0)  -->
<svg version="1.1" id="Camada_1" xmlns="http://www.w3.org/2000/svg" xmlns:xlink="http://www.w3.org/1999/xlink" x="0px" y="0px"
	 viewBox="0 0 190 190" style="enable-background:new 0 0 190 190;" xml:space="preserve">
<style type="text/css">
	.st0{fill:#5A2BAF;}
	.st1{fill:#273339;}
	.st2{fill:#27333A;}
	.st3{fill:#28333A;}
	.st4{fill:#263338;}
	.st5{fill:#2D383E;}
	.st6{fill:#2A3339;}
	.st7{fill:#343E3F;}
	.st8{fill:#D5F7FE;}
	.st9{fill:#000506;}
	.st10{fill:#283439;}
	.st11{fill:#2E383F;}
	.st12{fill:#384147;}
	.st13{fill:#384349;}
	.st14{fill:#293438;}
	.st15{fill:#B1CCCE;}
	.st16{fill:#152127;}
	.st17{fill:#D6F7FE;}
	.st18{fill:#2B363E;}
	.st19{fill:#344046;}
	.st20{fill:#2E383D;}
	.st21{fill:#94A6AC;}
	.st22{fill:#D4F3F9;}
	.st23{fill:#D4F5F9;}
	.st24{fill:#A8C1C8;}
	.st25{fill:#000205;}
	.st26{fill:#00030A;}
	.st27{fill:#36434A;}
	.st28{fill:#3B464D;}
	.st29{fill:#1B252A;}
	.st30{fill:#2F3943;}
	.st31{fill:#00060E;}
	.st32{fill:#D7F8FD;}
	.st33{fill:#000408;}
	.st34{fill:#A8C0C6;}
	.st35{fill:#A6C0C5;}
	.st36{fill:#D5F1F6;}
	.st37{fill:#01040A;}
	.st38{fill:#01040B;}
	.st39{fill:#1F2B30;}
	.st40{fill:#000409;}
	.st41{fill:#1E272A;}
	.st42{fill:#000508;}
	.st43{fill:#242B31;}
	.st44{fill:#000209;}
	.st45{fill:#00030C;}
	.st46{fill:#000207;}
	.st47{fill:#00050E;}
	.st48{fill:#D4F9FD;}
	.st49{fill:#2C393E;}
	.st50{fill:#8DAAAE;}
	.st51{fill:#192F34;}
	.st52{fill:#030E0F;}
	.st53{fill:#00040A;}
	.st54{fill:#01090E;}
	.st55{fill:#1F2D2E;}
	.st56{fill:#000307;}
	.st57{fill:#19272C;}
	.st58{fill:#202A32;}
	.st59{fill:#000507;}
	.st60{fill:#17242E;}
	.st61{fill:#02060C;}
	.st62{fill:#15202A;}
	.st63{fill:#182022;}
	.st64{fill:#000208;}
	.st65{fill:#AEC0C5;}
	.st66{fill:#00060A;}
	.st67{fill:#00040B;}
	.st68{fill:#031115;}
	.st69{fill:#030A12;}
	.st70{fill:#222D35;}
	.st71{fill:#162224;}
	.st72{fill:#020810;}
	.st73{fill:#01090F;}
	.st74{fill:#01070D;}
	.st75{fill:#030C12;}
	.st76{fill:#FDDDB4;}
	.st77{fill:#FEFEFE;}
	.st78{fill:#CC8643;}
	.st79{fill:#CF8141;}
	.st80{fill:#C9ECF4;}
	.st81{fill:#FCDDB4;}
	.st82{fill:#BAA88F;}
	.st83{fill:#9C693F;}
	.st84{fill:#C9EBF4;}
	.st85{fill:#9B693E;}
	.st86{fill:#CDF0F6;}
	.st87{fill:#996D41;}
	.st88{fill:#C99D78;}
	.st89{fill:#CC8645;}
	.st90{fill:#CA8644;}
	.st91{fill:#CC8745;}
	.st92{fill:#FBFCFC;}
	.st93{fill:#283338;}
	.st94{fill:#283238;}
	.st95{fill:#A48C75;}
	.st96{fill:#FCC01E;}
	.st97{fill:#BB941D;}
	.st98{fill:#BFDCF1;}
	.st99{fill:#1CBACE;}
	.st100{fill:#A1734A;}
	.st101{fill:#9A7149;}
	.st102{fill:#D3A37C;}
	.st103{fill:#2B3437;}
	.st104{fill:#222821;}
	.st105{fill:#C68748;}
	.st106{fill:#BA972C;}
	.st107{fill:#374247;}
	.st108{fill:#24333C;}
	.st109{fill:#CB9D77;}
	.st110{fill:#363D43;}
	.st111{fill:#2D6F7E;}
	.st112{fill:#2D3B3F;}
	.st113{fill:#0E1F29;}
	.st114{fill:#000606;}
	.st115{fill:#8F8044;}
	.st116{fill:#2E3636;}
	.st117{fill:#201F08;}
	.st118{fill:#2C3640;}
	.st119{fill:#308091;}
	.st120{fill:#CEA67E;}
	.st121{fill:#546471;}
	.st122{fill:#546169;}
	.st123{fill:#B8977D;}
	.st124{fill:#27343C;}
	.st125{fill:#313F47;}
	.st126{fill:#394145;}
	.st127{fill:#213640;}
	.st128{fill:#293130;}
	.st129{fill:#0F1D29;}
	.st130{fill:#CC9F7A;}
	.st131{fill:#C89973;}
	.st132{fill:#926844;}
	.st133{fill:#C0874C;}
	.st134{fill:#31331E;}
	.st135{fill:#2D3944;}
	.st136{fill:#BE9672;}
	.st137{fill:#181F16;}
	.st138{fill:#22364D;}
	.st139{fill:#2E2D2A;}
	.st140{fill:#1B2625;}
	.st141{fill:#2C2F2D;}
	.st142{fill:#0D1316;}
	.st143{fill:#203845;}
	.st144{fill:#4E4B47;}
	.st145{fill:#34332E;}
	.st146{fill:#2F3232;}
	.st147{fill:#323B40;}
	.st148{fill:#B38C6B;}
	.st149{fill:#020407;}
	.st150{fill:#E7BB27;}
	.st151{fill:#1F3640;}
	.st152{fill:#24221E;}
	.st153{fill:#223545;}
	.st154{fill:#131717;}
	.st155{fill:#1C2225;}
	.st156{fill:#303940;}
	.st157{fill:#C29472;}
	.st158{fill:#C19F87;}
	.st159{fill:#1F3441;}
	.st160{fill:#272825;}
	.st161{fill:#1C343F;}
	.st162{fill:#110C07;}
	.st163{fill:#323B43;}
	.st164{fill:#121418;}
	.st165{fill:#000509;}
	.st166{fill:#ABBEC0;}
	.st167{fill:#2E3D45;}
	.st168{fill:#333D43;}
	.st169{fill:#232C2C;}
	.st170{fill:#262828;}
	.st171{fill:#2B3230;}
	.st172{fill:#010408;}
	.st173{fill:#343B40;}
	.st174{fill:#0A0F14;}
	.st175{fill:#2E3D43;}
	.st176{fill:#161C1C;}
	.st177{fill:#272922;}
	.st178{fill:#242727;}
	.st179{fill:#1D221E;}
	.st180{fill:#313B40;}
	.st181{fill:#32393F;}
	.st182{fill:#CDF1F7;}
	.st183{fill:#010102;}
	.st184{fill:#030404;}
	.st185{fill:#1B1D1A;}
	.st186{fill:#000308;}
	.st187{fill:#B89274;}
	.st188{fill:#33393C;}
	.st189{fill:#010306;}
	.st190{fill:#BA9675;}
	.st191{fill:#000502;}
	.st192{fill:#2D2F2F;}
	.st193{fill:#C7966C;}
	.st194{fill:#1B2120;}
	.st195{fill:#010508;}
	.st196{fill:#02070B;}
	.st197{fill:#343D3A;}
	.st198{fill:#202421;}
	.st199{fill:#01060B;}
	.st200{fill:#343C42;}
	.st201{fill:#56524F;}
	.st202{fill:#060300;}
	.st203{fill:#20201D;}
	.st204{fill:#181D1D;}
	.st205{fill:#272C2B;}
	.st206{fill:#181C1E;}
	.st207{fill:#000206;}
	.st208{fill:#1B271F;}
	.st209{fill:#3A323E;}
	.st210{fill:#000309;}
	.st211{fill:#010407;}
	.st212{fill:#03070C;}
	.st213{fill:#171E25;}
	.st214{fill:#01060C;}
	.st215{fill:#06080C;}
	.st216{fill:#2E2822;}
	.st217{fill:#010308;}
	.st218{fill:#7F6C57;}
	.st219{fill:#020C14;}
	.st220{fill:#080B0C;}
	.st221{fill:#C1966B;}
	.st222{fill:#1B2526;}
	.st223{fill:#352715;}
	.st224{fill:#1E2819;}
	.st225{fill:#242C2D;}
	.st226{fill:#2A2E2D;}
	.st227{fill:#282624;}
	.st228{fill:#030B0F;}
	.st229{fill:#050100;}
	.st230{fill:#060909;}
	.st231{fill:#182025;}
	.st232{fill:#7A6A5A;}
	.st233{fill:#0D0C0C;}
	.st234{fill:#0B1720;}
	.st235{fill:#07BAD4;}
	.st236{fill:#FEFEFD;}
	.st237{fill:#1191A5;}
	.st238{fill:#996D40;}
	.st239{fill:#BC951E;}
	.st240{fill:#15BDD4;}
	.st241{fill:#CEF0F6;}
	.st242{fill:#0BB3C8;}
	.st243{fill:#15202B;}
	.st244{fill:#BE951C;}
	.st245{fill:#187585;}
	.st246{fill:#8F8041;}
	.st247{fill:#212108;}
	.st248{fill:#BB982C;}
	.st249{fill:#F9BE16;}
	.st250{fill:#EFB714;}
	.st251{fill:#F9BD12;}
	.st252{fill:#0BB8CE;}
	.st253{fill:#253239;}
	.st254{fill:#18B7CE;}
	.st255{fill:#BB9729;}
	.st256{fill:#928143;}
	.st257{fill:#242107;}
	.st258{fill:#233337;}
	.st259{fill:#FCC31E;}
	.st260{fill:#33ACBB;}
	.st261{fill:#13BCD5;}
	.st262{fill:#00323A;}
	.st263{fill:#233940;}
	.st264{fill:#09161B;}
	.st265{fill:#001F25;}
	.st266{fill:#DBA811;}
	.st267{fill:#2A393F;}
	.st268{fill:#F7BD13;}
	.st269{fill:#24332C;}
	.st270{fill:#AE9243;}
	.st271{fill:#BD9A2C;}
	.st272{fill:#B9982A;}
	.st273{fill:#1D343F;}
	.st274{fill:#EBC03E;}
	.st275{fill:#18303A;}
	.st276{fill:#957B46;}
	.st277{fill:#819398;}
	.st278{fill:#2D3942;}
	.st279{fill:#168C9D;}
	.st280{fill:#0D0705;}
	.st281{fill:#E5BD3E;}
	.st282{fill:#DDB62E;}
	.st283{fill:#172832;}
	.st284{fill:#2D3740;}
	.st285{fill:#344049;}
	.st286{fill:#313939;}
	.st287{fill:#1B1E22;}
	.st288{fill:#191E1A;}
	.st289{fill:#263349;}
	.st290{fill:#313C3F;}
	.st291{fill:#313C40;}
	.st292{fill:#00050A;}
	.st293{fill:#7F6E26;}
	.st294{fill:#715D12;}
	.st295{fill:#1F3650;}
	.st296{fill:#1D220E;}
	.st297{fill:#000104;}
	.st298{fill:#191C1E;}
	.st299{fill:#14201A;}
	.st300{fill:#131A18;}
	.st301{fill:#20364B;}
	.st302{fill:#2F3A40;}
	.st303{fill:#313B42;}
	.st304{fill:#2E2D0B;}
	.st305{fill:#313A42;}
	.st306{fill:#181816;}
	.st307{fill:#00313D;}
	.st308{fill:#001B27;}
	.st309{fill:#100B03;}
	.st310{fill:#26384C;}
	.st311{fill:#E5B117;}
	.st312{fill:#323B3F;}
	.st313{fill:#13171C;}
	.st314{fill:#283551;}
	.st315{fill:#36343B;}
	.st316{fill:#28353D;}
	.st317{fill:#2B344D;}
	.st318{fill:#062A32;}
	.st319{fill:#0A2E35;}
	.st320{fill:#383133;}
	.st321{fill:#1E2927;}
	.st322{fill:#010207;}
	.st323{fill:#010406;}
	.st324{fill:#181905;}
	.st325{fill:#233550;}
	.st326{fill:#0B2A33;}
	.st327{fill:#191D0C;}
	.st328{fill:#2E2722;}
	.st329{fill:#1F1B07;}
	.st330{fill:#05060A;}
	.st331{fill:#181D23;}
	.st332{fill:#2E2001;}
	.st333{fill:#001E1E;}
	.st334{fill:#062D3C;}
	.st335{fill:#072A2D;}
	.st336{fill:#EEF2F3;}
	.st337{fill:#0D1014;}
	.st338{fill:#020509;}
	.st339{fill:#030709;}
	.st340{fill:#02070E;}
	.st341{fill:#303D44;}
	.st342{fill:#01040C;}
	.st343{fill:#313E43;}
	.st344{fill:#323B41;}
	.st345{fill:#313D43;}
	.st346{fill:#020B0F;}
	.st347{fill:#00030B;}
	.st348{fill:#02090E;}
	.st349{fill:#232B33;}
	.st350{fill:#333942;}
	.st351{fill:#333C40;}
	.st352{fill:#020D14;}
	.st353{fill:#1B272E;}
	.st354{fill:#23333E;}
	.st355{fill:#050A12;}
	.st356{fill:#040D18;}
	.st357{fill:#293743;}
	.st358{fill:#243033;}
	.st359{fill:#FABE10;}
	.st360{fill:#29353F;}
	.st361{fill:#2F383E;}
	.st362{fill:#1C1F0C;}
	.st363{fill:#01040D;}
	.st364{fill:#20344D;}
	.st365{fill:#303841;}
	.st366{fill:#000407;}
	.st367{fill:#19242A;}
	.st368{fill:#071015;}
	.st369{fill:#339DA8;}
	.st370{fill:#002127;}
	.st371{fill:#243941;}
	.st372{fill:#05BCD5;}
	.st373{fill:#967417;}
	.st374{fill:#000107;}
	.st375{fill:#323D41;}
	.st376{fill:#FAC432;}
	.st377{fill:#283651;}
	.st378{fill:#121209;}
	.st379{fill:#F4BD21;}
	.st380{fill:#E4BB3F;}
	.st381{fill:#70590C;}
	.st382{fill:#7E6B28;}
	.st383{fill:#BC9010;}
	.st384{fill:#141B19;}
	.st385{fill:#342F33;}
	.st386{fill:#27364C;}
	.st387{fill:#23354C;}
	.st388{fill:#161912;}
	.st389{fill:#BD982F;}
	.st390{fill:#1D2718;}
	.st391{fill:#C78146;}
	.st392{fill:#35383E;}
	.st393{fill:#8D6A4B;}
	.st394{fill:#2D2D2A;}
	.st395{fill:#02060E;}
	.st396{fill:#15BCD4;}
	.st397{fill:#1C95A8;}
	.st398{fill:#1E96A8;}
	.st399{fill:#2C393F;}
	.st400{fill:#100808;}
	.st401{fill:#947945;}
	.st402{fill:#2B3B42;}
	.st403{fill:#D6B44C;}
	.st404{fill:#2B4C4F;}
	.st405{fill:#3B2A00;}
	.st406{fill:#34BECD;}
	.st407{fill:#01070A;}
	.st408{fill:#030C11;}
	.st409{fill:#2F2E2D;}
	.st410{fill:#121C21;}
	.st411{fill:#2D333B;}
	.st412{fill:#96AEB4;}
	.st413{fill:#72868D;}
	.st414{fill:#293238;}
	.st415{fill:#2C3439;}
	.st416{fill:#E21E27;}
	.st417{fill:#C58240;}
	.st418{fill:#333B40;}
	.st419{fill:#2F383C;}
	.st420{fill:#2A2F2B;}
	.st421{fill:#F8DCB6;}
	.st422{fill:#020102;}
	.st423{fill:#112126;}
	.st424{fill:#020200;}
	.st425{fill:#3D2F26;}
	.st426{fill:#2E3438;}
	.st427{fill:#2A231A;}
	.st428{fill:#080A0B;}
	.st429{fill:#AB9378;}
	.st430{fill:#AD9881;}
	.st431{fill:#18140E;}
	.st432{fill:#BDDBF3;}
	.st433{fill:#BDDCF4;}
	.st434{fill:#C3DDED;}
	.st435{fill:#BDDBF2;}
	.st436{fill:#BFDBF1;}
	.st437{fill:#020609;}
	.st438{fill:#161A1D;}
	.st439{fill:#171A1D;}
	.st440{fill:#1A2024;}
	.st441{fill:#D47751;}
	.st442{fill:#1E2D31;}
	.st443{fill:#2B1E19;}
	.st444{fill:#1F2621;}
	.st445{fill:#292924;}
	.st446{fill:#1C1C22;}
	.st447{fill:#C69158;}
	.st448{fill:#BEDBF1;}
	.st449{fill:#273338;}
	.st450{fill:#DA5455;}
	.st451{fill:#D08D4E;}
	.st452{fill:#2A3134;}
	.st453{fill:#35281C;}
	.st454{fill:#1F2624;}
	.st455{fill:#1F2322;}
	.st456{fill:#241C15;}
	.st457{fill:#161C1A;}
	.st458{fill:#CD854A;}
	.st459{fill:#D38A51;}
	.st460{fill:#BEDBF2;}
	.st461{fill:#FCFEFD;}
	.st462{fill:#CD955C;}
	.st463{fill:#050E12;}
	.st464{fill:#C4AB8A;}
	.st465{fill:#FCBF11;}
	.st466{fill:#FDC21D;}
	.st467{fill:#DDA913;}
	.st468{fill:#203540;}
	.st469{fill:#21374D;}
	.st470{fill:#F5BD2B;}
	.st471{fill:#15140A;}
	.st472{fill:#293853;}
	.st473{fill:#0E0D02;}
	.st474{fill:#2F4258;}
	.st475{fill:#323C42;}
	.st476{fill:#DBB533;}
	.st477{fill:#171B20;}
	.st478{fill:#27374C;}
	.st479{fill:#212219;}
	.st480{fill:#25260C;}
	.st481{fill:#233549;}
	.st482{fill:#2A1F03;}
	.st483{fill:#2C2726;}
	.st484{fill:#21282A;}
	.st485{fill:#222829;}
	.st486{fill:#FCFAF8;}
	.st487{fill:#D08D4F;}
	.st488{fill:#CD8C50;}
	.st489{fill:#CA9460;}
	.st490{fill:#1D3240;}
	.st491{fill:#DEA813;}
	.st492{fill:#BD9215;}
	.st493{fill:#B39035;}
	.st494{fill:#DDAA06;}
	.st495{fill:#08BCD4;}
	.st496{fill:#01BCD3;}
	.st497{fill:#CB8143;}
	.st498{fill:#2F2C26;}
	.st499{fill:#161F16;}
	.st500{fill:#2E373D;}
	.st501{fill:#CE884D;}
	.st502{fill:#51D0DE;}
	.st503{fill:#08BCDA;}
	.st504{fill:#16BED6;}
	.st505{fill:#17BFD7;}
	.st506{fill:#51D2E5;}
	.st507{fill:#2EC8DE;}
	.st508{fill:#0CB5CD;}
	.st509{fill:#BCDAF2;}
	.st510{fill:#BDDCF2;}
	.st511{fill:#25282D;}
	.st512{fill:#374147;}
	.st513{fill:#0291A6;}
	.st514{fill:#09B7D0;}
	.st515{fill:#0990A2;}
	.st516{fill:#10ABC1;}
	.st517{fill:#C09311;}
	.st518{fill:#BD9214;}
	.st519{fill:#BE9013;}
	.st520{fill:#BF940F;}
	.st521{fill:#39454A;}
	.st522{fill:#030912;}
	.st523{fill:#FDBF12;}
	.st524{fill:#C19B2A;}
	.st525{fill:#C09216;}
	.st526{fill:#BC9012;}
	.st527{fill:#C09314;}
	.st528{fill:#F8C329;}
	.st529{fill:#FEBE00;}
	.st530{fill:#319CA8;}
	.st531{fill:#02BEDA;}
	.st532{fill:#493D11;}
	.st533{fill:#FCFAF0;}
	.st534{fill:#9E8635;}
	.st535{fill:#BE9212;}
	.st536{fill:#BD951C;}
	.st537{fill:#FCFEFE;}
	.st538{fill:#FDFEFD;}
	.st539{fill:#FDC72B;}
	.st540{fill:#2199AD;}
	.st541{fill:#10ACBE;}
	.st542{fill:#078F9E;}
	.st543{fill:#FDBE12;}
	.st544{fill:#F8BD13;}
	.st545{fill:#FEBE06;}
	.st546{fill:#D2884D;}
	.st547{fill:#FCFDFD;}
	.st548{fill:#0D1B23;}
	.st549{fill:#263442;}
	.st550{fill:#8A3031;}
	.st551{fill:#C53033;}
	.st552{fill:#FCD3D5;}
	.st553{fill:#E0585B;}
	.st554{fill:#2F3D48;}
	.st555{fill:#EF6390;}
	.st556{fill:#B05677;}
	.st557{fill:#F3E1EA;}
	.st558{fill:#D47E9F;}
	.st559{fill:#DA88A6;}
	.st560{fill:#DD90AD;}
	.st561{fill:#744459;}
	.st562{fill:#1E2028;}
	.st563{fill:#2E1123;}
	.st564{fill:#F02838;}
	.st565{fill:#F2F2F4;}
	.st566{fill:#233846;}
	.st567{fill:#1B3845;}
	.st568{fill:#EFF0F0;}
	.st569{fill:#1F3543;}
	.st570{fill:#FDC52B;}
	.st571{fill:#976F13;}
	.st572{fill:#A3801D;}
	.st573{fill:#FAC42B;}
	.st574{fill:#DFAD22;}
	.st575{fill:#B99520;}
	.st576{fill:#17BED7;}
	.st577{fill:#16BFD6;}
	.st578{fill:#57D0DF;}
	.st579{fill:#BC9822;}
	.st580{fill:#BB9527;}
	.st581{fill:#FCFBF5;}
	.st582{fill:#B25575;}
	.st583{fill:#C1F3F5;}
	.st584{fill:#F78F6D;}
	.st585{fill:#6B71C7;}
	.st586{fill:#793348;}
	.st587{fill:#FECAAC;}
	.st588{fill:#D46C68;}
	.st589{fill:#C2F3F4;}
	.st590{fill:#63365B;}
	.st591{fill:#BD4E5B;}
	.st592{fill:#C0505B;}
	.st593{fill:#9F5A62;}
	.st594{fill:#FB7E9D;}
	.st595{fill:#07C2F7;}
	.st596{fill:#51274B;}
	.st597{fill:#14D2C3;}
	.st598{fill:#BF505C;}
	.st599{fill:#0AE1D6;}
	.st600{fill:#0BE2D6;}
	.st601{fill:#16C2F2;}
	.st602{fill:#0FC1F3;}
	.st603{fill:#17C0EE;}
	.st604{fill:#05CBC2;}
	.st605{fill:#1EBFF0;}
	.st606{fill:#51D2C8;}
	.st607{fill:#B9F4F4;}
	.st608{fill:#13CEC6;}
	.st609{fill:#DE9073;}
	.st610{fill:#1DBEEE;}
	.st611{fill:#C9E5E7;}
	.st612{fill:#32D1C4;}
	.st613{fill:#B65D64;}
	.st614{fill:#2DC2EC;}
	.st615{fill:#0ED4C5;}
	.st616{fill:#43D4CB;}
	.st617{fill:#B0706A;}
	.st618{fill:#FCF4ED;}
	.st619{fill:#B56769;}
	.st620{fill:#571626;}
	.st621{fill:#925559;}
	.st622{fill:#6063AF;}
	.st623{fill:#35D0C4;}
	.st624{fill:#7377BA;}
	.st625{fill:#696EB5;}
	.st626{fill:#5AD1C8;}
	.st627{fill:#DEF8FB;}
	.st628{fill:#ED7B97;}
	.st629{fill:#6066A0;}
	.st630{fill:#B3606A;}
	.st631{fill:#3DBEEB;}
	.st632{fill:#33C2EC;}
	.st633{fill:#BA6B68;}
	.st634{fill:#A04349;}
	.st635{fill:#854F55;}
	.st636{fill:#A0434C;}
	.st637{fill:#66E3DE;}
	.st638{fill:#6FE6DD;}
	.st639{fill:#FDCAAC;}
	.st640{fill:#5C4291;}
	.st641{fill:#6271B6;}
	.st642{fill:#6776B8;}
	.st643{fill:#482035;}
	.st644{fill:#6578B3;}
	.st645{fill:#9ABFC4;}
	.st646{fill:#8B5457;}
	.st647{fill:#FECAAB;}
	.st648{fill:#BD4F5A;}
	.st649{fill:#E86165;}
	.st650{fill:#BB505C;}
	.st651{fill:#AE4058;}
	.st652{fill:#6D6FC3;}
	.st653{fill:#502549;}
	.st654{fill:#F8A993;}
	.st655{fill:#B03F57;}
	.st656{fill:#5E4390;}
	.st657{fill:#FBBD6F;}
	.st658{fill:#6C6EC1;}
	.st659{fill:#BD5055;}
	.st660{fill:#C0515B;}
	.st661{fill:#F5B975;}
	.st662{fill:#C05257;}
	.st663{fill:#63375E;}
	.st664{fill:#7071C2;}
	.st665{fill:#602A42;}
	.st666{fill:#BA4C52;}
	.st667{fill:#FCA8A7;}
	.st668{fill:#58499A;}
	.st669{fill:#E58B76;}
	.st670{fill:#3F0315;}
	.st671{fill:#E4626B;}
	.st672{fill:#5F5098;}
	.st673{fill:#BE5151;}
	.st674{fill:#FD8B65;}
	.st675{fill:#BF5250;}
	.st676{fill:#B24545;}
	.st677{fill:#BA4D4D;}
	.st678{fill:#F0A58A;}
	.st679{fill:#F1A68D;}
	.st680{fill:#4F2549;}
	.st681{fill:#BC5354;}
	.st682{fill:#622A46;}
	.st683{fill:#985767;}
	.st684{fill:#F5937E;}
	.st685{fill:#5E2843;}
	.st686{fill:#4F1A2C;}
	.st687{fill:#C95F50;}
	.st688{fill:#B2514E;}
	.st689{fill:#F4957D;}
	.st690{fill:#3D0F2D;}
	.st691{fill:#56366B;}
	.st692{fill:#EFAC8C;}
	.st693{fill:#B54A48;}
	.st694{fill:#671611;}
	.st695{fill:#F7D0C1;}
	.st696{fill:#AB646D;}
	.st697{fill:#AED3DB;}
	.st698{fill:#8DADB7;}
	.st699{fill:#DAF6FC;}
	.st700{fill:#7D99A6;}
	.st701{fill:#708D9C;}
	.st702{fill:#432843;}
	.st703{fill:#A2C6CD;}
	.st704{fill:#CDFCFE;}
	.st705{fill:#9DC3CB;}
	.st706{fill:#CEF6FD;}
	.st707{fill:#D04C5E;}
	.st708{fill:#7FA0AC;}
	.st709{fill:#ABD7DC;}
	.st710{fill:#94BDC4;}
	.st711{fill:#A9D7DA;}
	.st712{fill:#657E8F;}
	.st713{fill:#99C0C5;}
	.st714{fill:#546D7E;}
	.st715{fill:#94BCC4;}
	.st716{fill:#A7D0D3;}
	.st717{fill:#290D29;}
	.st718{fill:#A0404D;}
	.st719{fill:#584493;}
	.st720{fill:#5A4799;}
	.st721{fill:#584598;}
	.st722{fill:#5A50A0;}
	.st723{fill:#523D8F;}
	.st724{fill:#554E9F;}
	.st725{fill:#7165A0;}
	.st726{fill:#4F418F;}
	.st727{fill:#7073D6;}
	.st728{fill:#6C6AA2;}
	.st729{fill:#6F73D8;}
	.st730{fill:#6161B0;}
	.st731{fill:#726B95;}
	.st732{fill:#5E58AB;}
	.st733{fill:#F8A891;}
	.st734{fill:#9E5964;}
	.st735{fill:#965262;}
	.st736{fill:#9A5462;}
	.st737{fill:#924C5E;}
	.st738{fill:#652332;}
	.st739{fill:#702432;}
	.st740{fill:#904B5D;}
	.st741{fill:#AD585F;}
	.st742{fill:#89364C;}
	.st743{fill:#8D4759;}
	.st744{fill:#934F60;}
	.st745{fill:#884155;}
	.st746{fill:#864154;}
	.st747{fill:#8F4A5A;}
	.st748{fill:#5D428F;}
	.st749{fill:#FAAB93;}
	.st750{fill:#583873;}
	.st751{fill:#0C0000;}
	.st752{fill:#4E2D63;}
	.st753{fill:#9E5F93;}
	.st754{fill:#FB7F9C;}
	.st755{fill:#4A1937;}
	.st756{fill:#0ED1CC;}
	.st757{fill:#30C1EF;}
	.st758{fill:#7ED7F1;}
	.st759{fill:#AEF5FE;}
	.st760{fill:#97E7F9;}
	.st761{fill:#94E9F9;}
	.st762{fill:#31C0EE;}
	.st763{fill:#3FC0EC;}
	.st764{fill:#70D5F5;}
	.st765{fill:#90DFF9;}
	.st766{fill:#95E7F8;}
	.st767{fill:#4FB9E0;}
	.st768{fill:#7FE5FE;}
	.st769{fill:#47D6CA;}
	.st770{fill:#13D1CA;}
	.st771{fill:#53274C;}
	.st772{fill:#FBADAC;}
	.st773{fill:#C6E9EC;}
	.st774{fill:#F7AC93;}
	.st775{fill:#522A4C;}
	.st776{fill:#330924;}
	.st777{fill:#180000;}
	.st778{fill:#4A296B;}
	.st779{fill:#DAA68B;}
	.st780{fill:#FDFCFC;}
	.st781{fill:#73303E;}
	.st782{fill:#F5A98F;}
	.st783{fill:#6B1E36;}
	.st784{fill:#5C2F49;}
	.st785{fill:#612033;}
	.st786{fill:#F5B092;}
	.st787{fill:#863858;}
	.st788{fill:#331126;}
	.st789{fill:#793043;}
	.st790{fill:#F5BB9F;}
	.st791{fill:#AC5553;}
	.st792{fill:#F0B396;}
	.st793{fill:#EE8A73;}
	.st794{fill:#C74554;}
	.st795{fill:#6B70C7;}
	.st796{fill:#5C56A8;}
	.st797{fill:#5E5CB0;}
	.st798{fill:#5D44A0;}
	.st799{fill:#EFAA65;}
	.st800{fill:#F3A15C;}
	.st801{fill:#6270D6;}
	.st802{fill:#C05160;}
	.st803{fill:#F2A857;}
	.st804{fill:#12C6F5;}
	.st805{fill:#F5A664;}
	.st806{fill:#E39C5D;}
	.st807{fill:#F9BE7D;}
	.st808{fill:#CB7F51;}
	.st809{fill:#A66340;}
	.st810{fill:#FACEA9;}
	.st811{fill:#4180B0;}
	.st812{fill:#E39D5F;}
	.st813{fill:#065A93;}
	.st814{fill:#DC8557;}
	.st815{fill:#EAEFF3;}
	.st816{fill:#039EDD;}
	.st817{fill:#BED2DE;}
	.st818{fill:#147BB4;}
	.st819{fill:#5DBFC6;}
	.st820{fill:#C9E5F3;}
	.st821{fill:#B7D6E8;}
	.st822{fill:#DC885A;}
	.st823{fill:#F7E8BF;}
	.st824{fill:#06A0AF;}
	.st825{fill:#D4E4ED;}
	.st826{fill:#C6D5DD;}
	.st827{fill:#B7D5E8;}
	.st828{fill:#819EC2;}
	.st829{fill:#ADC0DA;}
	.st830{fill:#7D9FC4;}
	.st831{fill:#B0C7D1;}
	.st832{fill:#DFB38D;}
	.st833{fill:#F5EEEA;}
	.st834{fill:#DC8658;}
	.st835{fill:#B6CCD7;}
	.st836{fill:#E39D5D;}
	.st837{fill:#B26E46;}
	.st838{fill:#EA9B59;}
	.st839{fill:#DE914F;}
	.st840{fill:#E18F4D;}
	.st841{fill:#DE8D4B;}
	.st842{fill:#B77448;}
	.st843{fill:#C47E4F;}
	.st844{fill:#D6935F;}
	.st845{fill:#F8EBC3;}
	.st846{fill:#F2E5BE;}
	.st847{fill:#F7D5AE;}
	.st848{fill:#BB6B46;}
	.st849{fill:#B56442;}
	.st850{fill:#5B362D;}
	.st851{fill:#613B30;}
	.st852{fill:#73473A;}
	.st853{fill:#E8B893;}
	.st854{fill:#513026;}
	.st855{fill:#F2C39F;}
	.st856{fill:#F1C39F;}
	.st857{fill:#E0AE8A;}
	.st858{fill:#DC8457;}
	.st859{fill:#488DC5;}
	.st860{fill:#DD8C49;}
	.st861{fill:#DC8D49;}
	.st862{fill:#0080C6;}
	.st863{fill:#0070AE;}
	.st864{fill:#1B70A2;}
	.st865{fill:#3C6497;}
	.st866{fill:#E8F0F7;}
	.st867{fill:#F2F5F8;}
	.st868{fill:#F4F9FA;}
	.st869{fill:#CFE1EC;}
	.st870{fill:#1192CE;}
	.st871{fill:#B9D0DD;}
	.st872{fill:#A9BDD4;}
	.st873{fill:#819ABA;}
	.st874{fill:#A2BECB;}
	.st875{fill:#AAC0CC;}
	.st876{fill:#B2C8D4;}
	.st877{fill:#B5CCD9;}
	.st878{fill:#CDDCE5;}
	.st879{fill:#049CD9;}
	.st880{fill:#8DBAD1;}
	.st881{fill:#BCD3E0;}
	.st882{fill:#37BBD7;}
	.st883{fill:#44BCD7;}
	.st884{fill:#91D3E8;}
	.st885{fill:#E5F3FC;}
	.st886{fill:#D7E6F0;}
	.st887{fill:#04B0C1;}
	.st888{fill:#225C8B;}
	.st889{fill:#9FBAC6;}
	.st890{fill:#A1BBC8;}
	.st891{fill:#AEC3CF;}
	.st892{fill:#E7AD75;}
	.st893{fill:#CF875B;}
	.st894{fill:#DABCA4;}
	.st895{fill:#F4EBE3;}
	.st896{fill:#554233;}
	.st897{fill:#E4DED9;}
	.st898{fill:#513F2F;}
	.st899{fill:#70503B;}
	.st900{fill:#0F88C2;}
	.st901{fill:#73A6CA;}
	.st902{fill:#1F73A4;}
	.st903{fill:#1F73A5;}
	.st904{fill:#2173A5;}
	.st905{fill:#3E88BD;}
	.st906{fill:#824725;}
	.st907{fill:#438BC1;}
	.st908{fill:#EAEEF2;}
	.st909{fill:#019DDD;}
	.st910{fill:#044C86;}
	.st911{fill:#2F4E74;}
	.st912{fill:#B0CDE0;}
	.st913{fill:#FAFCFD;}
	.st914{fill:#D6E5EE;}
	.st915{fill:#E8EFF7;}
	.st916{fill:#F4BB8A;}
	.st917{fill:#9B6141;}
	.st918{fill:#844016;}
	.st919{fill:#B65C16;}
	.st920{fill:#8DB5CA;}
	.st921{fill:#8D4316;}
	.st922{fill:#A9C2CF;}
	.st923{fill:#F0F4F7;}
	.st924{fill:#7796BE;}
	.st925{fill:#BCCDD7;}
	.st926{fill:#B8CEDA;}
	.st927{fill:#326393;}
	.st928{fill:#E7EDEF;}
	.st929{fill:#C7D6E0;}
	.st930{fill:#8CA5C2;}
	.st931{fill:#AFC3CF;}
	.st932{fill:#D8D6D2;}
	.st933{fill:#A35021;}
	.st934{fill:#7C3810;}
	.st935{fill:#A26242;}
	.st936{fill:#A36343;}
	.st937{fill:#EFA363;}
	.st938{fill:#EEA365;}
	.st939{fill:#D78555;}
	.st940{fill:#EFA466;}
	.st941{fill:#B35A12;}
	.st942{fill:#EA9E63;}
	.st943{fill:#F2D09E;}
	.st944{fill:#3E6598;}
	.st945{fill:#DBE4E9;}
	.st946{fill:#EEBF99;}
	.st947{fill:#EBBE99;}
	.st948{fill:#9D4B1E;}
	.st949{fill:#B15F1B;}
	.st950{fill:#7E3B11;}
	.st951{fill:#B85D12;}
	.st952{fill:#B95D12;}
	.st953{fill:#DD8C58;}
	.st954{fill:#A84E18;}
	.st955{fill:#9D491A;}
	.st956{fill:#F2DBB0;}
	.st957{fill:#AC6C47;}
	.st958{fill:#B95D13;}
	.st959{fill:#765243;}
	.st960{fill:#E0B18E;}
	.st961{fill:#8F4116;}
	.st962{fill:#E07E42;}
	.st963{fill:#FFE0AD;}
	.st964{fill:#F2D19E;}
	.st965{fill:#F08547;}
	.st966{fill:none;stroke:#E1BE91;stroke-width:5.8357;stroke-linecap:round;stroke-linejoin:round;stroke-miterlimit:10;}
	.st967{fill:#F0EBF0;}
	.st968{fill:#6BA9BA;}
	.st969{fill:#F4D3A1;}
	.st970{fill:#F0E8EB;}
	.st971{fill:none;stroke:#524643;stroke-linecap:round;stroke-linejoin:round;stroke-miterlimit:10;}
	.st972{fill:none;stroke:#524643;stroke-width:0.5;stroke-linecap:round;stroke-linejoin:round;stroke-miterlimit:10;}
	.st973{fill:#524643;}
	.st974{opacity:0.3;fill:#C7C7C7;}
	.st975{fill:#83462B;}
	.st976{fill:#F4A061;}
	.st977{fill:none;stroke:#E08B58;stroke-width:4.459;stroke-linecap:round;stroke-linejoin:round;stroke-miterlimit:10;}
	.st978{fill:#FBC883;}
	.st979{fill:#E98C54;}
	.st980{fill:#F2F0E7;}
	.st981{fill:#E2955B;}
	.st982{fill:none;stroke:#AE6D36;stroke-width:0.5;stroke-linecap:round;stroke-linejoin:round;stroke-miterlimit:10;}
	.st983{fill:#F0866F;}
	.st984{fill:none;stroke:#E08B58;stroke-width:5.1258;stroke-linecap:round;stroke-linejoin:round;stroke-miterlimit:10;}
</style>
<g>
	<path class="st0" d="M34.47,163.19h2.7v5.06h5.84v-5.06h2.7v13.2h-2.7v-5.7h-5.84v5.7h-2.7V163.19z"/>
	<path class="st0" d="M48.73,163.19h2.7v13.2h-2.7V163.19z"/>
	<path class="st0" d="M54.45,163.19h4.32c4.18-0.04,7.26,2.66,7.2,6.56c0.06,3.82-3.02,6.7-7.2,6.64h-4.32V163.19z M58.75,173.95
		c2.66,0,4.44-1.66,4.44-4.2c0-2.56-1.74-4.12-4.44-4.12h-1.6v8.32H58.75z"/>
	<path class="st0" d="M76.35,176.39l-3.42-4.66h-1.98v4.66h-2.7v-13.2h4.96c2.76,0,4.76,1.72,4.76,4.26c0,1.68-0.88,3.04-2.32,3.76
		l3.74,5.18H76.35z M70.95,169.35h2.26c1.26,0,2-0.76,2-1.9c0-1.12-0.78-1.88-2-1.88h-2.26V169.35z"/>
	<path class="st0" d="M88.83,174.67h-5.4l-0.74,1.72h-2.9l5.9-13.44h0.9l5.88,13.44h-2.9L88.83,174.67z M86.13,167.99l-1.76,4.46
		h3.52L86.13,167.99z"/>
	<path class="st0" d="M95.75,165.63h-4.22v-2.44h11.16v2.44h-4.24v10.76h-2.7V165.63z"/>
	<path class="st0" d="M110.75,174.67h-5.4l-0.74,1.72h-2.9l5.9-13.44h0.9l5.88,13.44h-2.9L110.75,174.67z M108.05,167.99l-1.76,4.46
		h3.52L108.05,167.99z"/>
	<path class="st0" d="M122.17,162.95c2.5,0,4.64,1.22,5.82,3.28l-2.04,1.44c-0.94-1.48-2.2-2.22-3.78-2.22
		c-2.46,0-4.26,1.84-4.26,4.36s1.8,4.32,4.26,4.32c1.58,0,2.84-0.74,3.78-2.22l2.04,1.44c-1.14,2.06-3.3,3.28-5.84,3.28
		c-3.86,0.08-7.1-3.06-7.02-6.84C115.07,166.01,118.33,162.87,122.17,162.95z M119.45,178.25c0.34,0.02,0.74,0.04,1.2,0.04
		c0.78,0,1.24-0.4,1.24-1.14c0-0.34-0.08-0.74-0.26-1.16l1.06-0.48c0.86,0.48,1.34,1.22,1.34,2.18c0,1.46-1.18,2.54-3.1,2.54
		c-0.52,0-1.02-0.06-1.48-0.2V178.25z"/>
	<path class="st0" d="M137.87,174.67h-5.4l-0.74,1.72h-2.9l5.9-13.44h0.9l5.88,13.44h-2.9L137.87,174.67z M134.75,161.13
		c-0.38-0.22-0.66-0.34-0.88-0.34c-0.38,0-0.56,0.28-0.56,0.66v0.24h-2.06c-0.02-0.3-0.04-0.52-0.04-0.68c0-1.6,1.02-2.68,2.32-2.68
		c0.46,0,0.96,0.14,1.48,0.42l0.6,0.36c0.18,0.12,0.66,0.34,0.9,0.34c0.38,0,0.56-0.28,0.56-0.68v-0.24h2.06
		c0.02,0.3,0.04,0.52,0.04,0.66c0,1.62-1.02,2.7-2.3,2.7c-0.46,0-0.98-0.14-1.52-0.44L134.75,161.13z M135.17,167.99l-1.76,4.46
		h3.52L135.17,167.99z"/>
	<path class="st0" d="M149.25,162.95c3.8-0.08,7.1,3.06,7.04,6.84c0.06,3.78-3.24,6.92-7.04,6.84c-3.8,0.08-7.06-3.06-7-6.84
		C142.19,166.01,145.45,162.87,149.25,162.95z M149.27,165.45c-2.44,0-4.24,1.8-4.24,4.34c0,2.54,1.8,4.34,4.24,4.34
		c2.42,0,4.24-1.8,4.24-4.34C153.51,167.29,151.69,165.45,149.27,165.45z"/>
</g>
<g>
	<g>
		<path class="st962" d="M81.22,101.4c2.92,2.45,8.02,9.46,14.28,13.27c2.78,1.69,12.78,1.24,12.02,4.74
			c0.04,1.21-2.6,1.14-4.86,1.11c-2.81,0.04-5.09,0.07-8.82,0.03c-9.15-0.11-10.57,0.02-16.84-4.91L81.22,101.4z"/>
		<path class="st963" d="M95.49,114.66c-0.22-0.14-0.44-0.28-0.66-0.43c-1.09,1.12-1.92,3.97-1.37,6.29c0.12,0,0.24,0,0.37,0
			c3.74,0.05,6.02,0.02,8.82-0.03c2.26,0.03,4.9,0.11,4.86-1.11C108.27,115.9,98.27,116.36,95.49,114.66z"/>
		<path class="st964" d="M44.41,99.19c5.38,7.66,2.5,17.18,0.62,20.21c-0.7,1.14,2.47,1.31,2.25,4.65c-2.39,0.21-3.66,0.13-5.88,0
			c-2.37-1.34-14.24-24.45-13.3-32.81L44.41,99.19z"/>
		<path class="st965" d="M93.29,98.81c0,2.59-0.84,5.03-1.35,6.67c-0.99,3.21-6.03,17.4-17.06,18.69
			c-13.11,1.52-27.85-5.23-37.57-12.97c-10.13-6.59-17.84-11.06-18.93-19.96c-0.05-4.47,2.02-10.17,6.99-14.11
			c3.31-2.64,7.08-3.34,10.77-2.85c2.12,0.28,4.21,0.95,6.17,1.87c4.65,2.17,20.82,14.76,27.78,16.72c0.44,0.13,0.84,0.21,1.21,0.24
			c4.87,0.46,6.08-1.4,9.38-2.76C84.9,88.61,93.29,94.68,93.29,98.81z"/>
		<path class="st963" d="M80.67,90.35c-2.76,1.14-7.11,2.4-10.32,2.59c0.1,5.44,3.43,11.25,7.7,15.25c1.68,1.57,3.59,3.7,5.51,5.33
			c0.69,0.59,2.24,1.97,3.29,2.51c2.6-4,4.71-8.49,5.19-10.04c0.51-1.64,1.25-4.58,1.25-7.17C93.29,94.67,84.9,88.61,80.67,90.35z"
			/>
		<path class="st965" d="M75.57,106.07c3.26,2.16,8.5,8.64,14.76,12.45c2.78,1.69,12.78,1.24,12.02,4.74
			c0.04,1.21-2.6,1.14-4.86,1.11c-2.81,0.04-5.09,0.07-8.82,0.02c-9.15-0.11-10.57,0.02-16.84-4.91L75.57,106.07z"/>
		<path class="st963" d="M90.32,118.52c-0.22-0.14-0.44-0.28-0.66-0.43c-1.09,1.12-1.92,3.97-1.37,6.29c0.12,0,0.24,0,0.37,0
			c3.74,0.05,6.02,0.02,8.82-0.02c2.26,0.03,4.9,0.11,4.86-1.11C103.1,119.76,93.11,120.22,90.32,118.52z"/>
		<path class="st966" d="M101.26,123.92c-0.02-0.53-0.5-1.03-0.96-1.17"/>
		<path class="st966" d="M46.72,123.79c0.1-0.53-0.36-1.27-0.73-1.56"/>
		<path class="st966" d="M45.52,123.88c0.1-0.53-0.36-1.27-0.73-1.56"/>
		<path class="st966" d="M102.1,123.34c-0.02-0.53-0.5-1.03-0.96-1.17"/>
		<path class="st966" d="M106.55,120.1c-0.02-0.53-0.5-1.03-0.96-1.17"/>
		<path class="st966" d="M107.27,119.41c-0.02-0.53-0.5-1.03-0.96-1.17"/>
		<path class="st967" d="M92.74,123.82c-3.26,0.14-6.49-0.63-9.74-0.85c-1.41-0.1-3.63-0.35-4.86-1.28
			c-1.51-1.14-2.66-2.89-3.85-5.7c-0.37,1.64,0.46,4.36,1.01,5.5c0.33,0.69-0.51,0.95-1.55,1.03c-1.33,0.11-3.93,0.19-6.48-0.24
			c-11.64-1.98-23.46-7.94-25.56-10.43c-2.28-2.69-2.42-6.39-2.78-9.73c-0.27-2.51-0.74-5.48-2.66-7.33
			c-0.29-0.28-0.6-0.54-0.92-0.79c1.87,5.19,3.12,11.39,1.22,16.7c0.25,0.16,0.5,0.32,0.75,0.49c2.67,2.13,5.72,4.17,9.02,6
			c-0.01-0.01-0.03-0.01-0.04-0.02c0.36,0.2,0.71,0.39,1.05,0.57c0.07,0.04,0.15,0.08,0.22,0.12c0.38,0.2,0.75,0.39,1.11,0.57
			c0.12,0.06,0.25,0.13,0.37,0.19c0,0,0,0,0-0.01c2.83,1.4,4.95,2.21,4.95,2.21c6.78,2.67,14.05,4.13,20.89,3.34
			c1.13-0.13,2.19-0.4,3.19-0.78c2.57,0.94,5.27,0.93,10.6,0.99c3.74,0.05,6.02,0.02,8.82-0.02c2.04,0.03,4.38,0.09,4.79-0.79
			C99.01,123.84,96.11,123.67,92.74,123.82z"/>
		<path class="st965" d="M27.45,46.88c-2.46-0.11-7.1,2.81-8.64,4.21c-2.18,1.98-3.51,3.45-4.78,6.31
			c-0.58,1.32-0.92,2.56-0.64,3.31c0.16-0.2,1.41-1.16,1.54-1.35c-0.81,1.93-0.82,6.47,0.56,8.51c0.04-0.15,0.82-1.05,0.83-1.06
			c0,2.4,1.9,3.76,3.75,6.25c1.31,1.77,5.44,5.1,6.07,5.71l2.54-1.12c-2.41-3.29-4.62-8.1-5.16-12.04c-0.49-3.56-0.46-7.49,0.43-11
			c0.54-2.14,1.95-5.39,3.68-7.58"/>
		<g>
			<path class="st968" d="M89,104.02c-1.54,0.42-3.17,0.53-4.78,0.55c-2.37,0.03-4.89-0.5-6.87-1.88c-1.77-1.24-3.47-3.32-4.06-5.38
				c-0.36-1.27-0.63-2.62-0.77-3.93c-0.08-0.76,1.01-0.53,1.77-0.62c0.01,0,1.1-0.28,1.18,0.47c0.37,3.4,1.33,4.89,3.39,6.62
				c1.11,0.93,2.9,1.7,4.43,1.91c3.36,0.47,8.94-1.55,10.07-2.43c0.6-0.47,0.59,0.79,0.49,1.55c-0.09,0.76-0.44,1.13-1.07,1.51
				C91.63,103.11,90.34,103.66,89,104.02z"/>
		</g>
		<g>
			<g>
				<path class="st965" d="M80.97,89.8c-4.75-1.23-10.18-11.66-9.32-13.51c0.57-0.68,4.46,1.97,6.38,3.19
					c1.51,0.96,3.23,1.69,4.93,2.26c1.12,0.76,0.83,3,0.37,4.59C82.83,88.11,81.84,90.02,80.97,89.8z"/>
				<path class="st969" d="M82.18,86.48c-0.35,0.67-0.82,1.16-1.33,1.23c-1.39-0.49-2.91-1.75-4.27-3.23
					c-0.04-0.05-0.09-0.09-0.13-0.14c-2.31-2.57-4.11-5.77-3.91-6.89c0-0.01,0.01-0.03,0.01-0.04c0-0.05,0.02-0.09,0.04-0.13
					c0.48-0.53,3.63,1.75,5.3,2.74c1.31,0.78,3.04,1.45,4.35,2.25C83.15,82.83,82.93,85.06,82.18,86.48z"/>
				<path class="st970" d="M82.18,86.48c-0.35,0.67-0.82,1.16-1.33,1.23c-1.39-0.49-2.91-1.75-4.27-3.23
					c-0.04-0.05-0.09-0.09-0.13-0.14c-2.29-2.65-4.09-5.8-3.91-6.89c0-0.01,0.01-0.03,0.01-0.04c0-0.05,0.02-0.09,0.04-0.13
					c0.08,0,1.56,2.75,2.76,4.14c0.8,0.95,2.08,2.13,3.06,2.91C79.26,85,81.09,85.93,82.18,86.48z"/>
			</g>
			<path class="st965" d="M75.14,95.94c0.07,0.17,0.13,0.35,0.21,0.51c1.46,3.05,3.3,4.8,6.79,5.52c2.27,0.47,4.98-0.29,6.9-0.94
				c2.93-1,5.78-2.63,8.74-4.41c4.39-2.64,8.22-8.45,7.6-11.48c-1.3-6.41-6.05-3.61-11.12-2.65c-5.93-6.66-20.69-1.09-20.67,6.97
				C73.59,90.9,74.42,94.13,75.14,95.94z"/>
			<path class="st963" d="M105.57,84.99c-1.48-6.8-6.24-3.45-11.31-2.49c-1.64-1.84-3.95-2.74-6.44-2.92
				c0.02,0.02,0.04,0.03,0.05,0.05c4.3,0.55,7.32,6.66,7.21,10.76c-0.07,2.71-1.21,5.3-3.16,7.35c-1.18,1.25-2.55,2.7-4.1,3.69
				c0.41-0.06,0.8-0.25,1.21-0.38c3.03-1.02,5.84-1.95,8.71-3.87C105.45,92.03,106.29,88.27,105.57,84.99z"/>
			<g>
				<path class="st971" d="M90.97,84.98c-1.29-1.29-3.32,0.06-2.09,1.76"/>
			</g>
			<g>
				<path class="st972" d="M100.99,87.73c2.06,0.75,5.68-1.14,3.77-4.51"/>
			</g>
			<g>
				<path class="st973" d="M103.91,80.87c0.68,1.06,1.14,1.77,1,2.33c-0.12,0.48-1.51,0.53-2.11,0.45
					c-1.33-0.17-4.34-2.08-2.97-2.77C101.17,80.21,102.96,79.39,103.91,80.87z"/>
				<path class="st974" d="M102.38,80.37c0.12-0.02,0.69-0.1,0.69,0.17c0,0.23-0.51,0.36-0.66,0.41c-0.27,0.08-0.54,0.14-0.82,0.21
					c-0.19,0.04-0.6,0.01-0.39-0.26c0.12-0.15,0.32-0.23,0.5-0.31C101.91,80.49,102.14,80.41,102.38,80.37z"/>
			</g>
			<g>
				<path class="st965" d="M75.23,94.75c-4.9-0.32-12.19-9.54-11.69-11.52c0.43-0.77,4.75,1.1,6.87,1.94
					c1.66,0.66,3.49,1.05,5.27,1.29c1.24,0.54,1.38,2.79,1.23,4.44C76.74,92.74,76.13,94.8,75.23,94.75z"/>
				<path class="st969" d="M75.8,91.26c-0.22,0.72-0.58,1.29-1.08,1.46c-1.46-0.22-3.19-1.17-4.79-2.37
					c-0.05-0.04-0.11-0.08-0.15-0.12c-2.75-2.09-5.12-4.9-5.13-6.04c0-0.01,0-0.03,0-0.04c0-0.05,0-0.09,0.02-0.13
					c0.37-0.61,3.89,1.04,5.72,1.7c1.43,0.52,3.27,0.86,4.69,1.39C76.07,87.49,76.27,89.72,75.8,91.26z"/>
				<path class="st970" d="M75.8,91.26c-0.22,0.72-0.58,1.29-1.08,1.46c-1.46-0.22-3.19-1.17-4.79-2.37
					c-0.05-0.04-0.11-0.08-0.15-0.12c-2.75-2.17-5.1-4.93-5.13-6.04c0-0.01,0-0.03,0-0.04c0-0.05,0-0.09,0.02-0.13
					c0.08-0.02,2.05,2.41,3.49,3.55c0.97,0.78,2.44,1.7,3.55,2.28C72.66,90.35,74.63,90.92,75.8,91.26z"/>
			</g>
		</g>
		<path class="st975" d="M69.23,96.17c-0.76,1.27-0.32,1.53,0.55,3.09c0.98,1.77-1.71,2.33-1.59,3.32c0.3,2.44,0.2,2.25-0.88,2.67
			c-3.78,1.48-10.98-0.87-15.05-0.12c-3.08,0.57-5.61-5.34-11.44-6.78c-1.38-0.34-0.02-6.21-4.9-7.51
			c-3.84-1.03-4.59-6.07-3.68-9.76c0.51-2.08,2.02-4.98,3.89-6.79c2.12,0.28,4.21,0.95,6.17,1.87c4.65,2.17,20.82,14.76,27.78,16.72
			C70.44,93.68,69.88,95.07,69.23,96.17z"/>
		<g>
			<path class="st965" d="M35.68,94.93c5.38,7.66,1.5,21.44-0.37,24.47c-0.7,1.14,2.47,1.31,2.25,4.65c-2.39,0.21-3.66,0.13-5.88,0
				c-2.37-1.34-14.23-24.45-13.3-32.81L35.68,94.93z"/>
			<path class="st963" d="M35.31,119.4c0.68-1.1,1.49-3.06,1.99-5.46c-1.1-1.67-4.43-1.9-6.36-1.71c-2.1,0.21-4.09,0.78-5.02,2.54
				c2.48,4.95,4.83,8.76,5.75,9.28c2.22,0.13,3.49,0.21,5.88,0C37.78,120.71,34.61,120.53,35.31,119.4z"/>
			<path class="st966" d="M37.09,123.79c0.1-0.53-0.36-1.27-0.73-1.56"/>
			<path class="st966" d="M35.67,123.88c0.1-0.53-0.26-1.14-0.63-1.43"/>
		</g>
	</g>
	<g>
		<g>
			<path class="st976" d="M120.83,68.79c0,0-0.12,0.06-0.34,0.19c-0.29,0.16-0.67,0.36-1.18,0.6c-0.52,0.25-1.17,0.54-2.01,0.82
				c-0.83,0.28-1.85,0.56-3.1,0.65c-1.24,0.1-2.74-0.04-4.16-0.61c-0.71-0.28-1.38-0.65-1.98-1.07c-3.93-2.78-5.2-8.38-5.16-12.93
				c0.02-2.64-1.06-5.24-3.38-6.63c-1.32-0.8-4.27-1.32-3.43-3.54c0.89-2.37,4.23-0.74,5.69,0.06c0.74,0.4,1.59,0.84,2.23,1.38
				c2.92,2.47,3.14,3.81,4.69,8.07c0.77,2.17,0.91,4.62,2.07,6.66c1.46,2.57,4.04,0.21,5.8-0.82c1.9-1.11,4.33-0.79,5.67,1.06
				c1.35,1.87,0.93,4.48-0.95,5.84c-0.14,0.1-0.29,0.19-0.44,0.28L120.83,68.79z"/>
			<path class="st977" d="M96.64,46.22c0.4-0.06,1.19,0.11,1.35,0.44"/>
			<path class="st977" d="M97.16,45.38c0.4-0.06,1.18,0.11,1.35,0.44"/>
		</g>
		<path class="st976" d="M176.65,107.58c-0.14-1.54-0.56-3.14-1.3-4.57c-0.18-0.36-0.39-0.7-0.6-1.04c-0.1-0.17-0.22-0.33-0.33-0.49
			c-0.12-0.16-0.26-0.35-0.39-0.52l-0.34-0.4l-0.46-0.5c-0.31-0.3-0.63-0.58-0.94-0.83c-1.28-0.97-2.55-1.53-3.76-1.97
			c-1.23-0.43-2.38-0.72-3.55-0.9c-0.55-0.09-1.12-0.13-1.64-0.19c-0.51-0.02-1.02-0.07-1.48-0.07c-0.94-0.03-1.77-0.02-2.5-0.01
			c-0.72,0.02-1.34,0.03-1.86,0.04c-0.48,0.01-0.87,0.02-1.15,0.02c-0.28,0-0.42,0-0.42,0h-0.01c-0.98,0-1.83,0.72-1.97,1.71
			c-0.15,1.08,0.61,2.08,1.69,2.23c0,0,0.15,0.02,0.42,0.06c0.27,0.04,0.69,0.09,1.23,0.15c0.51,0.06,1.14,0.13,1.85,0.21
			c0.7,0.08,1.48,0.17,2.3,0.3c0.42,0.05,0.82,0.14,1.25,0.22c0.41,0.1,0.82,0.17,1.26,0.3c0.8,0.24,1.7,0.56,2.51,0.97
			c0.82,0.4,1.59,0.9,2.1,1.41c0.13,0.13,0.23,0.25,0.32,0.37c0.03,0.06,0.07,0.11,0.11,0.17c0.04,0.05-0.05-0.06-0.04-0.04
			l0.01,0.01l0.01,0.02l0.03,0.05l0.06,0.09c0.04,0.06,0.09,0.13,0.11,0.18l0.21,0.48c0.07,0.18,0.14,0.35,0.19,0.54
			c0.44,1.42,0.24,3.02-0.34,4.56c-0.15,0.41-0.33,0.81-0.53,1.19c-0.47,0.65-1.02,1.31-1.29,1.67c-0.62,0.82-1.62,1.27-2.47,1.9
			c0.16,0.04,0.36,0.19,0.56,0.22c-1.05,0.52-2.39,0.81-3.54,1.15c0.28,0.08,0.84,0.44,1.11,0.53c-1.24,0.56-1.99,1.94-3.29,2.52
			c0.33,0.11,1.12-0.05,1.5-0.03c-1.02,1.17-1.26,1.54-1.53,2.29c-0.31,0.84-0.44,2.66-0.23,3.59c0.19-0.3,0.84-1.23,1.16-1.37
			c0.52,1.45-0.24,2.58-1,4.01c1.2-0.38,1.77-0.93,2.76-1.51c0.22,0.31,0.2,1.14,0.3,1.51c0.44-0.37,1.53-1.38,1.76-1.83
			c0.32,0.26-0.05,1.01,0.38,1.49c0.59-0.51,2.1-1.37,2.77-1.9c0.05,0.28-0.08,1.02,0,1.29c1.98-0.93,2.99-2.52,4.09-4.34
			c0.24,0.19,0.73,0.65,1.06,0.72c0.2-1.47,1.2-3.1,1.51-4.52c0.11,0.26,0.28,1.17,0.49,1.38c0.85-1.49,0.77-4.18,1.03-5.88
			c0.22-0.7,0.42-1.44,0.58-2.21C176.66,110.61,176.78,109.12,176.65,107.58z"/>
		<path class="st978" d="M174.48,114.53c-0.63,0.39-1.71-0.11-1.9-0.13c-1.01-0.11-1.05-0.91-1.85-1.53c-0.87-0.67-2.31,0.36-3.24,0
			c-0.03,0.04-0.06,0.07-0.08,0.11c-0.62,0.82-1.62,1.27-2.47,1.9c0.16,0.04,0.36,0.19,0.56,0.22c-1.05,0.52-2.39,0.81-3.54,1.15
			c0.28,0.08,0.84,0.44,1.11,0.53c-1.24,0.56-1.99,1.94-3.29,2.52c0.33,0.11,1.12-0.05,1.5-0.03c-1.02,1.17-1.26,1.54-1.53,2.29
			c-0.31,0.84-0.44,2.66-0.23,3.59c0.19-0.3,0.84-1.23,1.16-1.37c0.52,1.45-0.24,2.58-1,4.01c1.2-0.38,1.77-0.93,2.76-1.51
			c0.22,0.31,0.2,1.14,0.3,1.51c0.44-0.37,1.53-1.38,1.76-1.83c0.32,0.26-0.05,1.01,0.38,1.49c0.59-0.51,2.1-1.37,2.77-1.9
			c0.05,0.28-0.08,1.02,0,1.29c1.98-0.93,2.99-2.52,4.09-4.34c0.24,0.19,0.73,0.65,1.06,0.72c0.2-1.47,1.2-3.1,1.51-4.52
			c0.11,0.26,0.28,1.17,0.49,1.38c0.85-1.49,0.77-4.18,1.03-5.88c0.03-0.1,0.06-0.19,0.08-0.29
			C175.37,113.77,175.16,114.12,174.48,114.53z"/>
		<path class="st979" d="M128.54,98.12c-0.22,4.19,1.78,9.33,8.22,12.93c0.93,0.52,1.97,0.96,2.37,2.05
			c0.38,1.03,0.13,2.27-0.96,2.76c-0.8,0.36-5.42-0.16-5.29,1.42c0.09,1.14,2.79,1.01,4.99,1c1.22-0.01,2.81,0.11,3.57-0.44
			c1.06-0.75,1.56-2.94,2.24-3.98c1.05-1.6,1.59-3.32,3.75-4.7"/>
		<path class="st976" d="M157.87,104.78c-0.68,1.66-2,3.62-2.37,5.42c-0.33,1.61,0.87,6.13,0.23,7.54c-0.48,1.06-2.46,0.87-3.8,0.83
			c-2.45-0.08-1.62-1.7-0.44-2.69c0.91-0.76-0.4-3.06-3.53-5.02c-2.26-1.42-5.86-0.58-9.48-3.04"/>
		<g>
			<g>
				<g>
					<path class="st976" d="M127.95,46.42c-2.26,0.25-4.31,1.23-5.69,1.84c-2.71,1.18-7.77,8.11-7.8,17.87
						c-0.03,11.59,4.76,22.04,11.52,31.13c6.76,8.19,10.77,10.93,17.85,11.8c4.04,0.73,10.84,0.04,13.58-3.58
						c2.33-3.07,1.7-7.67,0.91-10.84c-0.45-1.82-1.24-3.58-2.24-5.2c-2.36-3.84-14.94-16.72-17.34-22.59
						c-0.15-0.37-0.27-0.72-0.33-1.03c-0.89-4.2-1.19-8.54-1.03-10.99C137.65,50.81,131.56,46.01,127.95,46.42z"/>
				</g>
			</g>
		</g>
		<g>
			<g>
				<g>
					<path class="st980" d="M158.32,94.64c-0.45-1.82-1.24-3.58-2.24-5.2c-2.36-3.84-14.94-16.72-17.34-22.59
						c-0.15-0.37-0.27-0.72-0.33-1.03c-0.89-4.2-1.19-8.54-1.03-10.99c0.27-4.01-5.83-8.81-9.44-8.4c-2.26,0.25-4.31,1.23-5.69,1.84
						c-2.71,1.18-7.77,8.11-7.8,17.87c-0.02,5.9,0.91,10.73,3.02,16c2.39,1.03,7.32,1.81,10.54,0.84c2.23-0.67,4.13-2.11,5.43-4.06
						c0.68-1.02,1.26-2.32,2.19-3.15c4.66-4.11,10.94,3.2,13.06,6.92c1.58,2.76,2.53,6.1,2.32,9.3c-0.19,3.05-1.28,4.84-3.1,7.17
						c-1.97,2.51-3.57,4.92-6.83,5.73c-2.31,0.57-4.56,1.18-6.9,0.63c0.53,0.35,2.19,1.55,4.37,2.38c1.45,0.95,3.71,1.76,5.47,1.9
						c6.39,1.27,10.83-0.32,13.46-4.15c0.11-0.31,0.33-0.73,0.5-1.05C159.62,101.56,159.04,97.51,158.32,94.64z"/>
				</g>
			</g>
		</g>
		<path class="st978" d="M115.79,58.21c-1.13,0.17-3.79,2.95-3.67,5.81c0.39,0.04,1.17-0.47,1.49-0.41
			c-0.56,0.93-2.22,2.01-1.82,3.28c0.27,0.3,1.17-0.2,1.41-0.3c-0.65,1.55-2.12,2.36-1.94,3.6c0.06,0.39,0.85,0.66,1.08,0.46
			c-0.21,1.34-0.47,2.67-0.31,4.08c0.47-0.27,0.77-0.04,1.24-0.52c-0.06,1.07,0.06,2.11,0.67,2.85c1.89-2.57,3.09,1.71,4.03-1.37
			c1.23,1.35,1.67,1.73,2.79,1.37c0.5-0.16,0.34-0.84,1.05-0.96c0.38-0.06,1.34,1.09,2.26,1.09c0.69,0,0.92-1.17,0.98-1.68
			c2.1,1.26,2.22,0.82,3.2-0.98c1.59,1.8,2.05-0.49,3.21-0.72c0.91-0.18,1.52,1.83,2.38,0.72c1.17-1.86,1.76,0.15,3.14-0.48
			c0.19-0.33,0.79-1.46,0.83-1.96c1.24,0.33,1.6-1.36,1.22-3.47c0.95,0.87,1.5-1.68,0.61-2.55c1.21-0.52,0.83-1.69-0.32-2.12
			c0.2-0.19,0.86-0.24,0.84-0.75c-0.06-0.49-1.16-1.36-1.8-1.76c0.8-1.53-1.16-2.07-1.96-2.8L115.79,58.21z"/>
		<path class="st980" d="M126.38,63.39c3.93,0.18,8.68-0.54,11.84-3.42c-0.48-0.54-1.35-0.9-1.82-1.33l-20.61-0.43
			c-0.5,0.07-1.31,0.67-2.04,1.56C116.63,62.53,122.23,63.19,126.38,63.39z"/>
		<g>
			<g>
				<path class="st981" d="M119.86,42.34c0.32-2.58,2.07-7.93,2.88-8.12c0.84,0.01,3.98,5.07,4.6,7.31
					c-1.37,0.22-2.18,0.18-3.6,0.33L119.86,42.34z"/>
			</g>
			<path class="st976" d="M139.41,53.35c-0.28,1.9-0.66,4.48-1.87,5.85c-2.82,3.21-8.19,3.66-13.8,2.95
				c-6.79-0.87-13.14-1.43-11.75-9.92c0.55-1.11,1.21-1.97,2.19-2.42c2.78-8.03,7.55-10.84,14.82-9.26
				C136.28,42.12,140.45,46.3,139.41,53.35z"/>
			<path class="st978" d="M127.35,58.11c0.33-1.1,0.15-3.23-0.49-4.14c-2.02-2.89-7.64-1.33-7.73-1.51
				c-0.77-1.42-3.29-2.51-4.94-2.65c-1.01,0.35-1.88,1.41-2.19,2.42c-2.27,8.01,4.85,9.46,11.75,9.92
				C124.86,62.22,126.78,60.02,127.35,58.11z"/>
			<g>
				<path class="st982" d="M115.22,54.26c-0.4,2.19,3.03,3.37,3.69-0.17"/>
				<path class="st982" d="M121.99,56.34c-0.52,1.72-4.13,1.25-3.08-2.25"/>
			</g>
			<g>
				<path class="st983" d="M120.83,52.8c0.06,0.69-1.19,1.23-1.52,1.35c-0.46,0.18-0.72,0.18-1.1-0.21
					c-0.31-0.33-0.97-1.56-0.6-2.02C118.23,51.16,120.78,52.25,120.83,52.8z"/>
				<path class="st974" d="M119.41,52.11c0.1,0.04,0.57,0.24,0.43,0.4c-0.12,0.13-0.57,0-0.71-0.04c-0.24-0.07-0.48-0.15-0.73-0.23
					c-0.16-0.05-0.45-0.26-0.15-0.32c0.17-0.04,0.36,0,0.54,0.03C119,51.98,119.21,52.03,119.41,52.11z"/>
			</g>
			<g>
				<path class="st982" d="M126.5,51.28c-0.52-1.77-2.9-1.47-3.42-0.46"/>
			</g>
			<g>
				<path class="st982" d="M115.22,48.29c1.13-1.46,3.23-0.32,3.35,0.82"/>
			</g>
			<g>
				<path class="st976" d="M136.97,48.74c0.99-2.56,2.48-9.24,1.82-9.82c-0.79-0.41-7.15,3.49-8.84,5.26
					c0.06-0.07,0.87,1.7,2.57,2.85C133.98,48.02,135.88,48.74,136.97,48.74z"/>
				<path class="st983" d="M138.58,42.8c-0.02,0.12-0.04,0.25-0.07,0.37c-0.36,1.85-0.96,4.05-1.43,5.29
					c-0.56-0.06-1.04-0.15-1.49-0.28c-0.55-0.16-1.06-0.37-1.6-0.67c-0.56-0.31-1.35-0.8-1.76-1.3c-0.18-0.23-1.07-1.09-0.77-1.5
					c1.36-1.85,6.5-4.92,7.21-4.59c0,0,0.01,0,0.01,0c0.01,0.01,0.02,0.02,0.03,0.04C138.92,40.44,138.83,41.5,138.58,42.8z"/>
				<path class="st970" d="M138.58,42.8c-0.02,0.12-0.04,0.25-0.07,0.37c-0.36,1.85-0.96,4.05-1.43,5.29
					c-0.56-0.06-1.04-0.15-1.49-0.28l-0.02-0.02c0.68-0.66,1.41-2.14,1.74-2.96c0.71-1.79,0.91-3.12,1.36-5
					c0.01-0.03,0.01-0.06,0.01-0.09c0,0,0.01,0,0.01,0c0.01,0.01,0.02,0.02,0.03,0.04C138.9,40.45,138.81,41.49,138.58,42.8z"/>
			</g>
		</g>
		<g>
			<path class="st976" d="M134.37,71.25c0,0-0.01,0.12-0.03,0.35c-0.02,0.3-0.05,0.68-0.11,1.2c-0.07,0.52-0.16,1.16-0.35,1.93
				c-0.19,0.77-0.48,1.68-1.01,2.68c-0.53,0.99-1.37,2.07-2.49,2.88c-0.55,0.4-1.16,0.74-1.78,0.99c-2.96,1.22-6.07,0-8.88-1.05
				c-0.91-0.34-1.79-0.67-2.64-0.98c-0.68-0.24-2.33-0.57-2.63-0.93c-1.53,0.81-2.19,2.67-2.96,4.1c-0.38,0.7-0.58,1.12-0.58,1.12
				c-0.41,0.85-1.44,1.2-2.29,0.79c-0.76-0.37-1.12-1.24-0.89-2.02l0.01-0.02c0,0,0.14-0.47,0.42-1.31
				c0.29-0.83,0.71-2.03,1.47-3.48c2.05-3.89,4.93-4.21,8.92-3.32c0.96,0.22,1.9,0.45,2.82,0.68c1.41,0.34,2.82,0.83,4.29,0.79
				c-0.08,0-0.16,0.01-0.24,0.01c1.88-0.74,1.34-3.07,1.4-4.65c0.08-1.99,1.5-3.69,3.56-3.81c2.08-0.12,3.87,1.47,3.99,3.55
				c0.01,0.16,0.01,0.31,0,0.47L134.37,71.25z"/>
			<path class="st977" d="M108.32,83.73c-0.08-0.4,0.05-1.19,0.38-1.37"/>
			<path class="st977" d="M109.24,84.17c-0.08-0.4,0.06-1.19,0.38-1.37"/>
		</g>
		<path class="st984" d="M151.98,118.3c-0.15-0.44-0.14-1.36,0.19-1.62"/>
		<path class="st984" d="M154,118.29c0.19-0.43,0.25-1.35-0.07-1.63"/>
	</g>
</g>
</svg>
