<?xml version="1.0" encoding="utf-8"?>
<!-- Generator: Adobe Illustrator 26.1.0, SVG Export Plug-In . SVG Version: 6.00 Build 0)  -->
<svg version="1.1" id="Camada_1" xmlns="http://www.w3.org/2000/svg" xmlns:xlink="http://www.w3.org/1999/xlink" x="0px" y="0px"
	 viewBox="0 0 190 190" style="enable-background:new 0 0 190 190;" xml:space="preserve">
<style type="text/css">
	.st0{fill:#5A2BAF;}
	.st1{fill:#273339;}
	.st2{fill:#27333A;}
	.st3{fill:#28333A;}
	.st4{fill:#263338;}
	.st5{fill:#2D383E;}
	.st6{fill:#2A3339;}
	.st7{fill:#343E3F;}
	.st8{fill:#D5F7FE;}
	.st9{fill:#000506;}
	.st10{fill:#283439;}
	.st11{fill:#2E383F;}
	.st12{fill:#384147;}
	.st13{fill:#384349;}
	.st14{fill:#293438;}
	.st15{fill:#B1CCCE;}
	.st16{fill:#152127;}
	.st17{fill:#D6F7FE;}
	.st18{fill:#2B363E;}
	.st19{fill:#344046;}
	.st20{fill:#2E383D;}
	.st21{fill:#94A6AC;}
	.st22{fill:#D4F3F9;}
	.st23{fill:#D4F5F9;}
	.st24{fill:#A8C1C8;}
	.st25{fill:#000205;}
	.st26{fill:#00030A;}
	.st27{fill:#36434A;}
	.st28{fill:#3B464D;}
	.st29{fill:#1B252A;}
	.st30{fill:#2F3943;}
	.st31{fill:#00060E;}
	.st32{fill:#D7F8FD;}
	.st33{fill:#000408;}
	.st34{fill:#A8C0C6;}
	.st35{fill:#A6C0C5;}
	.st36{fill:#D5F1F6;}
	.st37{fill:#01040A;}
	.st38{fill:#01040B;}
	.st39{fill:#1F2B30;}
	.st40{fill:#000409;}
	.st41{fill:#1E272A;}
	.st42{fill:#000508;}
	.st43{fill:#242B31;}
	.st44{fill:#000209;}
	.st45{fill:#00030C;}
	.st46{fill:#000207;}
	.st47{fill:#00050E;}
	.st48{fill:#D4F9FD;}
	.st49{fill:#2C393E;}
	.st50{fill:#8DAAAE;}
	.st51{fill:#192F34;}
	.st52{fill:#030E0F;}
	.st53{fill:#00040A;}
	.st54{fill:#01090E;}
	.st55{fill:#1F2D2E;}
	.st56{fill:#000307;}
	.st57{fill:#19272C;}
	.st58{fill:#202A32;}
	.st59{fill:#000507;}
	.st60{fill:#17242E;}
	.st61{fill:#02060C;}
	.st62{fill:#15202A;}
	.st63{fill:#182022;}
	.st64{fill:#000208;}
	.st65{fill:#AEC0C5;}
	.st66{fill:#00060A;}
	.st67{fill:#00040B;}
	.st68{fill:#031115;}
	.st69{fill:#030A12;}
	.st70{fill:#222D35;}
	.st71{fill:#162224;}
	.st72{fill:#020810;}
	.st73{fill:#01090F;}
	.st74{fill:#01070D;}
	.st75{fill:#030C12;}
	.st76{fill:#FDDDB4;}
	.st77{fill:#FEFEFE;}
	.st78{fill:#CC8643;}
	.st79{fill:#CF8141;}
	.st80{fill:#C9ECF4;}
	.st81{fill:#FCDDB4;}
	.st82{fill:#BAA88F;}
	.st83{fill:#9C693F;}
	.st84{fill:#C9EBF4;}
	.st85{fill:#9B693E;}
	.st86{fill:#CDF0F6;}
	.st87{fill:#996D41;}
	.st88{fill:#C99D78;}
	.st89{fill:#CC8645;}
	.st90{fill:#CA8644;}
	.st91{fill:#CC8745;}
	.st92{fill:#FBFCFC;}
	.st93{fill:#283338;}
	.st94{fill:#283238;}
	.st95{fill:#A48C75;}
	.st96{fill:#FCC01E;}
	.st97{fill:#BB941D;}
	.st98{fill:#BFDCF1;}
	.st99{fill:#1CBACE;}
	.st100{fill:#A1734A;}
	.st101{fill:#9A7149;}
	.st102{fill:#D3A37C;}
	.st103{fill:#2B3437;}
	.st104{fill:#222821;}
	.st105{fill:#C68748;}
	.st106{fill:#BA972C;}
	.st107{fill:#374247;}
	.st108{fill:#24333C;}
	.st109{fill:#CB9D77;}
	.st110{fill:#363D43;}
	.st111{fill:#2D6F7E;}
	.st112{fill:#2D3B3F;}
	.st113{fill:#0E1F29;}
	.st114{fill:#000606;}
	.st115{fill:#8F8044;}
	.st116{fill:#2E3636;}
	.st117{fill:#201F08;}
	.st118{fill:#2C3640;}
	.st119{fill:#308091;}
	.st120{fill:#CEA67E;}
	.st121{fill:#546471;}
	.st122{fill:#546169;}
	.st123{fill:#B8977D;}
	.st124{fill:#27343C;}
	.st125{fill:#313F47;}
	.st126{fill:#394145;}
	.st127{fill:#213640;}
	.st128{fill:#293130;}
	.st129{fill:#0F1D29;}
	.st130{fill:#CC9F7A;}
	.st131{fill:#C89973;}
	.st132{fill:#926844;}
	.st133{fill:#C0874C;}
	.st134{fill:#31331E;}
	.st135{fill:#2D3944;}
	.st136{fill:#BE9672;}
	.st137{fill:#181F16;}
	.st138{fill:#22364D;}
	.st139{fill:#2E2D2A;}
	.st140{fill:#1B2625;}
	.st141{fill:#2C2F2D;}
	.st142{fill:#0D1316;}
	.st143{fill:#203845;}
	.st144{fill:#4E4B47;}
	.st145{fill:#34332E;}
	.st146{fill:#2F3232;}
	.st147{fill:#323B40;}
	.st148{fill:#B38C6B;}
	.st149{fill:#020407;}
	.st150{fill:#E7BB27;}
	.st151{fill:#1F3640;}
	.st152{fill:#24221E;}
	.st153{fill:#223545;}
	.st154{fill:#131717;}
	.st155{fill:#1C2225;}
	.st156{fill:#303940;}
	.st157{fill:#C29472;}
	.st158{fill:#C19F87;}
	.st159{fill:#1F3441;}
	.st160{fill:#272825;}
	.st161{fill:#1C343F;}
	.st162{fill:#110C07;}
	.st163{fill:#323B43;}
	.st164{fill:#121418;}
	.st165{fill:#000509;}
	.st166{fill:#ABBEC0;}
	.st167{fill:#2E3D45;}
	.st168{fill:#333D43;}
	.st169{fill:#232C2C;}
	.st170{fill:#262828;}
	.st171{fill:#2B3230;}
	.st172{fill:#010408;}
	.st173{fill:#343B40;}
	.st174{fill:#0A0F14;}
	.st175{fill:#2E3D43;}
	.st176{fill:#161C1C;}
	.st177{fill:#272922;}
	.st178{fill:#242727;}
	.st179{fill:#1D221E;}
	.st180{fill:#313B40;}
	.st181{fill:#32393F;}
	.st182{fill:#CDF1F7;}
	.st183{fill:#010102;}
	.st184{fill:#030404;}
	.st185{fill:#1B1D1A;}
	.st186{fill:#000308;}
	.st187{fill:#B89274;}
	.st188{fill:#33393C;}
	.st189{fill:#010306;}
	.st190{fill:#BA9675;}
	.st191{fill:#000502;}
	.st192{fill:#2D2F2F;}
	.st193{fill:#C7966C;}
	.st194{fill:#1B2120;}
	.st195{fill:#010508;}
	.st196{fill:#02070B;}
	.st197{fill:#343D3A;}
	.st198{fill:#202421;}
	.st199{fill:#01060B;}
	.st200{fill:#343C42;}
	.st201{fill:#56524F;}
	.st202{fill:#060300;}
	.st203{fill:#20201D;}
	.st204{fill:#181D1D;}
	.st205{fill:#272C2B;}
	.st206{fill:#181C1E;}
	.st207{fill:#000206;}
	.st208{fill:#1B271F;}
	.st209{fill:#3A323E;}
	.st210{fill:#000309;}
	.st211{fill:#010407;}
	.st212{fill:#03070C;}
	.st213{fill:#171E25;}
	.st214{fill:#01060C;}
	.st215{fill:#06080C;}
	.st216{fill:#2E2822;}
	.st217{fill:#010308;}
	.st218{fill:#7F6C57;}
	.st219{fill:#020C14;}
	.st220{fill:#080B0C;}
	.st221{fill:#C1966B;}
	.st222{fill:#1B2526;}
	.st223{fill:#352715;}
	.st224{fill:#1E2819;}
	.st225{fill:#242C2D;}
	.st226{fill:#2A2E2D;}
	.st227{fill:#282624;}
	.st228{fill:#030B0F;}
	.st229{fill:#050100;}
	.st230{fill:#060909;}
	.st231{fill:#182025;}
	.st232{fill:#7A6A5A;}
	.st233{fill:#0D0C0C;}
	.st234{fill:#0B1720;}
	.st235{fill:#07BAD4;}
	.st236{fill:#FEFEFD;}
	.st237{fill:#1191A5;}
	.st238{fill:#996D40;}
	.st239{fill:#BC951E;}
	.st240{fill:#15BDD4;}
	.st241{fill:#CEF0F6;}
	.st242{fill:#0BB3C8;}
	.st243{fill:#15202B;}
	.st244{fill:#BE951C;}
	.st245{fill:#187585;}
	.st246{fill:#8F8041;}
	.st247{fill:#212108;}
	.st248{fill:#BB982C;}
	.st249{fill:#F9BE16;}
	.st250{fill:#EFB714;}
	.st251{fill:#F9BD12;}
	.st252{fill:#0BB8CE;}
	.st253{fill:#253239;}
	.st254{fill:#18B7CE;}
	.st255{fill:#BB9729;}
	.st256{fill:#928143;}
	.st257{fill:#242107;}
	.st258{fill:#233337;}
	.st259{fill:#FCC31E;}
	.st260{fill:#33ACBB;}
	.st261{fill:#13BCD5;}
	.st262{fill:#00323A;}
	.st263{fill:#233940;}
	.st264{fill:#09161B;}
	.st265{fill:#001F25;}
	.st266{fill:#DBA811;}
	.st267{fill:#2A393F;}
	.st268{fill:#F7BD13;}
	.st269{fill:#24332C;}
	.st270{fill:#AE9243;}
	.st271{fill:#BD9A2C;}
	.st272{fill:#B9982A;}
	.st273{fill:#1D343F;}
	.st274{fill:#EBC03E;}
	.st275{fill:#18303A;}
	.st276{fill:#957B46;}
	.st277{fill:#819398;}
	.st278{fill:#2D3942;}
	.st279{fill:#168C9D;}
	.st280{fill:#0D0705;}
	.st281{fill:#E5BD3E;}
	.st282{fill:#DDB62E;}
	.st283{fill:#172832;}
	.st284{fill:#2D3740;}
	.st285{fill:#344049;}
	.st286{fill:#313939;}
	.st287{fill:#1B1E22;}
	.st288{fill:#191E1A;}
	.st289{fill:#263349;}
	.st290{fill:#313C3F;}
	.st291{fill:#313C40;}
	.st292{fill:#00050A;}
	.st293{fill:#7F6E26;}
	.st294{fill:#715D12;}
	.st295{fill:#1F3650;}
	.st296{fill:#1D220E;}
	.st297{fill:#000104;}
	.st298{fill:#191C1E;}
	.st299{fill:#14201A;}
	.st300{fill:#131A18;}
	.st301{fill:#20364B;}
	.st302{fill:#2F3A40;}
	.st303{fill:#313B42;}
	.st304{fill:#2E2D0B;}
	.st305{fill:#313A42;}
	.st306{fill:#181816;}
	.st307{fill:#00313D;}
	.st308{fill:#001B27;}
	.st309{fill:#100B03;}
	.st310{fill:#26384C;}
	.st311{fill:#E5B117;}
	.st312{fill:#323B3F;}
	.st313{fill:#13171C;}
	.st314{fill:#283551;}
	.st315{fill:#36343B;}
	.st316{fill:#28353D;}
	.st317{fill:#2B344D;}
	.st318{fill:#062A32;}
	.st319{fill:#0A2E35;}
	.st320{fill:#383133;}
	.st321{fill:#1E2927;}
	.st322{fill:#010207;}
	.st323{fill:#010406;}
	.st324{fill:#181905;}
	.st325{fill:#233550;}
	.st326{fill:#0B2A33;}
	.st327{fill:#191D0C;}
	.st328{fill:#2E2722;}
	.st329{fill:#1F1B07;}
	.st330{fill:#05060A;}
	.st331{fill:#181D23;}
	.st332{fill:#2E2001;}
	.st333{fill:#001E1E;}
	.st334{fill:#062D3C;}
	.st335{fill:#072A2D;}
	.st336{fill:#EEF2F3;}
	.st337{fill:#0D1014;}
	.st338{fill:#020509;}
	.st339{fill:#030709;}
	.st340{fill:#02070E;}
	.st341{fill:#303D44;}
	.st342{fill:#01040C;}
	.st343{fill:#313E43;}
	.st344{fill:#323B41;}
	.st345{fill:#313D43;}
	.st346{fill:#020B0F;}
	.st347{fill:#00030B;}
	.st348{fill:#02090E;}
	.st349{fill:#232B33;}
	.st350{fill:#333942;}
	.st351{fill:#333C40;}
	.st352{fill:#020D14;}
	.st353{fill:#1B272E;}
	.st354{fill:#23333E;}
	.st355{fill:#050A12;}
	.st356{fill:#040D18;}
	.st357{fill:#293743;}
	.st358{fill:#243033;}
	.st359{fill:#FABE10;}
	.st360{fill:#29353F;}
	.st361{fill:#2F383E;}
	.st362{fill:#1C1F0C;}
	.st363{fill:#01040D;}
	.st364{fill:#20344D;}
	.st365{fill:#303841;}
	.st366{fill:#000407;}
	.st367{fill:#19242A;}
	.st368{fill:#071015;}
	.st369{fill:#339DA8;}
	.st370{fill:#002127;}
	.st371{fill:#243941;}
	.st372{fill:#05BCD5;}
	.st373{fill:#967417;}
	.st374{fill:#000107;}
	.st375{fill:#323D41;}
	.st376{fill:#FAC432;}
	.st377{fill:#283651;}
	.st378{fill:#121209;}
	.st379{fill:#F4BD21;}
	.st380{fill:#E4BB3F;}
	.st381{fill:#70590C;}
	.st382{fill:#7E6B28;}
	.st383{fill:#BC9010;}
	.st384{fill:#141B19;}
	.st385{fill:#342F33;}
	.st386{fill:#27364C;}
	.st387{fill:#23354C;}
	.st388{fill:#161912;}
	.st389{fill:#BD982F;}
	.st390{fill:#1D2718;}
	.st391{fill:#C78146;}
	.st392{fill:#35383E;}
	.st393{fill:#8D6A4B;}
	.st394{fill:#2D2D2A;}
	.st395{fill:#02060E;}
	.st396{fill:#15BCD4;}
	.st397{fill:#1C95A8;}
	.st398{fill:#1E96A8;}
	.st399{fill:#2C393F;}
	.st400{fill:#100808;}
	.st401{fill:#947945;}
	.st402{fill:#2B3B42;}
	.st403{fill:#D6B44C;}
	.st404{fill:#2B4C4F;}
	.st405{fill:#3B2A00;}
	.st406{fill:#34BECD;}
	.st407{fill:#01070A;}
	.st408{fill:#030C11;}
	.st409{fill:#2F2E2D;}
	.st410{fill:#121C21;}
	.st411{fill:#2D333B;}
	.st412{fill:#96AEB4;}
	.st413{fill:#72868D;}
	.st414{fill:#293238;}
	.st415{fill:#2C3439;}
	.st416{fill:#E21E27;}
	.st417{fill:#C58240;}
	.st418{fill:#333B40;}
	.st419{fill:#2F383C;}
	.st420{fill:#2A2F2B;}
	.st421{fill:#F8DCB6;}
	.st422{fill:#020102;}
	.st423{fill:#112126;}
	.st424{fill:#020200;}
	.st425{fill:#3D2F26;}
	.st426{fill:#2E3438;}
	.st427{fill:#2A231A;}
	.st428{fill:#080A0B;}
	.st429{fill:#AB9378;}
	.st430{fill:#AD9881;}
	.st431{fill:#18140E;}
	.st432{fill:#BDDBF3;}
	.st433{fill:#BDDCF4;}
	.st434{fill:#C3DDED;}
	.st435{fill:#BDDBF2;}
	.st436{fill:#BFDBF1;}
	.st437{fill:#020609;}
	.st438{fill:#161A1D;}
	.st439{fill:#171A1D;}
	.st440{fill:#1A2024;}
	.st441{fill:#D47751;}
	.st442{fill:#1E2D31;}
	.st443{fill:#2B1E19;}
	.st444{fill:#1F2621;}
	.st445{fill:#292924;}
	.st446{fill:#1C1C22;}
	.st447{fill:#C69158;}
	.st448{fill:#BEDBF1;}
	.st449{fill:#273338;}
	.st450{fill:#DA5455;}
	.st451{fill:#D08D4E;}
	.st452{fill:#2A3134;}
	.st453{fill:#35281C;}
	.st454{fill:#1F2624;}
	.st455{fill:#1F2322;}
	.st456{fill:#241C15;}
	.st457{fill:#161C1A;}
	.st458{fill:#CD854A;}
	.st459{fill:#D38A51;}
	.st460{fill:#BEDBF2;}
	.st461{fill:#FCFEFD;}
	.st462{fill:#CD955C;}
	.st463{fill:#050E12;}
	.st464{fill:#C4AB8A;}
	.st465{fill:#FCBF11;}
	.st466{fill:#FDC21D;}
	.st467{fill:#DDA913;}
	.st468{fill:#203540;}
	.st469{fill:#21374D;}
	.st470{fill:#F5BD2B;}
	.st471{fill:#15140A;}
	.st472{fill:#293853;}
	.st473{fill:#0E0D02;}
	.st474{fill:#2F4258;}
	.st475{fill:#323C42;}
	.st476{fill:#DBB533;}
	.st477{fill:#171B20;}
	.st478{fill:#27374C;}
	.st479{fill:#212219;}
	.st480{fill:#25260C;}
	.st481{fill:#233549;}
	.st482{fill:#2A1F03;}
	.st483{fill:#2C2726;}
	.st484{fill:#21282A;}
	.st485{fill:#222829;}
	.st486{fill:#FCFAF8;}
	.st487{fill:#D08D4F;}
	.st488{fill:#CD8C50;}
	.st489{fill:#CA9460;}
	.st490{fill:#1D3240;}
	.st491{fill:#DEA813;}
	.st492{fill:#BD9215;}
	.st493{fill:#B39035;}
	.st494{fill:#DDAA06;}
	.st495{fill:#08BCD4;}
	.st496{fill:#01BCD3;}
	.st497{fill:#CB8143;}
	.st498{fill:#2F2C26;}
	.st499{fill:#161F16;}
	.st500{fill:#2E373D;}
	.st501{fill:#CE884D;}
	.st502{fill:#51D0DE;}
	.st503{fill:#08BCDA;}
	.st504{fill:#16BED6;}
	.st505{fill:#17BFD7;}
	.st506{fill:#51D2E5;}
	.st507{fill:#2EC8DE;}
	.st508{fill:#0CB5CD;}
	.st509{fill:#BCDAF2;}
	.st510{fill:#BDDCF2;}
	.st511{fill:#25282D;}
	.st512{fill:#374147;}
	.st513{fill:#0291A6;}
	.st514{fill:#09B7D0;}
	.st515{fill:#0990A2;}
	.st516{fill:#10ABC1;}
	.st517{fill:#C09311;}
	.st518{fill:#BD9214;}
	.st519{fill:#BE9013;}
	.st520{fill:#BF940F;}
	.st521{fill:#39454A;}
	.st522{fill:#030912;}
	.st523{fill:#FDBF12;}
	.st524{fill:#C19B2A;}
	.st525{fill:#C09216;}
	.st526{fill:#BC9012;}
	.st527{fill:#C09314;}
	.st528{fill:#F8C329;}
	.st529{fill:#FEBE00;}
	.st530{fill:#319CA8;}
	.st531{fill:#02BEDA;}
	.st532{fill:#493D11;}
	.st533{fill:#FCFAF0;}
	.st534{fill:#9E8635;}
	.st535{fill:#BE9212;}
	.st536{fill:#BD951C;}
	.st537{fill:#FCFEFE;}
	.st538{fill:#FDFEFD;}
	.st539{fill:#FDC72B;}
	.st540{fill:#2199AD;}
	.st541{fill:#10ACBE;}
	.st542{fill:#078F9E;}
	.st543{fill:#FDBE12;}
	.st544{fill:#F8BD13;}
	.st545{fill:#FEBE06;}
	.st546{fill:#D2884D;}
	.st547{fill:#FCFDFD;}
	.st548{fill:#0D1B23;}
	.st549{fill:#263442;}
	.st550{fill:#8A3031;}
	.st551{fill:#C53033;}
	.st552{fill:#FCD3D5;}
	.st553{fill:#E0585B;}
	.st554{fill:#2F3D48;}
	.st555{fill:#EF6390;}
	.st556{fill:#B05677;}
	.st557{fill:#F3E1EA;}
	.st558{fill:#D47E9F;}
	.st559{fill:#DA88A6;}
	.st560{fill:#DD90AD;}
	.st561{fill:#744459;}
	.st562{fill:#1E2028;}
	.st563{fill:#2E1123;}
	.st564{fill:#F02838;}
	.st565{fill:#F2F2F4;}
	.st566{fill:#233846;}
	.st567{fill:#1B3845;}
	.st568{fill:#EFF0F0;}
	.st569{fill:#1F3543;}
	.st570{fill:#FDC52B;}
	.st571{fill:#976F13;}
	.st572{fill:#A3801D;}
	.st573{fill:#FAC42B;}
	.st574{fill:#DFAD22;}
	.st575{fill:#B99520;}
	.st576{fill:#17BED7;}
	.st577{fill:#16BFD6;}
	.st578{fill:#57D0DF;}
	.st579{fill:#BC9822;}
	.st580{fill:#BB9527;}
	.st581{fill:#FCFBF5;}
	.st582{fill:#B25575;}
	.st583{fill:#C1F3F5;}
	.st584{fill:#F78F6D;}
	.st585{fill:#6B71C7;}
	.st586{fill:#793348;}
	.st587{fill:#FECAAC;}
	.st588{fill:#D46C68;}
	.st589{fill:#C2F3F4;}
	.st590{fill:#63365B;}
	.st591{fill:#BD4E5B;}
	.st592{fill:#C0505B;}
	.st593{fill:#9F5A62;}
	.st594{fill:#FB7E9D;}
	.st595{fill:#07C2F7;}
	.st596{fill:#51274B;}
	.st597{fill:#14D2C3;}
	.st598{fill:#BF505C;}
	.st599{fill:#0AE1D6;}
	.st600{fill:#0BE2D6;}
	.st601{fill:#16C2F2;}
	.st602{fill:#0FC1F3;}
	.st603{fill:#17C0EE;}
	.st604{fill:#05CBC2;}
	.st605{fill:#1EBFF0;}
	.st606{fill:#51D2C8;}
	.st607{fill:#B9F4F4;}
	.st608{fill:#13CEC6;}
	.st609{fill:#DE9073;}
	.st610{fill:#1DBEEE;}
	.st611{fill:#C9E5E7;}
	.st612{fill:#32D1C4;}
	.st613{fill:#B65D64;}
	.st614{fill:#2DC2EC;}
	.st615{fill:#0ED4C5;}
	.st616{fill:#43D4CB;}
	.st617{fill:#B0706A;}
	.st618{fill:#FCF4ED;}
	.st619{fill:#B56769;}
	.st620{fill:#571626;}
	.st621{fill:#925559;}
	.st622{fill:#6063AF;}
	.st623{fill:#35D0C4;}
	.st624{fill:#7377BA;}
	.st625{fill:#696EB5;}
	.st626{fill:#5AD1C8;}
	.st627{fill:#DEF8FB;}
	.st628{fill:#ED7B97;}
	.st629{fill:#6066A0;}
	.st630{fill:#B3606A;}
	.st631{fill:#3DBEEB;}
	.st632{fill:#33C2EC;}
	.st633{fill:#BA6B68;}
	.st634{fill:#A04349;}
	.st635{fill:#854F55;}
	.st636{fill:#A0434C;}
	.st637{fill:#66E3DE;}
	.st638{fill:#6FE6DD;}
	.st639{fill:#FDCAAC;}
	.st640{fill:#5C4291;}
	.st641{fill:#6271B6;}
	.st642{fill:#6776B8;}
	.st643{fill:#482035;}
	.st644{fill:#6578B3;}
	.st645{fill:#9ABFC4;}
	.st646{fill:#8B5457;}
	.st647{fill:#FECAAB;}
	.st648{fill:#BD4F5A;}
	.st649{fill:#E86165;}
	.st650{fill:#BB505C;}
	.st651{fill:#AE4058;}
	.st652{fill:#6D6FC3;}
	.st653{fill:#502549;}
	.st654{fill:#F8A993;}
	.st655{fill:#B03F57;}
	.st656{fill:#5E4390;}
	.st657{fill:#FBBD6F;}
	.st658{fill:#6C6EC1;}
	.st659{fill:#BD5055;}
	.st660{fill:#C0515B;}
	.st661{fill:#F5B975;}
	.st662{fill:#C05257;}
	.st663{fill:#63375E;}
	.st664{fill:#7071C2;}
	.st665{fill:#602A42;}
	.st666{fill:#BA4C52;}
	.st667{fill:#FCA8A7;}
	.st668{fill:#58499A;}
	.st669{fill:#E58B76;}
	.st670{fill:#3F0315;}
	.st671{fill:#E4626B;}
	.st672{fill:#5F5098;}
	.st673{fill:#BE5151;}
	.st674{fill:#FD8B65;}
	.st675{fill:#BF5250;}
	.st676{fill:#B24545;}
	.st677{fill:#BA4D4D;}
	.st678{fill:#F0A58A;}
	.st679{fill:#F1A68D;}
	.st680{fill:#4F2549;}
	.st681{fill:#BC5354;}
	.st682{fill:#622A46;}
	.st683{fill:#985767;}
	.st684{fill:#F5937E;}
	.st685{fill:#5E2843;}
	.st686{fill:#4F1A2C;}
	.st687{fill:#C95F50;}
	.st688{fill:#B2514E;}
	.st689{fill:#F4957D;}
	.st690{fill:#3D0F2D;}
	.st691{fill:#56366B;}
	.st692{fill:#EFAC8C;}
	.st693{fill:#B54A48;}
	.st694{fill:#671611;}
	.st695{fill:#F7D0C1;}
	.st696{fill:#AB646D;}
	.st697{fill:#AED3DB;}
	.st698{fill:#8DADB7;}
	.st699{fill:#DAF6FC;}
	.st700{fill:#7D99A6;}
	.st701{fill:#708D9C;}
	.st702{fill:#432843;}
	.st703{fill:#A2C6CD;}
	.st704{fill:#CDFCFE;}
	.st705{fill:#9DC3CB;}
	.st706{fill:#CEF6FD;}
	.st707{fill:#D04C5E;}
	.st708{fill:#7FA0AC;}
	.st709{fill:#ABD7DC;}
	.st710{fill:#94BDC4;}
	.st711{fill:#A9D7DA;}
	.st712{fill:#657E8F;}
	.st713{fill:#99C0C5;}
	.st714{fill:#546D7E;}
	.st715{fill:#94BCC4;}
	.st716{fill:#A7D0D3;}
	.st717{fill:#290D29;}
	.st718{fill:#A0404D;}
	.st719{fill:#584493;}
	.st720{fill:#5A4799;}
	.st721{fill:#584598;}
	.st722{fill:#5A50A0;}
	.st723{fill:#523D8F;}
	.st724{fill:#554E9F;}
	.st725{fill:#7165A0;}
	.st726{fill:#4F418F;}
	.st727{fill:#7073D6;}
	.st728{fill:#6C6AA2;}
	.st729{fill:#6F73D8;}
	.st730{fill:#6161B0;}
	.st731{fill:#726B95;}
	.st732{fill:#5E58AB;}
	.st733{fill:#F8A891;}
	.st734{fill:#9E5964;}
	.st735{fill:#965262;}
	.st736{fill:#9A5462;}
	.st737{fill:#924C5E;}
	.st738{fill:#652332;}
	.st739{fill:#702432;}
	.st740{fill:#904B5D;}
	.st741{fill:#AD585F;}
	.st742{fill:#89364C;}
	.st743{fill:#8D4759;}
	.st744{fill:#934F60;}
	.st745{fill:#884155;}
	.st746{fill:#864154;}
	.st747{fill:#8F4A5A;}
	.st748{fill:#5D428F;}
	.st749{fill:#FAAB93;}
	.st750{fill:#583873;}
	.st751{fill:#0C0000;}
	.st752{fill:#4E2D63;}
	.st753{fill:#9E5F93;}
	.st754{fill:#FB7F9C;}
	.st755{fill:#4A1937;}
	.st756{fill:#0ED1CC;}
	.st757{fill:#30C1EF;}
	.st758{fill:#7ED7F1;}
	.st759{fill:#AEF5FE;}
	.st760{fill:#97E7F9;}
	.st761{fill:#94E9F9;}
	.st762{fill:#31C0EE;}
	.st763{fill:#3FC0EC;}
	.st764{fill:#70D5F5;}
	.st765{fill:#90DFF9;}
	.st766{fill:#95E7F8;}
	.st767{fill:#4FB9E0;}
	.st768{fill:#7FE5FE;}
	.st769{fill:#47D6CA;}
	.st770{fill:#13D1CA;}
	.st771{fill:#53274C;}
	.st772{fill:#FBADAC;}
	.st773{fill:#C6E9EC;}
	.st774{fill:#F7AC93;}
	.st775{fill:#522A4C;}
	.st776{fill:#330924;}
	.st777{fill:#180000;}
	.st778{fill:#4A296B;}
	.st779{fill:#DAA68B;}
	.st780{fill:#FDFCFC;}
	.st781{fill:#73303E;}
	.st782{fill:#F5A98F;}
	.st783{fill:#6B1E36;}
	.st784{fill:#5C2F49;}
	.st785{fill:#612033;}
	.st786{fill:#F5B092;}
	.st787{fill:#863858;}
	.st788{fill:#331126;}
	.st789{fill:#793043;}
	.st790{fill:#F5BB9F;}
	.st791{fill:#AC5553;}
	.st792{fill:#F0B396;}
	.st793{fill:#EE8A73;}
	.st794{fill:#C74554;}
	.st795{fill:#6B70C7;}
	.st796{fill:#5C56A8;}
	.st797{fill:#5E5CB0;}
	.st798{fill:#5D44A0;}
	.st799{fill:#EFAA65;}
	.st800{fill:#F3A15C;}
	.st801{fill:#6270D6;}
	.st802{fill:#C05160;}
	.st803{fill:#F2A857;}
	.st804{fill:#12C6F5;}
	.st805{fill:#F5A664;}
	.st806{fill:#E39C5D;}
	.st807{fill:#F9BE7D;}
	.st808{fill:#CB7F51;}
	.st809{fill:#A66340;}
	.st810{fill:#FACEA9;}
	.st811{fill:#4180B0;}
	.st812{fill:#E39D5F;}
	.st813{fill:#065A93;}
	.st814{fill:#DC8557;}
	.st815{fill:#EAEFF3;}
	.st816{fill:#039EDD;}
	.st817{fill:#BED2DE;}
	.st818{fill:#147BB4;}
	.st819{fill:#5DBFC6;}
	.st820{fill:#C9E5F3;}
	.st821{fill:#B7D6E8;}
	.st822{fill:#DC885A;}
	.st823{fill:#F7E8BF;}
	.st824{fill:#06A0AF;}
	.st825{fill:#D4E4ED;}
	.st826{fill:#C6D5DD;}
	.st827{fill:#B7D5E8;}
	.st828{fill:#819EC2;}
	.st829{fill:#ADC0DA;}
	.st830{fill:#7D9FC4;}
	.st831{fill:#B0C7D1;}
	.st832{fill:#DFB38D;}
	.st833{fill:#F5EEEA;}
	.st834{fill:#DC8658;}
	.st835{fill:#B6CCD7;}
	.st836{fill:#E39D5D;}
	.st837{fill:#B26E46;}
	.st838{fill:#EA9B59;}
	.st839{fill:#DE914F;}
	.st840{fill:#E18F4D;}
	.st841{fill:#DE8D4B;}
	.st842{fill:#B77448;}
	.st843{fill:#C47E4F;}
	.st844{fill:#D6935F;}
	.st845{fill:#F8EBC3;}
	.st846{fill:#F2E5BE;}
	.st847{fill:#F7D5AE;}
	.st848{fill:#BB6B46;}
	.st849{fill:#B56442;}
	.st850{fill:#5B362D;}
	.st851{fill:#613B30;}
	.st852{fill:#73473A;}
	.st853{fill:#E8B893;}
	.st854{fill:#513026;}
	.st855{fill:#F2C39F;}
	.st856{fill:#F1C39F;}
	.st857{fill:#E0AE8A;}
	.st858{fill:#DC8457;}
	.st859{fill:#488DC5;}
	.st860{fill:#DD8C49;}
	.st861{fill:#DC8D49;}
	.st862{fill:#0080C6;}
	.st863{fill:#0070AE;}
	.st864{fill:#1B70A2;}
	.st865{fill:#3C6497;}
	.st866{fill:#E8F0F7;}
	.st867{fill:#F2F5F8;}
	.st868{fill:#F4F9FA;}
	.st869{fill:#CFE1EC;}
	.st870{fill:#1192CE;}
	.st871{fill:#B9D0DD;}
	.st872{fill:#A9BDD4;}
	.st873{fill:#819ABA;}
	.st874{fill:#A2BECB;}
	.st875{fill:#AAC0CC;}
	.st876{fill:#B2C8D4;}
	.st877{fill:#B5CCD9;}
	.st878{fill:#CDDCE5;}
	.st879{fill:#049CD9;}
	.st880{fill:#8DBAD1;}
	.st881{fill:#BCD3E0;}
	.st882{fill:#37BBD7;}
	.st883{fill:#44BCD7;}
	.st884{fill:#91D3E8;}
	.st885{fill:#E5F3FC;}
	.st886{fill:#D7E6F0;}
	.st887{fill:#04B0C1;}
	.st888{fill:#225C8B;}
	.st889{fill:#9FBAC6;}
	.st890{fill:#A1BBC8;}
	.st891{fill:#AEC3CF;}
	.st892{fill:#E7AD75;}
	.st893{fill:#CF875B;}
	.st894{fill:#DABCA4;}
	.st895{fill:#F4EBE3;}
	.st896{fill:#554233;}
	.st897{fill:#E4DED9;}
	.st898{fill:#513F2F;}
	.st899{fill:#70503B;}
	.st900{fill:#0F88C2;}
	.st901{fill:#73A6CA;}
	.st902{fill:#1F73A4;}
	.st903{fill:#1F73A5;}
	.st904{fill:#2173A5;}
	.st905{fill:#3E88BD;}
	.st906{fill:#824725;}
	.st907{fill:#438BC1;}
	.st908{fill:#EAEEF2;}
	.st909{fill:#019DDD;}
	.st910{fill:#044C86;}
	.st911{fill:#2F4E74;}
	.st912{fill:#B0CDE0;}
	.st913{fill:#FAFCFD;}
	.st914{fill:#D6E5EE;}
	.st915{fill:#E8EFF7;}
	.st916{fill:#F4BB8A;}
	.st917{fill:#9B6141;}
	.st918{fill:#844016;}
	.st919{fill:#B65C16;}
	.st920{fill:#8DB5CA;}
	.st921{fill:#8D4316;}
	.st922{fill:#A9C2CF;}
	.st923{fill:#F0F4F7;}
	.st924{fill:#7796BE;}
	.st925{fill:#BCCDD7;}
	.st926{fill:#B8CEDA;}
	.st927{fill:#326393;}
	.st928{fill:#E7EDEF;}
	.st929{fill:#C7D6E0;}
	.st930{fill:#8CA5C2;}
	.st931{fill:#AFC3CF;}
	.st932{fill:#D8D6D2;}
	.st933{fill:#A35021;}
	.st934{fill:#7C3810;}
	.st935{fill:#A26242;}
	.st936{fill:#A36343;}
	.st937{fill:#EFA363;}
	.st938{fill:#EEA365;}
	.st939{fill:#D78555;}
	.st940{fill:#EFA466;}
	.st941{fill:#B35A12;}
	.st942{fill:#EA9E63;}
	.st943{fill:#F2D09E;}
	.st944{fill:#3E6598;}
	.st945{fill:#DBE4E9;}
	.st946{fill:#EEBF99;}
	.st947{fill:#EBBE99;}
	.st948{fill:#9D4B1E;}
	.st949{fill:#B15F1B;}
	.st950{fill:#7E3B11;}
	.st951{fill:#B85D12;}
	.st952{fill:#B95D12;}
	.st953{fill:#DD8C58;}
	.st954{fill:#A84E18;}
	.st955{fill:#9D491A;}
	.st956{fill:#F2DBB0;}
	.st957{fill:#AC6C47;}
	.st958{fill:#B95D13;}
	.st959{fill:#765243;}
	.st960{fill:#E0B18E;}
	.st961{fill:#8F4116;}
	.st962{fill:#E07E42;}
	.st963{fill:#FFE0AD;}
	.st964{fill:#F2D19E;}
	.st965{fill:#F08547;}
	.st966{fill:none;stroke:#E1BE91;stroke-width:5.8357;stroke-linecap:round;stroke-linejoin:round;stroke-miterlimit:10;}
	.st967{fill:#F0EBF0;}
	.st968{fill:#6BA9BA;}
	.st969{fill:#F4D3A1;}
	.st970{fill:#F0E8EB;}
	.st971{fill:none;stroke:#524643;stroke-linecap:round;stroke-linejoin:round;stroke-miterlimit:10;}
	.st972{fill:none;stroke:#524643;stroke-width:0.5;stroke-linecap:round;stroke-linejoin:round;stroke-miterlimit:10;}
	.st973{fill:#524643;}
	.st974{opacity:0.3;fill:#C7C7C7;}
	.st975{fill:#83462B;}
	.st976{fill:#F4A061;}
	.st977{fill:none;stroke:#E08B58;stroke-width:4.459;stroke-linecap:round;stroke-linejoin:round;stroke-miterlimit:10;}
	.st978{fill:#FBC883;}
	.st979{fill:#E98C54;}
	.st980{fill:#F2F0E7;}
	.st981{fill:#E2955B;}
	.st982{fill:none;stroke:#AE6D36;stroke-width:0.5;stroke-linecap:round;stroke-linejoin:round;stroke-miterlimit:10;}
	.st983{fill:#F0866F;}
	.st984{fill:none;stroke:#E08B58;stroke-width:5.1258;stroke-linecap:round;stroke-linejoin:round;stroke-miterlimit:10;}
</style>
<g>
	<path class="st0" d="M48.01,163.01h8.68v2.44h-5.98v3.3h4.9v2.44h-4.9v5.02h-2.7V163.01z"/>
	<path class="st0" d="M65.19,174.49h-5.4l-0.74,1.72h-2.9l5.9-13.44h0.9l5.88,13.44h-2.9L65.19,174.49z M62.49,167.81l-1.76,4.46
		h3.52L62.49,167.81z"/>
	<path class="st0" d="M78.73,176.21l-3.42-4.66h-1.98v4.66h-2.7v-13.2h4.96c2.76,0,4.76,1.72,4.76,4.26c0,1.68-0.88,3.04-2.32,3.76
		l3.74,5.18H78.73z M73.33,169.17h2.26c1.26,0,2-0.76,2-1.9c0-1.12-0.78-1.88-2-1.88h-2.26V169.17z"/>
	<path class="st0" d="M96.35,162.77v13.44h-2.7v-7.04l-3.32,4.16h-0.88l-3.32-4.16v7.04h-2.7v-13.44h0.88l5.58,7.14l5.58-7.14H96.35
		z"/>
	<path class="st0" d="M107.17,174.49h-5.4l-0.74,1.72h-2.9l5.9-13.44h0.9l5.88,13.44h-2.9L107.17,174.49z M104.47,167.81l-1.76,4.46
		h3.52L104.47,167.81z M104.89,158.01h3.24v0.48l-2.74,3.24h-1.96L104.89,158.01z"/>
	<path class="st0" d="M118.59,162.77c2.5,0,4.64,1.22,5.82,3.28l-2.04,1.44c-0.94-1.48-2.2-2.22-3.78-2.22
		c-2.46,0-4.26,1.84-4.26,4.36s1.8,4.32,4.26,4.32c1.58,0,2.84-0.74,3.78-2.22l2.04,1.44c-1.14,2.06-3.3,3.28-5.84,3.28
		c-3.86,0.08-7.1-3.06-7.02-6.84C111.49,165.83,114.75,162.69,118.59,162.77z"/>
	<path class="st0" d="M126.71,163.01h2.7v13.2h-2.7V163.01z"/>
	<path class="st0" d="M140.21,174.49h-5.4l-0.74,1.72h-2.9l5.9-13.44h0.9l5.88,13.44h-2.9L140.21,174.49z M137.51,167.81l-1.76,4.46
		h3.52L137.51,167.81z"/>
</g>
<g>
	<path class="st805" d="M79.84,130.88c-0.91-0.02-1.83,0.02-2.73-0.08c-1.49-0.16-2.59,0.08-2.85,1.86
		c-0.12,0.82-0.8,1.13-1.64,1.11c-2.49-0.05-4.99-0.05-7.48-0.08c-0.08-0.16-0.05-0.3,0.09-0.41c0.14-0.08,0.29-0.14,0.45-0.17
		c0.32-0.06,0.64-0.06,0.96-0.07c0.32-0.01,0.64-0.01,0.95-0.01c0.16-0.01,0.31-0.01,0.47,0c0.23,0,0.46,0,0.68,0.01
		c0.14-0.01,0.29-0.01,0.43-0.03c0.78-0.72-0.13-0.65-0.41-0.87c-0.54-0.23-1-0.52-0.79-1.23c0.42-0.73,1.14-1.11,1.84-1.47
		c1.19-0.6,1.49-1.51,1.17-2.74c-0.73-2.81-0.68-5.71-0.81-8.57c-0.21-4.7-0.41-9.4-0.77-14.1c-0.15-1.94-0.63-3.73-1.79-5.32
		c-1.47-2.02-2.04-4.42-2.79-6.74c-0.02-1.74,0.57-3.37,0.81-5.07c0.72-5.03-0.09-10.02-0.22-15.02c-0.09-3.42-0.55-6.83-0.32-10.25
		c0.33-0.87,1.12-0.86,1.85-0.87c2.51-0.03,5.03-0.1,7.54,0.02c2.48,0.11,4.24,1.55,5.5,3.55c2.79,4.42,6.19,8.37,9.49,12.4
		c2.02,2.48,4.3,4.72,6.68,6.83c2.9,2.57,5.63,5.28,8.11,8.25c0.76,0.91,1.26,1.96,1.74,3.02c0.44,0.97,1.04,1.8,1.89,2.44
		c0.1,0.82-0.59,0.84-1.06,0.98c-0.93,0.27-1.62,0.82-2.21,1.55c-0.52,0.51-1.21,0.52-1.87,0.68c-5.8,1.34-10.21,4.46-12.33,10.18
		c-1.39,3.75-0.95,7.6-0.12,11.42c0.19,0.88,0.76,1.97-0.67,2.45c-2.5-1.1-4.59-2.75-6.27-4.9c-2.59-3-3.45-6.49-3.35-10.41
		c0.16-6.93-0.64-13.84-0.69-20.77c0-0.55,0-1.1,0.02-1.65c-0.56,9.05-1.84,18.04-2.22,27.11c-0.65,1.52-0.31,3.15-0.56,4.72
		c-0.31,2-0.32,4.03-0.6,6.03c-0.17,1.2,0.35,1.66,1.54,1.64c2.76-0.05,5.52,0.01,8.28-0.03c0.84,0.4,1.11,0.84,0.04,1.28
		c-0.57,0.23-1.2,0.17-1.81,0.18c-2.25,0.02-4.51-0.01-6.76,0.02c-0.86,0.01-1.64,0.2-1.63,1.28c0.01,1.13,0.93,0.9,1.61,0.96
		c0.84,0.07,1.72-0.1,2.5,0.37C79.93,130.5,79.96,130.68,79.84,130.88z"/>
	<path class="st806" d="M107.92,97.35c-0.96,0.1-1.44-0.46-1.78-1.26c-2.15-4.99-6.16-8.41-10.07-11.93
		c-3.64-3.27-6.82-6.99-9.96-10.74c-2.6-3.1-4.74-6.5-7.17-9.7c-1.25-1.66-2.87-2.56-5-2.53c-2.82,0.04-5.64,0.01-8.45,0.01
		c-0.84-1.04-1.31-2.05,0.17-2.95c1.83-0.27,3.67-0.08,5.5-0.13c3.4-0.09,5.82-1.77,7.04-4.93c0.25-0.64,0.27-1.51,1.26-1.55
		c1.22,3.01,2.49,6,3.63,9.04c0.54,1.44,1.44,2.47,2.62,3.43c11.23,9.21,21.1,19.61,28.07,32.5c-0.01,0.12-0.01,0.32-0.07,0.34
		C111.81,97.59,109.92,98.25,107.92,97.35z"/>
	<path class="st807" d="M65.85,58.61c-1.68,0.65,0.02,1.76-0.36,2.59c0.4,6.27,0.55,12.56,1.05,18.83c0.33,4.1-0.33,8.16-1.42,12.13
		c-0.13,2.02-1.09,3.45-3,4.2c-0.67-0.13-0.86-0.69-1.1-1.2c-1.91-4.08-3.86-8.14-4.84-12.58c-0.2-1.24-0.49-2.47-0.76-3.7
		c-0.17-1.01-0.3-2.02-0.25-3.05c0.04-0.95-0.1-1.92,0.13-2.86c0.21-0.85-0.14-1.74,0.22-2.57c0.55-5.23,1.08-10.46,1.64-15.68
		c0.16-1.52,0.39-3.03,0.58-4.55c0.24-0.2,0.4-0.03,0.56,0.13c0.18,0.42,0.76,0.49,0.88,0.98c0.18,3.68,2.2,5.74,5.69,6.54
		C65.29,57.92,65.9,57.88,65.85,58.61z"/>
	<path class="st805" d="M71.75,19.51c3.3,0.11,6.3,1.22,9.19,2.72c1.51,1.72,2.27,3.81,2.34,6.03c0.14,3.96,0.03,7.93,0.42,11.89
		c0.07,1.46-0.43,2.67-1.45,3.76c-0.95,1.01-1.8,2.12-2.57,3.28c-0.37,0.55-0.75,1.12-1.48,1.25c-0.85-0.18-1.06-0.95-1.39-1.58
		c-0.73-1.37-1.63-2.57-3.06-3.29c-0.66-0.43-1.41-0.64-2.11-1c-0.46-0.34-0.72-0.82-0.99-1.31c-0.59-1.21-0.89-2.51-1.2-3.81
		c-0.53-2.59-0.65-5.23-1-7.84c-0.07-0.21-0.1-0.43-0.13-0.65c-0.09-2.13-0.03-4.25-0.05-6.38C68.25,19.17,68.35,19.09,71.75,19.51z
		"/>
	<path class="st808" d="M55.51,75.96c0.12,0.98,0.24,1.97,0.36,2.95c-0.2,1.74,0.31,3.37,0.68,5.03c0.9,4.23,3.04,7.95,4.83,11.82
		c2.37,3.63,3.55,7.71,3.74,11.95c0.34,7.26,1.07,14.53,0.16,21.8c-0.2,1.6-0.77,2.94-2.09,3.92c-0.35,0.2-0.73,0.2-1.12,0.2
		c-0.81-0.07-0.48-1.21-1.24-1.31c-0.76,0.5-1.72,0.59-2.4,1.25c-0.34,0.06-0.68,0.14-0.98-0.12c-0.2-2.11,0.86-3.56,2.6-4.44
		c1.09-0.56,1.23-1.16,1.07-2.28c-1.17-8.68-2.13-17.39-3.43-26.05c-0.57-3.8-1.79-7.49-2.26-11.34c-0.46-3.72-0.73-7.44-0.63-11.18
		c0.37-0.69,0.03-1.45,0.23-2.16C55.18,75.84,55.34,75.82,55.51,75.96z"/>
	<path class="st809" d="M54.05,43.86c-0.93,0.45-0.72,1.48-1.09,2.22c-0.39,0.78-0.72,1.55-1.49,2.04
		c-1.55,0.97-3.17,0.19-3.25-1.65c-0.12-2.92-1.29-5.29-3.36-7.32c-2.61-2.57-2.43-5.73,0.35-8.09c1.66-1.41,2.85-3.18,3.98-5.02
		c1.62-2.63,3.76-4.36,7.11-3.83c0.91,0.53,0.56,1.28,0.24,1.92c-1.15,2.37-1.49,4.81-1.31,7.46c0.24,3.6-0.27,7.19-0.82,10.76
		C53.96,42.77,54.45,43.42,54.05,43.86z"/>
	<path class="st809" d="M83.2,40.54c-0.53-4.01-0.35-8.04-0.38-12.06c-0.01-1.57-0.64-2.97-1.25-4.36c-0.27-0.61-0.7-1.16-0.63-1.88
		c2.94-0.57,5.21,0.58,6.8,2.95c1.64,2.45,3.28,4.83,5.57,6.77c1.85,1.57,1.58,5.03-0.43,6.96c-2.19,2.1-3.43,4.54-3.57,7.59
		c-0.08,1.75-1.05,2.23-3.16,1.79c-1.07-0.54-1.49-1.55-1.84-2.6l0.01,0.02c-0.34-0.68-0.6-1.39-0.87-2.09
		C83.07,42.62,83.65,41.54,83.2,40.54z"/>
	<path class="st810" d="M73.94,43.19c2.3,0.96,3.04,3.17,4.1,5.12c0.87,0.64,0.73,1.83,1.42,2.57c0,0.26,0,0.52,0,0.77
		c-1.03,1.36-1.03,3.21-2.37,4.47c-1.7,1.61-3.56,2.56-5.91,2.53c-1.78-0.02-3.56-0.02-5.34-0.03c-1.9-0.57-3.88-0.93-5.32-2.52
		c-1.37-1.51-1.92-3.22-1.7-5.21c-0.34-0.32-0.36-0.73-0.31-1.15c0.03-0.16,0.07-0.32,0.12-0.47c0.22-0.59,0.42-1.19,0.56-1.8
		c0.08-0.32,0.22-0.6,0.44-0.85c0.33-0.36,0.6-0.77,0.91-1.14c0.77-0.6,1.19-1.71,2.41-1.65c0.68,0.86,1.33,1.74,1.97,2.63
		c0.13,0.89-0.16,1.84,0.43,2.65c0.21,0.35,0.49,0.64,0.77,0.91c0.52,0.55,1.17,0.96,1.69,1.51c1.37,1.6,1.42,2.13-0.06,3.49
		c-0.98,0.9-1.65,2.68-3.56,1.59c-0.54-0.21-1.12-0.34-1.64-0.7c-0.19-0.09-0.13,0.3-0.07,0.06c0.48,0.19,0.95,0.41,1.44,0.58
		c1.22,0.72,2.11,0.32,3.04-0.66c1.87-1.97,1.92-1.92,3.97-0.15c0.77,0.67,1.66,1.01,2.7,0.86c0.3,0.05,0.52-0.27,0.78-0.24
		c-0.27-0.15-0.44,0.25-0.72,0.22c-2.3,0.33-3.25-1.65-4.73-2.73c-0.2-0.43-0.15-0.89-0.13-1.35c0.26-1,1.23-1.22,1.93-1.74
		c0.52-0.4,1.06-0.77,1.4-1.35c0.14-0.21,0.27-0.41,0.4-0.63c0.47-0.93,0.02-1.77-0.24-2.62c-0.03-0.17-0.02-0.34,0.02-0.5
		C72.94,44.89,73.18,43.87,73.94,43.19z"/>
	<path class="st805" d="M62.87,43.83c-0.72,0.63-1.44,1.27-2.15,1.9c-0.57,0.2-1.14,0.48-1.77,0.26c-2.64-1.26-3.88-3.43-4.14-6.26
		c0.03-0.68-0.09-1.37,0.13-2.04c0.21-0.37,0.52-0.58,0.95-0.57c1.38,0.73,2.53,1.86,4.11,2.29c2.8,0.75,5.06-0.69,5.32-3.59
		c0.13-1.44,0.25-2.92-0.48-4.29c-0.16-0.31-0.33-0.67-0.04-1.02c1.22,0.13,1.78-0.2,1.71-1.64c-0.1-2.1,0.27-4.2-0.35-6.31
		c-0.46-1.54-0.72-1.93-2.33-1.74c-0.9,0.1-1.69,0.79-2.66,0.5c-0.38-0.12-0.7-0.32-0.88-0.7c1.76-0.81,3.66-0.94,5.55-1.11
		c2.12-0.24,2.38-0.04,2.38,2.02c-0.01,5.49-0.36,10.97-1.14,16.41c-0.33,1.47-0.6,2.95-1.22,4.33c-0.14,0.25-0.33,0.46-0.55,0.64
		C64.54,43.33,63.82,43.9,62.87,43.83z"/>
	<path class="st811" d="M146.59,123.49c0.7,1.38,0.27,2.86,0.32,4.3c0.08,2.13,0.02,4.26,0.01,6.39c-0.63,1.26-1.83,1.42-3.03,1.58
		c-0.77,0.1-1.56-0.02-2.31,0.21c-0.92,0.08-1.75,0.39-2.52,0.9c-0.89-0.61-0.98-1.43-0.64-2.38c0.3-0.4,0.73-0.63,1.16-0.85
		c1.45-0.74,2.06-1.94,2.06-3.55c0-1.39-0.04-2.79,0.01-4.18c0.03-0.85,0.05-1.72,0.88-2.27
		C143.87,123.23,145.2,122.67,146.59,123.49z"/>
	<path class="st812" d="M79.84,130.88c0.01-0.12,0.01-0.23,0.01-0.35c1.38-1.69,2.26-1.94,4.29-1.18c0.81,0.95,1.84,1.29,3.08,1.35
		c4.89,0.23,9.77,0.46,14.66,0.37c1.02-0.02,2.12-0.12,2.86,0.85c0.18,0.87,0.75,1.93-0.92,1.89c-7.31-0.01-14.61-0.02-21.92-0.03
		C78.72,133.79,78.72,133.78,79.84,130.88z"/>
	<path class="st813" d="M138.5,134.55c0.22,0.75,0.12,1.59,0.63,2.25c1.24,0.97,1.11,2.92,2.65,3.68c0.08,0.37,0.77,0.57,0.33,1.1
		c-0.39,0.26-0.83,0.17-1.25,0.17c-7.04,0.01-14.09,0.01-21.13-0.01c-0.51,0-1.22,0.31-1.48-0.31c-0.25-0.57,0.28-1,0.69-1.37
		c0.18-0.14,0.38-0.24,0.59-0.31c4.83-0.37,9.67-0.03,14.5-0.18c0.18-0.01,0.37,0,0.55,0c2.34-0.02,2.42-0.13,1.66-2.43
		c-0.54-1.63-1.08-3.26-1.66-4.87c-0.29-0.8-0.64-1.61-0.28-2.49c0.61-0.57,1.35-0.52,2.09-0.4c1.96,1.08,1.78,3.1,2.15,4.88
		C138.53,134.35,138.52,134.45,138.5,134.55z"/>
	<path class="st814" d="M60.29,20.62c0.3,0.05,0.6,0.1,0.76,0.4c-0.11,0.68-0.69,0.99-1.11,1.42c-3.02,3.02-4.15,6.71-3.95,10.9
		c0.03,0.59,0.24,1.06,0.54,1.53c0.22,0.9,0.4,1.8-0.63,2.36c-0.25,0.13-0.49,0.25-0.74,0.38c-0.31,0.74-0.31,1.47,0,2.21
		c0.49,2.56,1.57,4.71,4.05,5.9c0.33,0.31,1.27,0.21,0.74,1.1c-0.12,0.25-0.25,0.5-0.37,0.74c-0.55,0.5-0.48,1.24-0.72,1.86
		l0.01-0.01c-0.52,0.18,0.2,1.22-0.76,1.1c-0.13-0.11-0.25-0.23-0.38-0.34c-0.13-0.36-0.25-0.72-0.38-1.08
		c-0.3-0.79-0.5-1.63-1.14-2.24l0.02,0.03c-0.29-0.67-0.56-1.36-1.12-1.87l0.02,0.02c-0.5-0.69-0.73-1.52-1.11-2.27
		c0.19-3.59,0.99-7.16,0.71-10.75c-0.24-3.08,0.07-5.93,1.65-8.6c0.26-0.45,0.14-0.81-0.07-1.2C57.79,22.08,58.83,20.81,60.29,20.62
		z"/>
	<path class="st815" d="M103.82,133.83c1.13-0.27,0.72-1.14,0.71-1.85c-0.39-0.64-0.56-1.34-0.56-2.08
		c-0.01-2.86-0.03-5.72,0.01-8.57c0.01-0.73,0.04-1.47,0.65-2.02c0.97-0.55,2.03-0.42,3.06-0.38c2.04,0.08,2.58,0.72,2.55,2.91
		c-0.43,0.57-0.74,0.11-1.08-0.12c-0.34-0.31-0.41-1.08-0.98-0.93c-0.66,0.17-0.5,0.9-0.5,1.42c0.01,4.23-0.1,8.47,0.09,12.7
		c-0.04,0.18-0.13,0.34-0.26,0.47c-0.29,0.12-0.6,0.14-0.86,0c-1.17-0.64-1.67,0.03-2.04,1
		C103.76,135.71,104.51,134.55,103.82,133.83z"/>
	<path class="st816" d="M110.11,140.08c0.11-0.37,0.23-0.74,0.34-1.11c0.01-0.89,0.09-1.76,0.37-2.61c0.38-1.02,0.8-2.03,1.16-3.06
		c0.51-1.35,0.56-2.92,1.88-3.87c2.12-0.76,2.54-0.57,2.97,1.32c-0.5,3.1-1.85,5.93-2.82,8.89c-0.12,0.35-0.41,0.6-0.76,0.77
		C112.17,140.65,111.09,140.89,110.11,140.08z"/>
	<path class="st817" d="M107.92,97.35c1.96-0.13,3.93-0.22,5.85-0.73c1.79,0.67,3.65,0.15,5.47,0.32c1.87,0.17,3.79-0.36,5.62,0.37
		c-0.87,0.78-1.91,0.59-2.89,0.38c-0.59-0.13-1.17-0.17-1.77-0.18c-0.65,0-1.31,0-1.96,0c-1.15,0-2.31,0-3.47,0.01
		c1.1,0.01,2.19,0.01,3.29,0.01c0.61,0,1.22,0,1.83,0c0.5,0.01,0.99-0.02,1.49,0.03c0.18,0.11,0.26,0.27,0.22,0.48
		c-0.7,0.75-1.98,0.55-2.54,1.54c-1.44,0.74-2.74,0.78-3.72-0.75c-0.29-0.23-0.64-0.23-0.98-0.25c-1.19,0.2-2.58-0.57-3.55,0.73
		c-0.67,0.88-1.59,0.67-2.31,0.51c0.19-0.04,0.35,0.22,0.52,0.47c0.05,0.18,0.02,0.34-0.08,0.49c-1.19,0.35-2.28-0.19-3.41-0.4
		c-0.35-0.1-0.68-0.25-0.9-0.56c-0.03-0.08-0.06-0.17-0.09-0.25C104.89,97.59,106.83,98.12,107.92,97.35z"/>
	<path class="st818" d="M110.11,140.08c1.11-0.01,2.23-0.01,3.34-0.02c0.56-0.35,1.17-0.51,1.84-0.48c1.27,0.13,2.58-0.24,3.81,0.32
		c0.07,0.08,0.14,0.16,0.22,0.24c-0.29,0.38-0.59,0.76-1.11,1.44c8.16,0,16.03,0,23.9,0c-0.58,0.52-1.29,0.25-1.93,0.25
		c-9.98,0.01-19.96,0-29.94-0.03c-0.68,0-1.81,0.41-1.95-0.38C108.11,140.36,109.25,140.21,110.11,140.08z"/>
	<path class="st819" d="M141.79,109.1c0.99,0.47,2.61-0.26,2.92,1.52c-1.2,0.85-2.59,0.83-3.97,0.89c-2.4-0.11-4.8-0.01-7.2,0.15
		c-1.84-0.58-1.47,1.16-2.02,1.93c-0.16,0.08-0.33,0.08-0.49,0.02c-0.4-1.25-0.57-2.64-1.97-3.3c0.51-1.6,1.81-1.5,3.09-1.43
		C135.37,109.15,138.59,108.71,141.79,109.1z"/>
	<path class="st820" d="M143.94,113.46c-0.23,1.97,0.65,3.62,1.53,5.27c0.36,0.68,0.83,1.34,0.74,2.19c-1.2,0.72-2.55,0.81-3.9,0.9
		c-0.4-0.13-0.6-0.46-0.82-0.78c-0.78-1.61-2.25-2.97-1.92-5.01c0.45-0.36,1.01-0.42,1.55-0.48c1.22-0.14,2.03-0.7,2.33-1.92
		C143.6,113.49,143.76,113.43,143.94,113.46z"/>
	<path class="st821" d="M141.36,135.63c1.21-0.6,2.58-0.19,3.84-0.61c0.64-0.21,1.22-0.41,1.72-0.85c-0.38,1.06-0.62,2.12-0.77,3.26
		c-0.23,1.7-1.98,1.57-3.24,1.94c-1.05,0.4-1.11-0.43-1.19-1.05C141.59,137.43,141.49,136.53,141.36,135.63z"/>
	<path class="st822" d="M79.46,50.87c-1.57-0.25-0.82-1.78-1.42-2.57c1.65-1.99,3.34-3.96,4.91-6.01c0.31-0.41,0.18-1.16,0.25-1.76
		c0.57,0.91,0.32,2.01,0.68,2.96c-0.23,0.25-0.44,0.53-0.73,0.71l0.01,0c-0.43,0.58-0.6,1.33-1.14,1.85
		C80.94,47.55,80.15,49.19,79.46,50.87z"/>
	<path class="st823" d="M66.6,38.35c0.6-5.59,1.09-11.18,1.12-16.82c0.01-1.46-0.31-2.21-1.87-2.02c1.97-0.52,3.94-0.57,5.91,0.01
		c-2.97,0.11-2.97,0.11-2.96,3.05c0.01,2.31,0.02,4.62,0.03,6.93c-0.87,0.01-0.55-0.67-0.55-1.06c-0.03-1.9-0.02-3.81-0.02-5.71
		c-0.05,4.44,0.19,8.88-0.38,13.31C67.74,36.96,67.91,38.06,66.6,38.35z"/>
	<path class="st824" d="M143.94,113.46c-0.11,0-0.21,0.03-0.31,0.08c-0.53,0.48-1.18,0.54-1.85,0.54c-0.75-0.07-1.55,0.08-2.23-0.39
		c-0.54-0.66-0.51-1.39-0.24-2.14c0.29-0.59,0.97-0.22,1.37-0.55c1.34-0.13,2.69-0.25,4.03-0.38
		C144.72,111.64,145.11,112.76,143.94,113.46z"/>
	<path class="st825" d="M141.36,135.63c1.09,0.21,0.7,1.09,0.81,1.76c0.12,0.7-0.46,1.68,0.74,1.98c-0.1,0.65-1.6-0.13-1.13,1.11
		c-2.35-0.17-1.81-2.42-2.65-3.68C139.13,134.99,140.54,135.88,141.36,135.63z"/>
	<path class="st826" d="M141.79,109.1c-3.31,0-6.63,0.01-9.94,0.01c-1.12-2-0.39-4.15-0.54-6.23c-0.01-0.74,0.06-1.48-0.02-2.22
		c-0.4-0.72-0.94-0.1-1.41-0.15c-0.37,0-0.66-0.11-0.78-0.5c0.81-0.96,0.16-1.42-0.63-1.84c-0.09-0.16-0.08-0.32,0.04-0.46
		c2.95,0.21,3.75,1.07,3.73,3.94c-0.02,1.89,0.02,3.78-0.06,5.67c-0.05,1.12,0.35,1.5,1.47,1.46c2.13-0.08,4.27-0.04,6.4-0.02
		C140.64,108.77,141.29,108.6,141.79,109.1z"/>
	<path class="st827" d="M142.16,121.67c1.29-0.56,2.64-0.83,4.05-0.75c0.05,0.87-0.13,1.76,0.37,2.57
		c-1.36,0.15-2.71,0.31-4.07,0.46c-0.23,0.06-0.41,0-0.55-0.19C141.64,123.02,141.56,122.32,142.16,121.67z"/>
	<path class="st828" d="M104.61,136.39c-0.01-2.41-0.01-2.41,2.55-1.11c0.46,0.86,0.91,1.72-0.41,2.26
		C105.92,137.37,105.25,136.9,104.61,136.39z"/>
	<path class="st829" d="M106.75,137.54c0.73-0.65,0.28-1.51,0.41-2.26c0.12-0.01,0.24-0.02,0.35-0.03c0.16-0.09,0.33-0.14,0.51-0.14
		c0.66,0.17,1.47,0,1.84,0.82c-0.14,0.92,0.23,1.8,0.22,2.71C108.9,138.49,107.79,138.12,106.75,137.54z"/>
	<path class="st830" d="M110.08,138.64c-0.83-0.78-1.12-1.64-0.34-2.63c0.58-0.42,1.05-0.28,1.42,0.3c0.02,0.96-0.25,1.83-0.71,2.66
		C110.33,138.86,110.2,138.75,110.08,138.64z"/>
	<path class="st831" d="M128.51,97.71c0,0.12,0,0.24,0.01,0.35c-0.08,0.31-0.28,0.52-0.59,0.61c-1.09,0.04-2.16-0.13-3.23-0.28
		c-1.02-0.41-2.26,0.14-3.19-0.69c-0.49,0-0.98,0-1.47,0c-0.12-0.08-0.16-0.16-0.12-0.25c0.04-0.08,0.08-0.12,0.12-0.12
		c1.61-0.01,3.22-0.01,4.82-0.02c0.11-0.01,0.23,0,0.34,0.02c0.71,0.46,1.56-0.05,2.28,0.33C127.82,97.68,128.17,97.7,128.51,97.71z
		"/>
	<path class="st806" d="M57.46,133.46c0.35-0.02,0.69-0.03,1.04-0.05c0.79-0.26,1.59-0.43,2.43-0.39c0.32,0.04,0.6,0.2,0.84,0.4
		c0.39,0,0.77,0,1.16,0c0.75-0.37,1.49-0.66,2.19,0.09c0,0.06,0,0.13,0.01,0.19C62.57,133.71,60,134.17,57.46,133.46z"/>
	<path class="st832" d="M55.17,75.96c-0.15,0.73,0.22,1.55-0.36,2.21c-0.07-1.75-0.23-3.51,0.26-5.24c0.08,0.07,0.15,0.15,0.23,0.22
		C55.29,74.09,55.5,75.04,55.17,75.96z"/>
	<path class="st833" d="M84.3,45.7c0.6,0.87,0.98,1.91,1.84,2.6C84.69,48.02,84.35,46.97,84.3,45.7z"/>
	<path class="st834" d="M54.02,42.76c0.93,0.48,0.91,1.43,1.11,2.27c-0.36-0.39-0.72-0.78-1.08-1.17
		C54.11,43.49,53.64,43.14,54.02,42.76z"/>
	<path class="st833" d="M83.15,44.22c0.01-0.48,0.22-0.75,0.73-0.71c0.14,0.74,0.29,1.47,0.43,2.21
		C83.92,45.21,83.53,44.71,83.15,44.22z"/>
	<path class="st834" d="M56.21,46.85c0.96,0.45,1.15,1.29,1.14,2.24C56.8,48.43,56.4,47.69,56.21,46.85z"/>
	<path class="st834" d="M55.11,45c0.83,0.35,1.26,0.94,1.12,1.87C55.62,46.39,55.29,45.74,55.11,45z"/>
	<path class="st833" d="M82.01,46.07c0.21-0.72,0.51-1.39,1.14-1.85C83.06,45.02,82.84,45.73,82.01,46.07z"/>
	<path class="st832" d="M55.51,70.4c0,0.87,0.01,1.74,0.01,2.61c-0.07,0.13-0.17,0.15-0.29,0.06c-0.05-0.05-0.1-0.09-0.15-0.14
		C55.2,72.08,54.95,71.17,55.51,70.4z"/>
	<path class="st835" d="M127.48,97.67c-0.77-0.06-1.6,0.33-2.28-0.33C125.97,97.38,126.78,97.11,127.48,97.67z"/>
	<path class="st806" d="M89.45,124.24c1.08-0.22,0.65-0.92,0.52-1.57c-0.69-3.22-1.18-6.4-0.59-9.75c1.05-5.94,4.67-9.57,9.92-11.93
		c1.67-0.75,3.49-1,5.25-1.46c0.06,0,0.12,0.02,0.18,0.05c0.24,0.77,0.45,1.54,0.09,2.33c-0.28,0.51-0.81,0.49-1.27,0.6
		c-10.09,2.52-13.64,14.48-6.57,22.14c1,1.09,2.11,2.04,3.34,2.88c0.53,0.36,1.18,0.74,0.93,1.6c-0.46,0.39-1.06,0.43-1.6,0.62
		c-0.87,0.17-1.74,0.21-2.6-0.02c-2.33-1.39-4.56-2.93-6.83-4.43C89.84,125.06,89.29,124.89,89.45,124.24z"/>
	<path class="st806" d="M62.16,96.19c1.49-0.97,2.2-2.51,2.95-4.02c0.5,0.23,0.69,0.63,0.75,1.17c0.15,1.36,0.59,2.73,1.4,3.74
		c2.9,3.64,2.75,7.92,3.06,12.19c0.43,6.02-0.02,12.11,1.38,18.05c0.25,1.07-0.04,1.91-1.19,2.35c-0.91,0.35-1.75,0.87-2.45,1.58
		c-0.14,0.2-0.18,0.45-0.35,0.63c-0.48,0.43-0.65,1.09-1.1,1.54c-0.38,0-0.77,0-1.15,0.01c-0.5-1.29,0.21-2.27,0.81-3.28
		c0.26-0.36,0.57-0.67,0.92-0.94c0.75-0.63,2.07-0.82,1.71-2.28c-0.1-1.61-0.41-3.18-0.58-4.78c-0.01-0.62,0.03-1.24-0.18-1.84
		c-0.05-0.17-0.09-0.35-0.11-0.53c-0.11-0.8,0.02-1.63-0.26-2.42c-0.06-0.18-0.1-0.37-0.14-0.56c-0.55-4.12-1.12-8.24-1.57-12.37
		c-0.25-2.27-1.67-3.89-2.86-5.66C62.67,97.99,61.88,97.3,62.16,96.19z"/>
	<path class="st808" d="M89.45,124.24c1.96,1.29,3.91,2.6,5.89,3.86c0.57,0.36,1.17,0.64,1.46,1.3c-0.51,0.55-1.19,0.57-1.86,0.58
		c-3.05,0.04-6.1,0.03-9.15,0c-0.68-0.01-1.34-0.1-1.88-0.57c-1.56-0.35-2.8,0.44-4.07,1.13c-1.22-0.01-2.44,0.02-3.65-0.05
		c-0.49-0.03-1.56,0.33-1.23-0.67c0.29-0.89-0.77-2.61,1.31-2.61c2.86,0,5.72,0,8.59-0.01c0.42,0,0.96,0.09,1.22-0.12
		c0.35-0.28-0.09-0.46-0.37-0.57c-3.99-0.78-7.01-5.38-6.03-9.19c0.89-0.68,1.49,0.06,2.11,0.47c0.82,0.55,1.39,1.38,2.11,2.04
		C85.58,121.52,87.57,122.8,89.45,124.24z"/>
	<path class="st836" d="M83.91,119.83c-1.62-0.44-2.32-2.32-4.05-2.6c-1.23-0.87-2.64-1.57-2.98-3.25
		c-0.95-2.37,0.03-4.72,0.14-7.07c0.16-3.52,0.73-7.02,0.97-10.54c0.24-3.53,0.95-7.02,0.77-10.58c-0.02-0.36,0-0.84,0.47-0.85
		c0.77-0.02,0.59,0.63,0.61,1.08c0.12,2.93,0.07,5.85,0.3,8.79c0.39,4.99,0.43,10.03,0.41,15.04c-0.02,3.45,0.7,6.53,3.04,9.15
		C83.78,119.2,83.81,119.55,83.91,119.83z"/>
	<path class="st837" d="M62.16,96.19c0.41,1.25,1.3,2.19,2.12,3.15c1.8,2.1,2.34,4.6,2.61,7.23c0.36,3.49,0.78,6.98,1.18,10.47
		c0,0.2-0.04,0.39-0.12,0.57c-0.26,1.38-0.05,2.78-0.17,4.16c-0.38,1.53-0.21,3.11-0.45,4.65c-0.44,1.19,0,2.55-0.7,3.69
		c-0.39,1.11-0.78,2.21-1.17,3.32c-0.11,0.02-0.23,0.05-0.34,0.08c-0.73-0.03-1.46-0.06-2.19-0.08c1.94-2.02,2.03-4.63,2.16-7.17
		c0.31-5.94-0.18-11.88-0.41-17.81c-0.15-3.98-1.18-7.83-3.04-11.42c-0.25-0.48-0.4-1.02-0.59-1.53c-0.13-0.39,0.05-0.47,0.39-0.38
		C61.68,95.47,61.92,95.83,62.16,96.19z"/>
	<path class="st838" d="M67.69,131.62c0.12-0.12,0.25-0.25,0.37-0.37c0.37,0.25,0.74,0.49,1.11,0.74c0.44,0.47,0.39,0.95,0.03,1.43
		c-0.14,0-0.29,0-0.43,0.01c-0.22,0.06-0.44-1.1-0.67,0c-0.14,0-0.29,0-0.43,0C66.65,132.8,67.25,132.21,67.69,131.62z"/>
	<path class="st839" d="M67.69,131.62c-0.04,0.6-0.51,1.19-0.03,1.79c-0.35,0-0.7,0-1.05,0C66.62,132.61,66.67,131.83,67.69,131.62z
		"/>
	<path class="st840" d="M69.19,133.41c-0.01-0.48-0.02-0.95-0.03-1.43c1.04-0.58,0.63,0.4,0.77,0.74
		C70.25,133.51,69.69,133.45,69.19,133.41z"/>
	<path class="st841" d="M68.09,133.42c0-0.34,0-0.69,0-1.44c0.33,0.71,0.5,1.08,0.67,1.44C68.54,133.42,68.31,133.42,68.09,133.42z"
		/>
	<path class="st842" d="M61.44,95.12c-0.13,0.13-0.26,0.25-0.39,0.38c-2.14-3.58-4.08-7.25-4.79-11.43
		c-0.14-0.55-0.6-1.17,0.35-1.46C57.66,86.99,59.66,91.01,61.44,95.12z"/>
	<path class="st843" d="M56.61,82.6c-0.52,0.39-0.29,0.96-0.35,1.46c-0.45-1.69-1.2-3.36-0.39-5.15
		C56.12,80.14,56.36,81.37,56.61,82.6z"/>
	<path class="st844" d="M55.23,73.07c0.09-0.04,0.19-0.06,0.29-0.06c0,0.98-0.01,1.97-0.01,2.95c0,0-0.17,0-0.17,0s-0.17,0-0.17,0
		C55.19,74.99,55.21,74.03,55.23,73.07z"/>
	<path class="st834" d="M58.11,50.51c0.25-0.37,0.51-0.73,0.76-1.1c-0.02,0.49-0.03,0.97-0.05,1.46
		C58.41,51.11,58.08,51.16,58.11,50.51z"/>
	<path class="st814" d="M71.75,33.99c0.01-2.96,1.13-3.93,4-3.32c2.24,0.47,4.01,1.82,5.46,3.49c1.4,1.61,1.26,2.66-0.34,4.09
		c-1.56,1.39-3.4,2.24-5.52,1.71C72.63,39.27,71.74,37.68,71.75,33.99z"/>
	<path class="st845" d="M66.6,38.35c0.82-0.68,0.67-1.63,0.74-2.54c0.32-4.43,1.04-8.83,0.8-13.3c0.7,2.3-0.27,4.73,0.68,6.99
		c0,0-0.01-0.01-0.01-0.01c0.29,2.72,0.19,5.49,1.08,8.13c0.38,1.22,0.75,2.45,1.13,3.67c0.36,0.75-0.15,1.1-0.71,1.13
		c-1.62,0.1-3.25,0.44-4.87-0.01C65.83,41.05,66.21,39.7,66.6,38.35z"/>
	<path class="st846" d="M62.87,43.83c0.63-0.57,1.39-0.89,2.21-1.09c2.22-0.44,4.46-0.48,6.7-0.36c0.82,0,1.49,0.41,2.17,0.8
		c-0.24,1.02-0.4,2.08-1.53,2.58c-1.11,0.59-2.24-0.03-3.36,0.06c-1.08,0.08-2.17,0.02-3.18,0.51c-0.36,0.14-0.72,0.31-1.12,0.13
		C63.74,45.86,63.07,45.01,62.87,43.83z"/>
	<path class="st847" d="M71.78,42.39c-2.22,0.42-4.46,0.47-6.7,0.36c0.12-0.11,0.25-0.23,0.37-0.34c1.3-0.47,2.65-0.35,3.99-0.38
		c0.62-0.01,1.42,0.27,1.6-0.74C71.28,41.65,71.53,42.02,71.78,42.39z"/>
	<path class="st823" d="M69.9,37.61c-1.16-2.22-1.05-4.64-1.14-7.03c-0.01-0.36,0.03-0.73,0.05-1.1
		C69.17,32.19,69.54,34.9,69.9,37.61z"/>
	<path class="st848" d="M61.07,133.4c-0.86,0-1.71,0.01-2.57,0.01c0.16-0.72,1.61-1.53,2.56-1.42
		C61.49,132.46,61.44,132.93,61.07,133.4z"/>
	<path class="st849" d="M61.07,133.4c0-0.47-0.01-0.94-0.01-1.41c1.35-0.08,0.45,0.97,0.72,1.44
		C61.54,133.42,61.3,133.41,61.07,133.4z"/>
	<path class="st850" d="M67.33,51.61c-0.53-0.47-1.06-0.95-1.59-1.42c0.28-0.66,0.35-1.4,0.87-1.96c1.54-0.19,3.1-0.11,4.62-0.45
		c0.64,0.4,0.68,1.3,1.38,1.65c-0.67,1.54-2.26,1.96-3.46,2.87c-0.09,0.15-0.22,0.21-0.39,0.17C68.32,52.11,67.75,51.99,67.33,51.61
		z"/>
	<path class="st851" d="M71.38,47.94c-1.55,0.78-3.14,1-4.8,0.37c-0.07-0.02-0.15-0.04-0.22-0.05c-0.29-0.11-0.55-0.12-0.75,0.17
		c-0.15,0.32-0.18,0.71-0.49,0.95c-0.93-0.86-0.56-1.89-0.38-2.9c0.21-0.14,0.41-0.29,0.62-0.43c1.41-0.08,3.04-1.12,3.98,0.94
		c0.14,0.31,0.85,0.36,0.88-0.07c0.17-2.01,1.42-0.78,2.25-0.82c0.94,0.87,1.06,1.85,0.38,2.93C72.41,48.59,71.97,48.16,71.38,47.94
		z"/>
	<path class="st852" d="M72.47,46.1c-0.6,0-1.21,0-1.87,0c0.19,0.47,1.14,0.69,0.33,1.29c-0.68,0.49-1.87,0.87-2.07,0.11
		c-0.59-2.25-2.3-1.09-3.5-1.45c2.31-1,4.68-0.56,7.05-0.27C72.44,45.88,72.46,45.99,72.47,46.1z"/>
	<path class="st853" d="M67.33,51.61c0.5,0.23,0.99,0.46,1.49,0.69c0.39,0.44-0.12,1.09,0.36,1.51c1.65,0.76,2.48,3.03,4.78,2.59
		c0.11,0.08,0.14,0.17,0.1,0.25c-0.04,0.08-0.07,0.12-0.11,0.12c-1.47,0.16-2.79-0.13-3.75-1.36c-0.87-1.11-1.7-0.97-2.5,0.07
		c-1.06,1.37-2.29,2.16-4.06,1.29c-0.09-0.33-0.02-0.51,0.37-0.37c1.55,0.4,3.1-0.45,4.19-2.2C68.97,52.94,67.87,52.39,67.33,51.61z
		"/>
	<path class="st854" d="M65.12,49.37c0-0.48-0.01-0.96-0.01-1.43c0.61-0.36,1.09-0.2,1.47,0.37c0,0,0,0,0,0
		c-0.11,0.71,0.39,1.69-0.85,1.89C65.38,50.03,65.23,49.72,65.12,49.37z"/>
	<path class="st854" d="M71.38,47.94c1.24-0.66,1.44,0.09,1.47,1.08c-0.08,0.14-0.16,0.28-0.24,0.42
		C70.78,50.09,71.55,48.63,71.38,47.94z"/>
	<path class="st855" d="M64.01,56.41c-0.12,0.12-0.24,0.25-0.37,0.37c-0.7-0.44-1.62-0.55-2.35-1.73
		C62.43,55.62,63.22,56.01,64.01,56.41z"/>
	<path class="st834" d="M59.95,46.82c0.06-0.57-0.51-0.72-0.74-1.1c0.5,0.17,1-0.39,1.5,0.01C60.46,46.1,60.2,46.46,59.95,46.82z"/>
	<path class="st856" d="M73.95,56.78c0-0.12,0-0.25,0-0.37c0.32-0.36,0.65-0.67,1.23-0.57C75,56.5,74.37,56.49,73.95,56.78z"/>
	<path class="st834" d="M58.86,49.43c-0.02-0.72-0.15-1.48,0.72-1.86C59.48,48.24,59.32,48.89,58.86,49.43z"/>
	<path class="st857" d="M69.18,53.82c-0.84-0.33-0.19-1.02-0.36-1.51c0.11-0.04,0.21-0.04,0.32,0
		C69.15,52.81,69.17,53.32,69.18,53.82z"/>
	<path class="st805" d="M56.26,34.66c-0.36,0.11-0.71,0.26-0.74-0.36c-0.28-5.31,0.84-10.04,5.53-13.28
		c1.39,0.06,2.53-1.16,4.02-0.76c0.52,0.14,1.41,0.07,1.34,0.65c-0.23,1.9,1.27,3.48,0.72,5.46c-0.33,1.2-0.12,2.55-0.19,3.82
		c-0.02,0.46,0.25,1.07-0.33,1.31c-0.46,0.19-0.69-0.39-1.05-0.58c-0.26-0.14-0.56-0.21-0.84-0.31
		C61.43,30.96,58.69,32.48,56.26,34.66z"/>
	<path class="st858" d="M56.26,34.66c2.07-2.93,4.8-4.47,8.47-4.05c1.77,2.24,1.44,4.77,0.58,7.13c-0.9,2.46-3.96,3.08-6.94,1.6
		c-0.97-0.48-1.94-1.06-2.47-2.1C56.41,36.43,56.24,35.53,56.26,34.66z"/>
	<path class="st834" d="M55.16,39.83c-0.56-0.74-0.57-1.48,0-2.21C55.16,38.35,55.16,39.09,55.16,39.83z"/>
	<path class="st859" d="M142.15,123.84c0.12,0.04,0.25,0.08,0.37,0.11c-0.73,1.83-0.28,3.73-0.33,5.6c-0.08,3.19-0.61,3.99-3.68,5
		c0,0-0.04,0.02-0.04,0.02c-0.32-0.56-0.23-1.07,0.28-1.44c0.65-0.47,0.64-1.12,0.58-1.8c0.02-0.35,0.16-0.66,0.37-0.94
		c0.03-0.64,2.25-1.1,0.14-1.9c-0.25-0.1-0.42-0.27-0.53-0.51c-0.34-0.59,0.1-2.09-1.46-1.23c-0.37,0.24-0.75,0.4-1.2,0.33
		c-1.42-1.22-1.77,0.04-2.26,0.98c-0.29,0.12-0.56,0.09-0.84-0.04c-0.36-0.26-0.55-0.63-0.65-1.06c-0.06-1-0.32-2.02,0.45-2.89
		C136.26,123.48,139.2,123.44,142.15,123.84z"/>
	<path class="st805" d="M83.91,129.41c4.3,0,8.59-0.01,12.89-0.01c0.99,0,1.97,0.01,2.96,0.01c0.43-0.32,0.92-0.13,1.39-0.18
		c0.24-0.03-0.06,0.13,0.16,0.04c0.14-0.05,0.09-0.2-0.07-0.24c-1.34-1.61-3.34-2.44-4.67-4.08c-3.24-4-4.85-8.52-3.21-13.48
		c1.59-4.81,4.76-8.39,10.11-9.41c0.38-0.07,0.71-0.11,1.06,0.06c0.19,0.15,0.32,0.34,0.41,0.56c0.41,4.14,0.14,8.29,0.16,12.43
		c-0.1,1.4,0.22,2.83-0.23,4.21c-0.58,2.42-0.15,4.88-0.25,7.32c-0.08,1.78-0.05,3.56-0.07,5.34c-0.5-0.27-1.02-0.37-1.59-0.36
		c-5.44,0.07-10.88-0.05-16.32-0.34C85.25,131.2,84.24,130.87,83.91,129.41z"/>
	<path class="st860" d="M80.59,131.99c0.56-0.49,1.22-0.19,1.83-0.21c0.47-0.01,1.13-0.26,1.12,0.67c-0.01,0.83-0.43,1.03-1.14,0.99
		c-0.48-0.02-0.96-0.02-1.44-0.03C80.51,133.02,80.62,132.49,80.59,131.99z"/>
	<path class="st861" d="M80.59,131.99c0.53,0.37,0.32,0.93,0.37,1.43C79.88,133.19,80.12,132.62,80.59,131.99z"/>
	<path class="st862" d="M119.67,140.09c-0.12,0.01-0.24,0.02-0.35,0.05c0,0-0.03-0.07-0.03-0.07c-0.19-0.23-0.25-0.5-0.22-0.8
		c0.57-2.15,1.47-4.2,2.01-6.36c0.28-0.41,0.46-0.86,0.64-1.32c0.33-0.86,0.53-1.64-0.7-1.96c-0.33-0.08-0.42-0.41-0.37-0.75
		c0.45-0.79,1.23-0.71,1.95-0.72c4.09-0.02,8.19-0.05,12.28,0.07c0.72,0.02,1.32,0.24,1.73,0.85c0.13,0.22,0.13,0.44,0.01,0.66
		c-0.73,0.01-1.46,0.02-2.19,0.03c-0.49,0.44-1.1,0.53-1.71,0.51c-1.48-0.05-1.59,0.65-1.15,1.85c0.63,1.72,1.3,3.43,1.79,5.19
		c0.49,1.77,0.03,2.37-1.84,2.39C127.56,139.76,123.6,139.61,119.67,140.09z"/>
	<path class="st863" d="M119.67,140.09c2.05-0.56,4.14-0.69,6.25-0.72c2.01-0.04,4.03-0.01,6.04-0.02c1.05,0,1.44-0.42,1.03-1.5
		c-0.77-2.05-1.44-4.13-2.21-6.17c-0.49-1.3-0.5-2.12,1.26-1.92c0.78,0.09,1.59,0.02,2.38,0.02c0.95,2.9,1.86,5.82,2.88,8.7
		c0.47,1.33,0.14,1.66-1.24,1.64C130.6,140.06,125.13,140.09,119.67,140.09z"/>
	<path class="st864" d="M136.61,129.75c0-0.12,0-0.24-0.01-0.35c-0.18-0.23-0.22-0.47-0.09-0.74c0.28-0.29,0.62-0.32,0.99-0.27
		c0.17,0.04,0.33,0.12,0.48,0.22c0.81,0.71,1.12,1.72,1.58,2.65c0.47,0.95,0.68,1.82-0.66,2.26c-0.53,0.17-0.41,0.65-0.45,1.05
		C137.53,133.09,137.92,131.09,136.61,129.75z"/>
	<path class="st865" d="M104.86,119.32c-0.47-1.29-0.23-2.62-0.16-3.93c0.58-0.59,1.35-0.54,2.04-0.46c1.65,0.2,2.67-0.35,2.9-2.07
		c0.69-1.33,1.41-2.65,2.5-3.71c2.02-1.78,4.28-2.9,7.07-2.57c2.83,0.49,5.16,1.75,6.68,4.29c0.25,0.42,0.58,0.81,0.73,1.27
		c0.52,1.64,1.23,3.03,3.25,3.1c0.15,0.01,0.26,0.24,0.34,0.41c0.18,1.47-0.76,2.45-1.5,3.52c-1.58,0.84-1.5,2.65-2.28,3.95
		c-0.15,0.11-0.32,0.15-0.5,0.1c-0.48-0.53-0.99-1.04-1.34-1.68c-0.21-0.69,0.1-1.32,0.24-1.97c0.69-3.08,0.07-5.82-2.15-8.13
		c-2.59-2.69-7.11-2.4-9.34,0.58c-2.87,3.82-2.19,9.13,1.54,12.14c0.73,0.65,1.74,0.75,2.51,1.32c0.13,0.13,0.2,0.28,0.22,0.46
		c-0.03,0.27-0.15,0.5-0.3,0.72c-0.35,0.49-0.66,1.05-1.38,1.06c-1.34-0.21-2.39-0.99-3.44-1.77c-1.15-1.1-2.23-2.23-2.4-3.93
		c-0.68-2.71-0.68-2.71-3.4-2.7C106.08,119.33,105.47,119.33,104.86,119.32z"/>
	<path class="st866" d="M110.09,122.03c0.86,1.22,1.73,2.43,2.59,3.65c0.81,1.49,0.62,3.06,0.35,4.62
		c-0.18,1.07-0.58,2.09-0.74,3.16c-0.21,1.02-0.49,2.01-1.14,2.85c-0.47-0.1-0.95-0.2-1.42-0.3c-0.5-0.6-1.42-0.02-1.89-0.69
		c0.74-0.81,0.95-1.78,0.94-2.85c-0.02-2.8-0.03-5.59,0-8.39c0.01-0.83-0.12-1.72,0.56-2.41
		C109.6,121.79,109.84,121.91,110.09,122.03z"/>
	<path class="st867" d="M109.35,121.66c0,4.02-0.03,8.04,0.02,12.06c0.01,1.14-0.27,1.77-1.52,1.6c-0.12,0-0.23-0.02-0.34-0.06
		c-0.71-2.21-0.29-4.49-0.36-6.74c-0.07-2.26-0.05-4.53,0.01-6.79c0.02-0.74-0.48-1.89,0.99-1.89
		C109.43,119.84,109.34,120.79,109.35,121.66z"/>
	<path class="st868" d="M115.36,140.11c-0.64-0.02-1.27-0.03-1.91-0.05c0.97-3.05,1.95-6.09,2.92-9.14c0.3-1.07,0.25-2.32,1.52-2.88
		c0.58-0.21,1.15-0.23,1.7,0.1c0.4,0.46,0.14,0.91,0,1.37c-1.18,2.68-1.92,5.51-2.89,8.27C116.4,138.65,116.18,139.55,115.36,140.11
		z"/>
	<path class="st869" d="M112.3,133.46c0.5-2.57,0.33-5.18,0.39-7.78c1.12,0.63,2.23,1.25,3.35,1.88c0.09,0.15,0.1,0.31,0.04,0.47
		c-0.61,0.78-1.74,0.89-2.3,1.75C113.28,131,112.79,132.23,112.3,133.46z"/>
	<path class="st870" d="M113.78,129.77c0.05-1.37,1.22-1.44,2.13-1.81c0.68-0.08,1.38-0.28,1.92,0.38c-0.77,0.7-0.92,1.75-1.45,2.59
		C116.44,128.43,114.85,129.68,113.78,129.77z"/>
	<path class="st871" d="M124.83,98.07c1.13-0.06,2.24,0.01,3.32,0.37c0.48,0.76,0.48,0.98-0.25,1.31c-0.94,0.42-1.94,0.66-2.98,0.67
		c-1.15,0.01-2.3,0.01-3.44,0.02c-4.05-0.06-8.11,0.09-12.16-0.07c-0.11-0.02-0.22-0.05-0.33-0.07c-0.36-0.17-0.73-0.34-1.2-0.56
		c0.9-0.48,1.96,0.23,2.68-0.56c0.89-0.33,1.79-0.02,2.69-0.1c0.55,0,1.1,0.08,1.63-0.09c0.25-0.14,0.41-0.36,0.56-0.6
		c0.09-0.11,0.18-0.21,0.28-0.31c0.64,1.77,1.85,1.85,3.32,1.1c1.05-0.7,2.24-0.41,3.37-0.49c0.71-0.05,1.47,0.2,2.12-0.29
		C124.55,98.26,124.68,98.16,124.83,98.07z"/>
	<path class="st872" d="M105.29,99.92c1.23,0.24,2.46,0.48,3.69,0.72c0.34-0.27,0.7-0.33,1.08-0.11c0.21,0.23,0.26,0.5,0.21,0.79
		c-0.34,0.65-0.44,1.4-0.87,2.02c-0.32,0.24-0.68,0.32-1.07,0.34c-0.29,0.02-0.57,0-0.85-0.05c-0.37-0.09-0.7-0.23-0.85-0.61
		C107.16,101.57,105.65,100.99,105.29,99.92z"/>
	<path class="st873" d="M105.29,99.92c0.86,0.8,2.92,1.01,1.46,2.96c-0.8,0.55-1.45,0.23-2.06-0.34c-0.06-0.14-0.11-0.28-0.17-0.42
		c0.07-0.85,0.13-1.69,0.2-2.54C104.92,99.7,105.1,99.81,105.29,99.92z"/>
	<path class="st874" d="M124.83,98.43c0.41,0.98-0.39,0.73-0.8,0.73c-1.7,0.03-3.4,0-5.09,0c0.48-1.26,1.6-1,2.57-1.1
		C122.67,97.74,123.78,97.79,124.83,98.43z"/>
	<path class="st875" d="M113.4,99.54c-0.99-0.06-2.02,0.21-2.94-0.37c0.09-1.11,0.89-1.11,1.7-1.1c0.78,0.01,1.56,0.01,2.34,0.01
		C114.6,98.91,113.7,99,113.4,99.54z"/>
	<path class="st876" d="M113.4,99.54c-0.25-0.95,0.67-1.03,1.1-1.47c0.37,0,0.74,0,1.11,0c0,0.12,0,0.25,0,0.37
		c-0.22,0.2-0.42,0.41-0.36,0.74C114.73,99.79,114.03,99.46,113.4,99.54z"/>
	<path class="st835" d="M124.83,98.43c-1.11-0.08-2.18-0.53-3.32-0.36c0-0.12,0-0.24,0-0.37c1.1,0.16,2.28-0.37,3.32,0.37
		C124.83,98.19,124.83,98.31,124.83,98.43z"/>
	<path class="st877" d="M118.2,97.7c-1.2,0-2.41,0-3.61,0c0-0.12,0-0.25-0.01-0.37c1.2,0,2.41,0,3.61,0
		c0.12,0.08,0.16,0.16,0.12,0.25C118.28,97.66,118.24,97.7,118.2,97.7z"/>
	<path class="st835" d="M118.2,97.7c0-0.12,0-0.25,0-0.37c0.61,0,1.23,0,1.84,0c0,0.12,0,0.25,0,0.37
		C119.42,97.7,118.81,97.7,118.2,97.7z"/>
	<path class="st878" d="M110.08,100.66c-0.36-0.01-0.73-0.02-1.09-0.02c-0.01-0.12-0.01-0.23,0-0.35c0,0,0-0.01,0-0.01
		c0.6-0.3,1.21-0.2,1.83-0.07C110.91,100.91,110.55,100.87,110.08,100.66z"/>
	<path class="st879" d="M115.36,140.11c1.4-3.53,2.28-7.26,3.84-10.73c0.53-0.35,1.05-0.4,1.57,0.02c2.08,0.09,2.12,0.13,1.46,2.07
		c-0.19,0.56-0.22,1.2-0.72,1.62c-0.42-0.37-0.39-0.87-0.4-1.36c0-0.46-0.08-0.89-0.64-0.94c-0.48-0.05-0.89,0.22-1,0.66
		c-0.57,2.32-1.7,4.43-2.39,6.7c-0.2,0.67,0.02,1.07,0.78,1.09c0.48,0.01,0.98-0.16,1.44,0.13c-0.01,0.24-0.01,0.48-0.02,0.71
		C117.98,140.09,116.67,140.1,115.36,140.11z"/>
	<path class="st880" d="M130.09,115.83c-3.22-0.01-3.52-2.76-4.54-4.83c-0.14-1.52-0.15-3.05-0.12-4.58c0.02-0.9-0.15-1.7-0.93-2.27
		c-0.14-0.17-0.17-0.36-0.11-0.56c0.22-0.23,0.49-0.35,0.79-0.41c0.97-0.14,1.98,0.06,2.94-0.29c1.24-0.07,2.39-1.02,3.71-0.39
		c0.01,2.21,0.01,4.41,0.02,6.62c-0.85,0.52-2.36-0.11-2.58,1.49c0.56,0.94,0.71,2.07,1.41,2.95c0.18,0.69,0.22,1.37-0.09,2.04
		C130.48,115.79,130.31,115.87,130.09,115.83z"/>
	<path class="st881" d="M130.37,115.78c0-0.74-0.01-1.49-0.01-2.23c0.23-0.22,0.47-0.22,0.73-0.07c0.11,0.03,0.22,0.04,0.33,0.04
		c0.8-0.65,1.68-0.13,2.52-0.18c2.63-0.14,5.24,0.48,7.87,0.27c0.61-0.02,1.21-0.04,1.82-0.06c0.29,1.66-0.5,2.28-2.08,2.4
		c-0.65,0.05-1.32,0.17-1.98,0.2c-1.82,1.07-3.8,0.35-5.71,0.5C132.67,116.48,131.42,116.54,130.37,115.78z"/>
	<path class="st882" d="M141.81,113.61c-2.68,0.72-5.41,0.27-8.12,0.3c-1.02-0.71-1.09-1.57-0.4-2.55c2.44-0.57,4.92-0.34,7.39-0.35
		c-0.29,0.39-0.72,0.3-1.12,0.35c-0.83,0.73-1.86,0.4-2.8,0.55c-0.35,0.06-0.81,0.07-0.81,0.55c0,0.48,0.46,0.5,0.8,0.55
		c0.94,0.15,1.97-0.18,2.8,0.55C140.31,113.57,141.06,113.59,141.81,113.61z"/>
	<path class="st883" d="M131.09,113.48c-0.24,0.02-0.49,0.04-0.73,0.07c-1.27-0.64-1.15-1.8-1.09-2.94
		C132.16,110.12,130.76,112.34,131.09,113.48z"/>
	<path class="st884" d="M133.29,111.35c0.05,0.87-0.2,1.78,0.4,2.55c-0.76-0.13-1.52-0.26-2.27-0.38c0.01-0.36,0.05-0.72,0.03-1.08
		C131.34,110.83,132.08,110.69,133.29,111.35z"/>
	<path class="st885" d="M133.68,116.15c1.96,0,3.93,0,5.89,0c0.74,1.59,1.48,3.19,2.23,4.78c0.39,0.91-0.3,1.09-0.89,1.16
		c-2.41,0.3-4.82,0.84-7.23,0.07c-0.19-0.05-0.37-0.12-0.54-0.22c-0.8-1.03-0.14-1.98,0.28-2.86
		C133.87,118.1,134.07,117.17,133.68,116.15z"/>
	<path class="st886" d="M133.31,121.67c2.42,0.64,4.83,0.2,7.24,0c0.56-0.04,1.14,0.04,1.24-0.74c0.3,0.16,0.36,0.44,0.37,0.75
		c-0.01,0.72-0.01,1.44-0.02,2.16c-2.92,0.61-5.88,0.3-8.83,0.43c-0.56,0.37-1.09,0.47-1.55-0.15
		C132.27,123.29,132.88,122.53,133.31,121.67z"/>
	<path class="st887" d="M139.56,113.55c-1.09,0-2.18-0.01-3.27,0.02c-0.87,0.03-1.17-0.38-1.15-1.21c0.01-0.82,0.44-1.03,1.15-1.02
		c1.09,0.02,2.18,0,3.27,0.01C139.56,112.08,139.56,112.81,139.56,113.55z"/>
	<path class="st888" d="M125.2,103.6c-0.22,0.01-0.45,0.02-0.67,0.03c-1.17,0.69-2.37,0.61-3.59,0.16c-0.35-1.4,0.05-2,1.65-2.11
		c1.39-0.09,2.77-0.2,4.1-0.61c1.18-0.78,2.65-0.22,3.86-0.84c0.43-0.05,0.77-0.53,1.26-0.23c0.01,0.83,0.01,1.67,0.02,2.5
		c-1.21,0.26-2.37,0.79-3.64,0.76C127.23,103.69,126.15,103.1,125.2,103.6z"/>
	<path class="st889" d="M121.51,99.92c1.94-0.05,3.9,0.22,5.78-0.43c0.4-0.14,1.43-0.02,0.85-1.05c0.12-0.12,0.25-0.25,0.37-0.37
		c0.67,0.16,1.36,0.28,1.96,0.74c-0.14,0.7-0.98,0.58-1.23,1.11c-0.19,0.45-0.53,0.68-1.01,0.71c-2.07,0.04-4.1,0.54-6.18,0.54
		c-2.3,0-4.59,0.01-6.88-0.01c-0.71-0.01-1.46,0.09-2.09-0.41c-0.07-1.13,0.8-0.6,1.24-0.63
		C116.72,99.97,119.13,100.33,121.51,99.92z"/>
	<path class="st890" d="M128.49,100.29c0.25-0.13,0.51-0.25,0.76-0.38c0.15,0.3,0.43,0.35,0.73,0.36c0.28-0.2,0.54-0.2,0.8,0.04
		c-1.09,0.89-2.55,0.49-3.74,1.06c-0.77,0.39-1.64,0.09-2.43,0.36c-0.32,0-0.62-0.03-0.88-0.24c-0.12-0.19-0.11-0.38,0.02-0.56
		C125.3,100.49,126.94,100.72,128.49,100.29z"/>
	<path class="st891" d="M130.78,100.31c-0.27-0.01-0.53-0.02-0.8-0.04c0.59-0.22,1.09-1.06,1.83-0.28
		C131.47,100.1,131.13,100.2,130.78,100.31z"/>
	<path class="st892" d="M101.24,129.03c0.23,0.04,0.59,0.01,0.67,0.14c0.17,0.3-0.18,0.22-0.3,0.22c-0.61,0.02-1.23,0.01-1.84,0.01
		C100.15,128.86,100.73,129.09,101.24,129.03z"/>
	<path class="st893" d="M67.3,129.01c0.5-0.73,0.92-1.55,1.87-1.82c0.81,1.86-1.05,1.58-1.77,2.2c-0.12-0.06-0.17-0.14-0.16-0.23
		C67.25,129.06,67.27,129.01,67.3,129.01z"/>
	<path class="st894" d="M67.3,129.01c0.03,0.13,0.06,0.26,0.1,0.39c-0.26,0.24-0.51,0.48-0.77,0.71c-0.02-1.23-0.28-2.49,0.29-3.67
		C67.23,127.27,66.6,128.23,67.3,129.01z"/>
	<path class="st895" d="M68.43,119.82c-0.7-0.75-0.23-1.69-0.4-2.52C68.67,118.06,68.36,118.97,68.43,119.82z"/>
	<path class="st895" d="M68.75,122.02c-0.54-0.55-0.28-1.24-0.3-1.88C68.9,120.72,68.78,121.38,68.75,122.02z"/>
	<path class="st895" d="M67.7,117.29c-0.18,1.46,0.41,2.98-0.4,4.38C67.33,120.2,67.07,118.7,67.7,117.29z"/>
	<path class="st896" d="M76.23,37.04c0.41,0.32,1.23-0.19,1.36,0.6c0.1,0.59-0.42,0.85-0.89,1.01c-0.73,0.25-1.39,0.02-1.73-0.64
		c-0.48-0.93-0.46-1.76,0.86-1.95C76.11,36.33,76.26,36.65,76.23,37.04z"/>
	<path class="st897" d="M76.23,37.04c-0.44-0.2-0.5-0.56-0.4-0.99c0.33-0.06,0.71-0.41,0.96,0.07
		C77.08,36.69,76.65,36.87,76.23,37.04z"/>
	<path class="st850" d="M66.59,48.3c-0.46-0.25-0.94-0.43-1.47-0.37C65.76,47.42,66.32,47.26,66.59,48.3z"/>
	<path class="st898" d="M62.2,36.48c0.71,0.96,0.22,1.63-0.6,2.1c-0.68,0.39-1.39,0.14-1.76-0.5c-0.41-0.71-0.64-1.53,0.52-1.88
		c0.05,0.05,0.11,0.11,0.16,0.16c0.34,0.45,0.66,0.08,0.99-0.03C61.76,36.29,61.99,36.33,62.2,36.48z"/>
	<path class="st899" d="M62.2,36.48c-0.21,0.01-0.43,0.02-0.64,0.03c-0.43,0.04-0.84,0.01-1.18-0.32c0,0-0.03,0.01-0.03,0.01
		C61.13,35.3,61.68,35.77,62.2,36.48z"/>
	<path class="st900" d="M120.78,129.4c-0.52-0.01-1.05-0.01-1.57-0.02c0.03-0.46,0.36-0.75,0.64-1.06c0.63-0.68,1.47-0.52,2.24-0.52
		c3.61-0.02,7.22,0,10.83-0.02c0.23,0,0.45,0.03,0.67,0.09c0.29,0.02,0.58,0.04,0.87,0.06c0.61-0.47,1.16-0.08,1.73,0.12
		c0.24,0.15,0.4,0.35,0.43,0.63c0,0.24-0.01,0.47-0.01,0.71c-0.64-0.48-1.31-0.76-2.17-0.75c-4.02,0.05-8.04,0.01-12.05,0.03
		C121.77,128.69,120.96,128.38,120.78,129.4z"/>
	<path class="st901" d="M131.78,123.9c0.44,0.45,1.02,0.24,1.54,0.36c-0.01,0.98-0.02,1.95-0.03,2.93
		c-1.09,0.52-0.97-0.79-1.57-1.02c-0.14-0.08-0.28-0.18-0.41-0.27c-0.4-0.32-0.86-0.57-1.1-1.06c-0.12-0.52,0.1-0.89,0.54-1.15
		C131.14,123.56,131.49,123.56,131.78,123.9z"/>
	<path class="st902" d="M137.72,126.46c0.28-0.51,0.69-0.92,1.28-0.61c0.88,0.45,0.51,1.34,0.56,2.07
		c-0.35,0.87-0.89,1.31-1.83,0.75l0.01,0.01C136.85,127.94,137.11,127.2,137.72,126.46z"/>
	<path class="st903" d="M136.26,128.31c-0.6-0.13-1.21-0.25-1.81-0.38c0.04-0.75-0.36-1.7,0.62-2.1c0.89-0.37,1.03,0.64,1.53,1.01
		C137.09,127.47,136.94,127.95,136.26,128.31z"/>
	<path class="st904" d="M139.94,128.3c0.43-0.17,0.87-0.5,1.26,0.05c0.34,0.47,0.19,0.91-0.18,1.27c-0.33,0.33-0.71,0.61-1.07,0.91
		C138.54,129.83,138.54,129.4,139.94,128.3z"/>
	<path class="st905" d="M139.94,128.3c-0.42,0.74-1.36,1.49,0,2.23c-0.12,0.24-0.25,0.49-0.37,0.73c-1.14-0.49-1.12-1.81-1.85-2.59
		c0.77,0.15,1.27-0.38,1.83-0.75C139.69,128.04,139.81,128.17,139.94,128.3z"/>
	<path class="st906" d="M131.83,125.76c1.1-0.14,0.34,1.6,1.46,1.43c0.1,0.23,0.2,0.45,0.29,0.68c-0.12,0.02-0.25,0.04-0.37,0.06
		c-0.5,0.34-1.05,0.13-1.58,0.16C131.11,127.27,131.6,126.52,131.83,125.76z"/>
	<path class="st907" d="M136.26,128.31c0.25-0.46,0.42-0.94,0.34-1.47c0.37-0.13,0.75-0.25,1.12-0.38
		c-0.24,0.74-0.24,1.48,0.02,2.22c-0.37,0-0.75,0.01-1.12,0.01C136.5,128.56,136.38,128.44,136.26,128.31z"/>
	<path class="st908" d="M104.69,102.54c0.69,0.11,1.37,0.23,2.06,0.34c0.25,0.12,0.5,0.23,0.75,0.35c0.37,2.65,0.05,5.31,0.15,7.97
		c0.02,0.42-0.03,0.85,0.01,1.27c0.05,0.57-0.22,1.43,0.48,1.59c0.74,0.17,0.65-0.87,1.09-1.24c0.28-0.2,0.56-0.22,0.84,0
		c-0.07,2.11-1.12,2.96-3.22,2.58c-0.7-0.12-1.44-0.01-2.16-0.01C104.53,111.11,104.53,106.82,104.69,102.54z"/>
	<path class="st909" d="M119.3,139.36c-0.5,0.27-1.02,0.36-1.59,0.38c-1.17,0.04-1.57-0.34-1.17-1.54c0.78-2.36,2.02-4.56,2.44-7.07
		c0.17-0.98,1.11-1.07,1.92-0.94c0.79,0.13,0.81,0.74,0.67,1.42c-0.1,0.47-0.05,0.98-0.06,1.47
		C120.82,135.19,120.4,137.39,119.3,139.36z"/>
	<path class="st910" d="M122.16,135.27c0.07-2.07,0.1-2.08,1.94-1.31c0.83,0.35,1.65,0.39,2.42-0.16c0.55-0.39,1.31-0.61,1.61,0
		c0.4,0.81,0.39,1.85,0.02,2.71c-0.3,0.7-0.89,0.55-1.52,0.16c-0.82-0.51-1.87-0.52-2.64-0.11
		C122.26,137.49,121.98,136.79,122.16,135.27z"/>
	<path class="st911" d="M114.85,124.64c-3.53-1.67-4.44-7.4-3.21-10.51c1.09-2.74,2.87-4.62,5.97-5.01
		c4.56-0.58,7.63,3.64,7.99,7.52c0.16,1.76-0.51,3.35-0.74,5.03c-0.1,1.14-1.16,1-1.84,1.38c-0.28,0.08-0.57,0.11-0.86,0.1
		c-0.31-0.03-0.59-0.12-0.84-0.3c-0.59-0.53-0.63-1.25-0.66-1.96c0.05-0.96-0.18-1.98,0.52-2.83c0.52-0.6,1.49,0.09,2.02-0.9
		c1.07-1.99,0.52-3.3-2.12-4.35c-0.8-0.27-1.56-0.69-2.44-0.62c-0.17,0.01-0.34,0.01-0.51,0.01c-0.97-0.04-1.84,0.37-2.75,0.62
		c-1.44,0.43-2.37,1.49-2.44,2.87c-0.07,1.58,1.33,2.07,2.64,2.43c1.07,1.85,0.36,3.71,0.03,5.57
		C115.45,124.09,115.25,124.44,114.85,124.64z"/>
	<path class="st912" d="M124.42,103.94c1.16-0.11,1.67,0.39,1.52,1.57c-0.24,1.82,0.47,3.7-0.39,5.48c-1.57-2.18-3.7-3.48-6.31-4.03
		c0.25-0.52,1.09-0.8,0.75-1.54c-0.32-0.68-1.04-0.53-1.63-0.55c-1.17-0.04-2.34,0.06-3.5-0.06c-0.59-0.06-1.45,0.11-1.45-0.94
		c0.35-0.3,0.77-0.37,1.2-0.43c2.04,0.04,4.1-0.3,6.11,0.25C121.94,103.98,123.21,103.56,124.42,103.94z"/>
	<path class="st913" d="M133.68,116.15c0.83,0.36,1.11,0.89,0.71,1.79c-0.54,1.22-0.97,2.48-1.45,3.72
		c-1.71,1.04-3.23,0.3-4.74-0.51c-0.33-0.3-0.43-0.69-0.4-1.13c0.05-0.43,0.38-0.69,0.62-1c0.55-1.07,1.1-2.13,1.66-3.2
		c0.1,0.01,0.19,0,0.28-0.05C131.51,115.6,132.57,116.04,133.68,116.15z"/>
	<path class="st914" d="M113.38,104.03c1.88,0.67,3.83,0.17,5.74,0.32c0.74,0.06,1.6-0.25,1.68,1.04c0.08,1.23-0.43,1.65-1.56,1.57
		c-2.68-0.17-4.94,0.84-6.94,2.54c-0.42-1.85-0.14-3.7-0.07-5.56C112.64,103.67,113.02,103.65,113.38,104.03z"/>
	<path class="st915" d="M112.3,103.94c0.64,1.85,0.46,3.71-0.01,5.56c-0.74,1.11-1.48,2.21-2.22,3.32c-0.24,0-0.48,0-0.73,0
		c-0.71-0.75-0.52-1.7-0.54-2.58c-0.05-2.34,0.19-4.7-0.56-6.98c0.35,0.01,0.69,0.02,1.04,0.03
		C110.38,103.11,111.5,102.79,112.3,103.94z"/>
	<path class="st916" d="M114.85,124.64c0.12-0.25,0.24-0.51,0.36-0.76c0.38-1.09,0.41-2.29,1.01-3.31c1.01-0.28,2.01,0.64,3.03,0.04
		c0.44-0.11,0.88-0.34,1.31-0.01c0.49,0.75,0.39,1.63,0.54,2.45c-0.06,0.38-0.24,0.69-0.53,0.94c-0.65,0.5-1.7,0.39-2.03,1.36
		c-0.26,0.42-0.56,0.72-1.09,0.42C116.54,125.5,115.58,125.33,114.85,124.64z"/>
	<path class="st917" d="M131.46,127.86c0.58,0.02,1.17,0.04,1.75,0.07c-0.95,0.58-2,0.25-3,0.27c-3.45,0.08-6.91,0.09-10.37,0.12
		c-0.68-0.18-1.35-0.1-2.02,0.02c-0.62-0.22-1.34,0.06-1.92-0.38c0.04-0.13,0.09-0.27,0.13-0.4c0.59-0.18,0.58-0.86,0.99-1.18
		c0.54,0.41,0.99,1.01,1.8,0.83c0.27,0,0.54,0.04,0.8,0.1c1.18,0.25,2.37,0.05,3.56,0.1c1.83-0.06,3.65-0.01,5.47,0
		c0.75-0.03,1.5-0.03,2.24,0.12C131.12,127.59,131.3,127.7,131.46,127.86z"/>
	<path class="st918" d="M125.99,123.06c0.09-0.01,0.19-0.03,0.28-0.06c0.45-0.25,0.89-0.04,1.33,0.01c0.15,0,0.29-0.01,0.44-0.03
		c0.22-0.07,0.42-0.18,0.62-0.29c0.55-0.29,1.11-0.41,1.68-0.07c0.12,0.12,0.19,0.27,0.21,0.44c-0.32,1.21-2.03,1.07-2.28,2.35
		c-0.16,0.22-0.36,0.38-0.63,0.42c-1-0.5-1.81-1.14-1.95-2.35C125.74,123.32,125.84,123.17,125.99,123.06z"/>
	<path class="st919" d="M118.57,127.55c-1.18,0.49-1.47-0.2-1.55-1.17c0.12-0.11,0.24-0.23,0.36-0.34c0.44-0.21,1.26-0.1,0.89-1.02
		c0.2-1.33,1.33-0.89,2.11-1.12c0.49,0.63,0.49,1.18-0.25,1.61c-0.17,0.21-0.98-0.81-0.66,0.35
		C119.45,126.57,119.24,127.19,118.57,127.55z"/>
	<path class="st920" d="M127.78,123.46c-0.6,0.17-0.99-0.37-1.51-0.45c0.48-1.46,0.13-3.37,2.16-3.98c-0.1,0.25-0.21,0.51-0.31,0.76
		C127.57,120.97,128.93,122.33,127.78,123.46z"/>
	<path class="st921" d="M125.99,123.06c-0.02,0.15-0.04,0.3-0.05,0.44c-0.46,0.12-0.89,0.21-1.24,0.62c-0.37,0.44-0.84,0.41-1.2-0.1
		c-0.19-0.43-0.41-0.85-0.55-1.3c0.58-0.45,1.42-0.43,1.9-1.05C125.41,121.99,126.05,122.24,125.99,123.06z"/>
	<path class="st917" d="M118.28,125.02c0.65,1.17-0.13,1.09-0.89,1.02c0.02-0.09,0.04-0.18,0.06-0.27
		C117.9,125.71,118.22,125.5,118.28,125.02z"/>
	<path class="st922" d="M121.51,99.92c-1.29,0.77-2.71,0.19-4.05,0.36c-1.47,0.19-2.99-0.38-4.42,0.35
		c-0.86,0.65-1.56,0.23-2.24-0.33c-0.61-0.01-1.21-0.01-1.82-0.02c0.54-0.6,1.26-0.35,1.9-0.36
		C114.43,99.9,117.97,99.92,121.51,99.92z"/>
	<path class="st875" d="M115.25,99.18c-0.21-0.03-0.54-0.03-0.47-0.31c0.09-0.39,0.49-0.4,0.83-0.43
		C115.61,98.75,115.55,99.02,115.25,99.18z"/>
	<path class="st923" d="M108.25,103.26c0.83,0.53,1.16,1.25,1.12,2.28c-0.08,2.43-0.02,4.86-0.02,7.28
		c-0.02,0.49,0.01,0.99-0.09,1.46c-0.12,0.57-0.59,0.73-1.13,0.73c-0.45-0.01-0.96-0.06-0.94-0.62c0.11-3.72-0.49-7.46,0.32-11.16
		C107.75,103.24,108,103.25,108.25,103.26z"/>
	<path class="st924" d="M112.3,103.94c-0.92-0.6-2.12,0.06-3.02-0.65c0.25-0.65-0.4-1.68,0.81-1.92c0.14-0.11,0.29-0.2,0.46-0.26
		c0.27-0.05,0.53-0.02,0.8,0.04c0.5,0.16,1.05,0.19,1.45,0.59c0.16,1.06,1.32,1.33,1.73,2.19c-0.38,0.04-0.77,0.07-1.15,0.11
		C113.02,104,112.66,103.97,112.3,103.94z"/>
	<path class="st925" d="M110.46,101.35c-0.12,0.01-0.25,0.01-0.37,0.02c-0.01-0.23-0.01-0.47-0.02-0.7
		c0.29-0.02,0.57-0.06,0.72-0.36c0.75,0.11,1.5,0.22,2.24,0.33c3.07,0.01,6.14,0.02,9.21,0.03c0.11,0.2,0.09,0.38-0.06,0.55
		c-0.31,0.3-0.68,0.48-1.09,0.58c-1.91,0.16-3.82,0.18-5.73-0.01C113.75,101.46,112.11,101.32,110.46,101.35z"/>
	<path class="st926" d="M111.39,98.75c0.12-0.26,0.35-0.31,0.59-0.27c0.23,0.03,0.54,0.05,0.46,0.39c-0.06,0.27-0.34,0.3-0.58,0.27
		C111.63,99.12,111.36,99.11,111.39,98.75z"/>
	<path class="st927" d="M124.42,103.94c-1.22,0.01-2.43,0.01-3.65,0.02c-0.05-0.06-0.09-0.12-0.14-0.19
		c0.05-0.06,0.09-0.12,0.14-0.18c1.25,0.01,2.49,0.02,3.74,0.04C124.49,103.73,124.46,103.84,124.42,103.94z"/>
	<path class="st927" d="M125.2,103.6c0.93-0.73,1.99-0.23,2.99-0.35C127.25,103.85,126.21,103.6,125.2,103.6z"/>
	<path class="st928" d="M128.52,123.15c-0.03,0.21-0.12,0.36-0.37,0.31c-0.29-0.84-0.29-1.69,0-2.53c1.58,0.33,3.11,1.04,4.79,0.74
		c0.12,0,0.25,0,0.37,0.01c0.02,1.11,0.16,2.3-1.53,2.24c-0.33-0.01-0.65-0.02-0.98-0.03c-0.4-0.13-0.23-0.54-0.4-0.79
		c0.01-0.11-0.01-0.22-0.05-0.33C129.66,122.46,129,122.37,128.52,123.15z"/>
	<path class="st927" d="M124.5,101.42c0.85-0.02,1.7-0.03,2.54-0.05c-1.31,0.67-2.73,0.79-4.17,0.75c-1.08-0.03-1.92,0.23-2.09,1.47
		c0,0-0.01,0.01-0.01,0.01c-1.28-0.92-0.7-1.49,0.36-1.97C122.23,101.08,123.39,101.61,124.5,101.42z"/>
	<path class="st929" d="M122.25,101.02c0-0.12,0-0.24,0-0.35c2.08-0.03,4.13-0.61,6.23-0.37c-1.5,0.78-3.14,0.72-4.76,0.74
		C123.24,101.38,122.74,101.47,122.25,101.02z"/>
	<path class="st930" d="M124.5,101.42c-1.07,0.62-2.26,0.17-3.37,0.39c-2.83,0.71-5.66,0.98-8.47-0.06
		c-0.51-0.05-1.08,0.17-1.47-0.37c1.35-0.29,2.7-0.27,4.06-0.01c2.09,0,4.18,0,6.27-0.01c0.73-0.27,1.46-0.22,2.19-0.03
		C123.97,101.37,124.24,101.39,124.5,101.42z"/>
	<path class="st931" d="M123.71,101.34c-0.73,0.01-1.46,0.02-2.19,0.03c0.17-0.29,0.44-0.34,0.74-0.36
		c0.49,0.01,0.99,0.01,1.48,0.02C123.73,101.14,123.72,101.24,123.71,101.34z"/>
	<path class="st932" d="M60.38,36.19c0.44-0.07,0.9-0.21,1.18,0.32c-0.05,0.71-0.46,0.9-1.06,0.68
		C59.86,36.96,60.51,36.52,60.38,36.19z"/>
	<path class="st933" d="M131.07,127.85c-0.73,0-1.47,0-2.2,0c-0.32-0.13-0.55-0.33-0.57-0.7c0.02-0.5,0.17-0.95,0.43-1.37
		c0.12-0.12,0.26-0.17,0.43-0.14c0.73,0.55,1.02,0.21,1.09-0.55c0.06-0.06,0.11-0.11,0.17-0.17c0.48,0.09,0.89,0.28,1.06,0.78
		C131.67,126.48,131.26,127.14,131.07,127.85z"/>
	<path class="st933" d="M130.41,123.09c0.33,0.16,0.32,0.49,0.4,0.79c-0.26,0.3-0.43,0.63-0.38,1.04c0,0-0.08,0.1-0.08,0.1
		c-0.23,0.75-0.95,0.49-1.45,0.7l-0.02,0.01c-0.39,0.16-0.59-0.05-0.72-0.38c-0.16-0.42-0.57-0.83,0.23-1.14
		C129.09,123.93,129.73,123.47,130.41,123.09z"/>
	<path class="st934" d="M131.07,127.85c-0.61-0.86,0.18-1.46,0.42-2.16c0.12,0.01,0.23,0.03,0.34,0.06c0.33,0.78,0.08,1.46-0.37,2.1
		C131.33,127.86,131.2,127.86,131.07,127.85z"/>
	<path class="st935" d="M115.17,118.03c-0.64-0.25-1.32,1.06-1.52,0.39c-0.34-1.12-1.79-1.94-1.29-3.1c0.53-1.24,1.1-2.78,2.93-2.82
		c0.2,0.24,0.24,0.52,0.21,0.81c-0.22,1.02-0.11,2.06-0.12,3.09C115.33,116.94,115.61,117.53,115.17,118.03z"/>
	<path class="st936" d="M121.12,112.45c1.81-0.06,2.58,1.44,3.18,2.63c0.59,1.15-0.83,2.15-1.28,3.24
		c-0.36,0.87-0.89-0.52-1.48-0.33c-0.5-1.36,0.19-2.83-0.38-4.18C121.01,113.36,120.76,112.92,121.12,112.45z"/>
	<path class="st921" d="M118.57,127.55c0.24-0.61,0.49-1.22,0.73-1.83c0.07-0.17,0.19-0.29,0.37-0.36c0.96-0.13,0.67-0.89,0.72-1.47
		c0.12-0.27,0.25-0.53,0.37-0.8c0.22-0.14,0.32-0.52,0.69-0.32c0.26,0.01,0.52,0.03,0.78,0.04c0.42,0.91,0.11,2.03,0.82,2.86
		c0.27,0.24,0.5,0.5,0.45,0.9c-0.09,0.29-0.3,0.46-0.56,0.59c-1.17,0.5-2.42,0.36-3.64,0.39
		C119.07,127.56,118.82,127.56,118.57,127.55z"/>
	<path class="st937" d="M115.23,113.16c0.02-0.22,0.04-0.45,0.06-0.67c0.91-0.48,1.84-0.93,2.92-0.69c0.59,0.59,0.45,1.35,0.48,2.07
		c-0.04,0.81,0.06,1.67-0.66,2.27c-0.17,0.1-0.35,0.13-0.54,0.08c-0.48-0.5-0.63-1.21-1.69-1.21
		C114.47,115.02,115.16,113.88,115.23,113.16z"/>
	<path class="st938" d="M121.12,112.45c0.13,0.37,0.26,0.74,0.38,1.1c0.33,2.06,0.32,2.06-1.45,1.52c-0.35-0.11-0.71-0.14-1.06-0.24
		c-0.27-0.11-0.45-0.31-0.56-0.58c-0.04-0.18-0.05-0.37-0.05-0.55c0.08-0.63-0.19-1.3,0.18-1.9
		C119.53,111.57,120.34,111.98,121.12,112.45z"/>
	<path class="st939" d="M118.94,114.67c0.95-0.72,1.6,0.27,2.49,0.48c0.03-0.56,0.05-1.08,0.07-1.59c0.66,1.47,0.47,2.95,0.04,4.44
		c-0.64,0.89-0.31,1.94-0.48,2.91c-0.53,0.1-0.42-0.42-0.63-0.63c-0.26-0.38-0.33-0.79-0.25-1.24c0.1-0.66,0.53-1.21,0.57-2.01
		c-0.84-0.19-1.81-0.27-2.08-1.35C118.6,115.29,118.63,114.94,118.94,114.67z"/>
	<path class="st940" d="M117.47,116.14c0.12,0,0.24,0,0.35,0c0.48,0.73-0.1,1.15-0.49,1.61c-1.05,0.68-0.82,1.83-1.01,2.82
		c-0.34,1.11-0.49,2.29-1.12,3.31c0.05-1.95,0.9-3.9-0.04-5.85c-0.09-0.51-0.18-1.01-0.28-1.52c0.24-0.27,0.55-0.38,0.9-0.41
		c0.32-0.03,0.65-0.02,0.97-0.02C117,116.06,117.23,116.11,117.47,116.14z"/>
	<path class="st941" d="M122.6,126.05c-0.38-1.05-0.97-2.07-0.36-3.22c0.24-0.03,0.47-0.06,0.71-0.1c0.71,0.08,0.83,0.56,0.78,1.15
		c-0.23,0.24-0.06,0.6-0.23,0.86c-0.19,0.33-0.38,0.66-0.57,0.99C122.83,125.84,122.72,125.95,122.6,126.05z"/>
	<path class="st942" d="M120.78,120.23c0.09,0.22,0.19,0.45,0.28,0.67c0.13,0.63,0.27,1.25,0.4,1.88c-0.23,0.11-0.46,0.21-0.69,0.32
		c0.14-0.88-0.16-1.71-0.36-2.54C120.35,120.24,120.4,120.06,120.78,120.23z"/>
	<path class="st943" d="M118.57,111.8c0,0.71,0,1.41,0,2.12c-0.11,0.17-0.22,0.17-0.34,0.01c-0.01-0.71-0.01-1.42-0.02-2.12
		C118.33,111.81,118.45,111.81,118.57,111.8z"/>
	<path class="st944" d="M112.66,101.75c2.82,0.02,5.65,0.04,8.47,0.06c-0.56,0.51-1.15,1.01-0.36,1.79c0,0.12,0,0.24,0,0.36
		c-2.08-0.01-4.16-0.02-6.25-0.03C113.43,103.61,112.21,103.4,112.66,101.75z"/>
	<path class="st945" d="M128.15,120.92c0,0.84,0,1.69,0,2.53c-0.12,0-0.25,0-0.37,0c0.12-1.22-0.38-2.5,0.34-3.67
		C128.13,120.17,128.14,120.54,128.15,120.92z"/>
	<path class="st946" d="M116.32,120.57c-0.6-1.2-0.63-2.26,0.73-2.99c0.27,0.04,0.44,0.2,0.56,0.44c0.13,0.46,0.23,0.93,0.43,1.37
		c0.17,0.28-0.13,1.07,0.7,0.62c0.4,0.18,0.76,0.38,0.57,0.92C118.19,121.77,117.26,121.17,116.32,120.57z"/>
	<path class="st947" d="M119.3,120.93c-0.14-0.35-0.38-0.6-0.73-0.74c-0.23-0.32-0.06-0.63,0.03-0.94c0.2-0.46,0.31-0.97,0.58-1.4
		c0.18-0.21,0.4-0.36,0.69-0.36c0.84,0.28,0.79,0.9,0.61,1.58c0.1,0.39,0.2,0.77,0.3,1.16c-0.12,0.11-0.25,0.22-0.37,0.33
		C120.04,120.68,119.67,120.8,119.3,120.93z"/>
	<path class="st948" d="M123.36,124.61c0-0.3,0.07-0.57,0.36-0.73c0.42,0.53,0.83,0.28,0.9-0.17c0.25-1.62,0.81-0.55,1.31-0.2
		c0.4,0.91,1.16,1.54,1.84,2.21c0.14,0.13,0.3,0.37,0.22,0.45c-0.83,0.86,0.33,0.68,0.51,1.01c0.12,0.22,0.24,0.45,0.35,0.67
		c-1.96,0-3.91,0-5.87,0c-0.13-0.35,0.04-0.59,0.3-0.8c0.42-0.22,0.68-0.6,0.98-0.95c0.17-0.26,0.6-0.46,0.18-0.85
		c-0.25-0.14-0.52-0.23-0.78-0.35C123.55,124.84,123.44,124.74,123.36,124.61z"/>
	<path class="st949" d="M123.35,127.2c-0.12,0.22-0.24,0.44-0.36,0.66c-1.23-0.09-2.5,0.41-3.68-0.29c1.14-0.63,2.47-0.33,3.66-0.73
		C123.12,126.94,123.33,126.97,123.35,127.2z"/>
	<path class="st950" d="M128.51,127.18c-1.94,0.36-0.45-1-0.73-1.46c0.13-0.12,0.25-0.25,0.38-0.37c0.24,0.13,0.48,0.26,0.72,0.38
		C128.94,126.26,128.76,126.73,128.51,127.18z"/>
	<path class="st945" d="M128.52,123.15c0.39-1.18,1.1-0.87,1.84-0.38C129.69,122.6,129.07,122.69,128.52,123.15z"/>
	<path class="st951" d="M119.67,125.36c-0.12,0.12-0.25,0.24-0.37,0.36c-0.32-0.24-0.46-0.53-0.2-0.89c0.15-0.2,0.44-0.3,0.6-0.1
		C119.8,124.86,119.69,125.15,119.67,125.36z"/>
	<path class="st931" d="M115.25,101.38c-1.35,0-2.7,0.01-4.06,0.01c-0.24-0.01-0.49-0.03-0.73-0.04
		C112.06,100.83,113.66,100.78,115.25,101.38z"/>
	<path class="st952" d="M128.9,125.72c0.36-0.49,1-0.4,1.45-0.7c0.37,0.6,0.62,1.15-0.26,1.57
		C129.1,127.05,129.39,125.87,128.9,125.72z"/>
	<path class="st953" d="M116.01,116.49c-0.37,0.01-0.75,0.02-1.12,0.02c0.11-1.12-0.37-2.29,0.34-3.35
		c0.03,0.53,0.07,1.06,0.11,1.74c1.58-0.88,2.4-0.62,2.13,1.24c-0.14,0.11-0.28,0.23-0.42,0.34
		C116.7,116.12,116.35,116.13,116.01,116.49z"/>
	<path class="st954" d="M123.72,124.61c0.31,0.01,0.58,0.07,0.74,0.37c0.41,0.47,0.07,0.8-0.21,1.15c-0.24,0.29-0.5,0.51-0.9,0.32
		c-0.16-0.3-0.45-0.37-0.75-0.41c0.01-0.11,0.01-0.22,0.01-0.33C123,125.35,123.5,125.13,123.72,124.61z"/>
	<path class="st955" d="M123.36,126.46c0.24-0.12,0.49-0.25,0.73-0.37c0.23,0.02,0.26,0.23,0.37,0.37
		c-0.21,0.49-0.58,0.74-1.11,0.74c-0.13-0.12-0.25-0.24-0.38-0.36C123.1,126.71,123.23,126.58,123.36,126.46z"/>
	<path class="st956" d="M119.69,117.6c-0.17,0.16-0.34,0.31-0.5,0.47c-0.57,0.4-1.14,0.42-1.69-0.05c-0.15-0.14-0.3-0.29-0.45-0.43
		c0.3-0.46,0.83-0.79,0.77-1.45c0.44-0.68,0.34-1.45,0.41-2.2c0.11-0.01,0.23-0.01,0.34-0.01c0.01,0.12,0.02,0.23,0.01,0.35
		c0.38,0.53-0.07,1.23,0.38,1.74C119.07,116.6,119.9,116.86,119.69,117.6z"/>
	<path class="st943" d="M118.89,116.14c-0.54-0.55-0.27-1.24-0.32-1.87c0.12,0.13,0.24,0.27,0.36,0.4c0.01,0.36,0.02,0.73,0.03,1.09
		C119.1,115.92,119.07,116.05,118.89,116.14z"/>
	<path class="st942" d="M118.89,116.14c0.03-0.13,0.05-0.25,0.08-0.38c0.21,0.21,0.43,0.61,0.63,0.6c3.39-0.08,1.01,1.67,0.88,2.7
		c-0.07-0.6-0.13-1.19-0.79-1.47C119.39,117.13,118.93,116.75,118.89,116.14z"/>
	<path class="st957" d="M116.01,116.49c0.02-0.39,0.1-0.74,0.6-0.68c0.4,0.04,0.42,0.36,0.44,0.67
		C116.7,116.48,116.36,116.48,116.01,116.49z"/>
	<path class="st958" d="M123.72,124.61c0.5,1.24-0.43,1.04-1.1,1.1c0-0.53,0.25-0.9,0.74-1.1
		C123.48,124.61,123.6,124.61,123.72,124.61z"/>
	<path class="st959" d="M117.5,118.01c0.56,0.02,1.12,0.03,1.69,0.05c0.22,0.51,0.04,0.93-0.28,1.33c-0.32,0.37-0.69,0.36-1.09,0.14
		C117.23,119.12,117.16,118.61,117.5,118.01z"/>
	<path class="st960" d="M117.82,119.53c0.36-0.05,0.73-0.1,1.09-0.14c-0.11,0.27-0.23,0.53-0.34,0.8
		C117.78,120.58,117.82,120.03,117.82,119.53z"/>
	<path class="st961" d="M124.46,126.46c-0.12-0.12-0.25-0.25-0.37-0.37c0.13-0.37,0.25-0.73,0.38-1.1c0.34,0.03,0.82-0.12,0.92,0.31
		C125.56,125.99,124.67,125.98,124.46,126.46z"/>
</g>
</svg>
