<?xml version="1.0" encoding="utf-8"?>
<!-- Generator: Adobe Illustrator 26.1.0, SVG Export Plug-In . SVG Version: 6.00 Build 0)  -->
<svg version="1.1" id="Camada_1" xmlns="http://www.w3.org/2000/svg" xmlns:xlink="http://www.w3.org/1999/xlink" x="0px" y="0px"
	 viewBox="0 0 190 190" style="enable-background:new 0 0 190 190;" xml:space="preserve">
<style type="text/css">
	.st0{fill:#5A2BAF;}
	.st1{fill:#273339;}
	.st2{fill:#27333A;}
	.st3{fill:#28333A;}
	.st4{fill:#263338;}
	.st5{fill:#2D383E;}
	.st6{fill:#2A3339;}
	.st7{fill:#343E3F;}
	.st8{fill:#D5F7FE;}
	.st9{fill:#000506;}
	.st10{fill:#283439;}
	.st11{fill:#2E383F;}
	.st12{fill:#384147;}
	.st13{fill:#384349;}
	.st14{fill:#293438;}
	.st15{fill:#B1CCCE;}
	.st16{fill:#152127;}
	.st17{fill:#D6F7FE;}
	.st18{fill:#2B363E;}
	.st19{fill:#344046;}
	.st20{fill:#2E383D;}
	.st21{fill:#94A6AC;}
	.st22{fill:#D4F3F9;}
	.st23{fill:#D4F5F9;}
	.st24{fill:#A8C1C8;}
	.st25{fill:#000205;}
	.st26{fill:#00030A;}
	.st27{fill:#36434A;}
	.st28{fill:#3B464D;}
	.st29{fill:#1B252A;}
	.st30{fill:#2F3943;}
	.st31{fill:#00060E;}
	.st32{fill:#D7F8FD;}
	.st33{fill:#000408;}
	.st34{fill:#A8C0C6;}
	.st35{fill:#A6C0C5;}
	.st36{fill:#D5F1F6;}
	.st37{fill:#01040A;}
	.st38{fill:#01040B;}
	.st39{fill:#1F2B30;}
	.st40{fill:#000409;}
	.st41{fill:#1E272A;}
	.st42{fill:#000508;}
	.st43{fill:#242B31;}
	.st44{fill:#000209;}
	.st45{fill:#00030C;}
	.st46{fill:#000207;}
	.st47{fill:#00050E;}
	.st48{fill:#D4F9FD;}
	.st49{fill:#2C393E;}
	.st50{fill:#8DAAAE;}
	.st51{fill:#192F34;}
	.st52{fill:#030E0F;}
	.st53{fill:#00040A;}
	.st54{fill:#01090E;}
	.st55{fill:#1F2D2E;}
	.st56{fill:#000307;}
	.st57{fill:#19272C;}
	.st58{fill:#202A32;}
	.st59{fill:#000507;}
	.st60{fill:#17242E;}
	.st61{fill:#02060C;}
	.st62{fill:#15202A;}
	.st63{fill:#182022;}
	.st64{fill:#000208;}
	.st65{fill:#AEC0C5;}
	.st66{fill:#00060A;}
	.st67{fill:#00040B;}
	.st68{fill:#031115;}
	.st69{fill:#030A12;}
	.st70{fill:#222D35;}
	.st71{fill:#162224;}
	.st72{fill:#020810;}
	.st73{fill:#01090F;}
	.st74{fill:#01070D;}
	.st75{fill:#030C12;}
	.st76{fill:#FDDDB4;}
	.st77{fill:#FEFEFE;}
	.st78{fill:#CC8643;}
	.st79{fill:#CF8141;}
	.st80{fill:#C9ECF4;}
	.st81{fill:#FCDDB4;}
	.st82{fill:#BAA88F;}
	.st83{fill:#9C693F;}
	.st84{fill:#C9EBF4;}
	.st85{fill:#9B693E;}
	.st86{fill:#CDF0F6;}
	.st87{fill:#996D41;}
	.st88{fill:#C99D78;}
	.st89{fill:#CC8645;}
	.st90{fill:#CA8644;}
	.st91{fill:#CC8745;}
	.st92{fill:#FBFCFC;}
	.st93{fill:#283338;}
	.st94{fill:#283238;}
	.st95{fill:#A48C75;}
	.st96{fill:#FCC01E;}
	.st97{fill:#BB941D;}
	.st98{fill:#BFDCF1;}
	.st99{fill:#1CBACE;}
	.st100{fill:#A1734A;}
	.st101{fill:#9A7149;}
	.st102{fill:#D3A37C;}
	.st103{fill:#2B3437;}
	.st104{fill:#222821;}
	.st105{fill:#C68748;}
	.st106{fill:#BA972C;}
	.st107{fill:#374247;}
	.st108{fill:#24333C;}
	.st109{fill:#CB9D77;}
	.st110{fill:#363D43;}
	.st111{fill:#2D6F7E;}
	.st112{fill:#2D3B3F;}
	.st113{fill:#0E1F29;}
	.st114{fill:#000606;}
	.st115{fill:#8F8044;}
	.st116{fill:#2E3636;}
	.st117{fill:#201F08;}
	.st118{fill:#2C3640;}
	.st119{fill:#308091;}
	.st120{fill:#CEA67E;}
	.st121{fill:#546471;}
	.st122{fill:#546169;}
	.st123{fill:#B8977D;}
	.st124{fill:#27343C;}
	.st125{fill:#313F47;}
	.st126{fill:#394145;}
	.st127{fill:#213640;}
	.st128{fill:#293130;}
	.st129{fill:#0F1D29;}
	.st130{fill:#CC9F7A;}
	.st131{fill:#C89973;}
	.st132{fill:#926844;}
	.st133{fill:#C0874C;}
	.st134{fill:#31331E;}
	.st135{fill:#2D3944;}
	.st136{fill:#BE9672;}
	.st137{fill:#181F16;}
	.st138{fill:#22364D;}
	.st139{fill:#2E2D2A;}
	.st140{fill:#1B2625;}
	.st141{fill:#2C2F2D;}
	.st142{fill:#0D1316;}
	.st143{fill:#203845;}
	.st144{fill:#4E4B47;}
	.st145{fill:#34332E;}
	.st146{fill:#2F3232;}
	.st147{fill:#323B40;}
	.st148{fill:#B38C6B;}
	.st149{fill:#020407;}
	.st150{fill:#E7BB27;}
	.st151{fill:#1F3640;}
	.st152{fill:#24221E;}
	.st153{fill:#223545;}
	.st154{fill:#131717;}
	.st155{fill:#1C2225;}
	.st156{fill:#303940;}
	.st157{fill:#C29472;}
	.st158{fill:#C19F87;}
	.st159{fill:#1F3441;}
	.st160{fill:#272825;}
	.st161{fill:#1C343F;}
	.st162{fill:#110C07;}
	.st163{fill:#323B43;}
	.st164{fill:#121418;}
	.st165{fill:#000509;}
	.st166{fill:#ABBEC0;}
	.st167{fill:#2E3D45;}
	.st168{fill:#333D43;}
	.st169{fill:#232C2C;}
	.st170{fill:#262828;}
	.st171{fill:#2B3230;}
	.st172{fill:#010408;}
	.st173{fill:#343B40;}
	.st174{fill:#0A0F14;}
	.st175{fill:#2E3D43;}
	.st176{fill:#161C1C;}
	.st177{fill:#272922;}
	.st178{fill:#242727;}
	.st179{fill:#1D221E;}
	.st180{fill:#313B40;}
	.st181{fill:#32393F;}
	.st182{fill:#CDF1F7;}
	.st183{fill:#010102;}
	.st184{fill:#030404;}
	.st185{fill:#1B1D1A;}
	.st186{fill:#000308;}
	.st187{fill:#B89274;}
	.st188{fill:#33393C;}
	.st189{fill:#010306;}
	.st190{fill:#BA9675;}
	.st191{fill:#000502;}
	.st192{fill:#2D2F2F;}
	.st193{fill:#C7966C;}
	.st194{fill:#1B2120;}
	.st195{fill:#010508;}
	.st196{fill:#02070B;}
	.st197{fill:#343D3A;}
	.st198{fill:#202421;}
	.st199{fill:#01060B;}
	.st200{fill:#343C42;}
	.st201{fill:#56524F;}
	.st202{fill:#060300;}
	.st203{fill:#20201D;}
	.st204{fill:#181D1D;}
	.st205{fill:#272C2B;}
	.st206{fill:#181C1E;}
	.st207{fill:#000206;}
	.st208{fill:#1B271F;}
	.st209{fill:#3A323E;}
	.st210{fill:#000309;}
	.st211{fill:#010407;}
	.st212{fill:#03070C;}
	.st213{fill:#171E25;}
	.st214{fill:#01060C;}
	.st215{fill:#06080C;}
	.st216{fill:#2E2822;}
	.st217{fill:#010308;}
	.st218{fill:#7F6C57;}
	.st219{fill:#020C14;}
	.st220{fill:#080B0C;}
	.st221{fill:#C1966B;}
	.st222{fill:#1B2526;}
	.st223{fill:#352715;}
	.st224{fill:#1E2819;}
	.st225{fill:#242C2D;}
	.st226{fill:#2A2E2D;}
	.st227{fill:#282624;}
	.st228{fill:#030B0F;}
	.st229{fill:#050100;}
	.st230{fill:#060909;}
	.st231{fill:#182025;}
	.st232{fill:#7A6A5A;}
	.st233{fill:#0D0C0C;}
	.st234{fill:#0B1720;}
	.st235{fill:#07BAD4;}
	.st236{fill:#FEFEFD;}
	.st237{fill:#1191A5;}
	.st238{fill:#996D40;}
	.st239{fill:#BC951E;}
	.st240{fill:#15BDD4;}
	.st241{fill:#CEF0F6;}
	.st242{fill:#0BB3C8;}
	.st243{fill:#15202B;}
	.st244{fill:#BE951C;}
	.st245{fill:#187585;}
	.st246{fill:#8F8041;}
	.st247{fill:#212108;}
	.st248{fill:#BB982C;}
	.st249{fill:#F9BE16;}
	.st250{fill:#EFB714;}
	.st251{fill:#F9BD12;}
	.st252{fill:#0BB8CE;}
	.st253{fill:#253239;}
	.st254{fill:#18B7CE;}
	.st255{fill:#BB9729;}
	.st256{fill:#928143;}
	.st257{fill:#242107;}
	.st258{fill:#233337;}
	.st259{fill:#FCC31E;}
	.st260{fill:#33ACBB;}
	.st261{fill:#13BCD5;}
	.st262{fill:#00323A;}
	.st263{fill:#233940;}
	.st264{fill:#09161B;}
	.st265{fill:#001F25;}
	.st266{fill:#DBA811;}
	.st267{fill:#2A393F;}
	.st268{fill:#F7BD13;}
	.st269{fill:#24332C;}
	.st270{fill:#AE9243;}
	.st271{fill:#BD9A2C;}
	.st272{fill:#B9982A;}
	.st273{fill:#1D343F;}
	.st274{fill:#EBC03E;}
	.st275{fill:#18303A;}
	.st276{fill:#957B46;}
	.st277{fill:#819398;}
	.st278{fill:#2D3942;}
	.st279{fill:#168C9D;}
	.st280{fill:#0D0705;}
	.st281{fill:#E5BD3E;}
	.st282{fill:#DDB62E;}
	.st283{fill:#172832;}
	.st284{fill:#2D3740;}
	.st285{fill:#344049;}
	.st286{fill:#313939;}
	.st287{fill:#1B1E22;}
	.st288{fill:#191E1A;}
	.st289{fill:#263349;}
	.st290{fill:#313C3F;}
	.st291{fill:#313C40;}
	.st292{fill:#00050A;}
	.st293{fill:#7F6E26;}
	.st294{fill:#715D12;}
	.st295{fill:#1F3650;}
	.st296{fill:#1D220E;}
	.st297{fill:#000104;}
	.st298{fill:#191C1E;}
	.st299{fill:#14201A;}
	.st300{fill:#131A18;}
	.st301{fill:#20364B;}
	.st302{fill:#2F3A40;}
	.st303{fill:#313B42;}
	.st304{fill:#2E2D0B;}
	.st305{fill:#313A42;}
	.st306{fill:#181816;}
	.st307{fill:#00313D;}
	.st308{fill:#001B27;}
	.st309{fill:#100B03;}
	.st310{fill:#26384C;}
	.st311{fill:#E5B117;}
	.st312{fill:#323B3F;}
	.st313{fill:#13171C;}
	.st314{fill:#283551;}
	.st315{fill:#36343B;}
	.st316{fill:#28353D;}
	.st317{fill:#2B344D;}
	.st318{fill:#062A32;}
	.st319{fill:#0A2E35;}
	.st320{fill:#383133;}
	.st321{fill:#1E2927;}
	.st322{fill:#010207;}
	.st323{fill:#010406;}
	.st324{fill:#181905;}
	.st325{fill:#233550;}
	.st326{fill:#0B2A33;}
	.st327{fill:#191D0C;}
	.st328{fill:#2E2722;}
	.st329{fill:#1F1B07;}
	.st330{fill:#05060A;}
	.st331{fill:#181D23;}
	.st332{fill:#2E2001;}
	.st333{fill:#001E1E;}
	.st334{fill:#062D3C;}
	.st335{fill:#072A2D;}
	.st336{fill:#EEF2F3;}
	.st337{fill:#0D1014;}
	.st338{fill:#020509;}
	.st339{fill:#030709;}
	.st340{fill:#02070E;}
	.st341{fill:#303D44;}
	.st342{fill:#01040C;}
	.st343{fill:#313E43;}
	.st344{fill:#323B41;}
	.st345{fill:#313D43;}
	.st346{fill:#020B0F;}
	.st347{fill:#00030B;}
	.st348{fill:#02090E;}
	.st349{fill:#232B33;}
	.st350{fill:#333942;}
	.st351{fill:#333C40;}
	.st352{fill:#020D14;}
	.st353{fill:#1B272E;}
	.st354{fill:#23333E;}
	.st355{fill:#050A12;}
	.st356{fill:#040D18;}
	.st357{fill:#293743;}
	.st358{fill:#243033;}
	.st359{fill:#FABE10;}
	.st360{fill:#29353F;}
	.st361{fill:#2F383E;}
	.st362{fill:#1C1F0C;}
	.st363{fill:#01040D;}
	.st364{fill:#20344D;}
	.st365{fill:#303841;}
	.st366{fill:#000407;}
	.st367{fill:#19242A;}
	.st368{fill:#071015;}
	.st369{fill:#339DA8;}
	.st370{fill:#002127;}
	.st371{fill:#243941;}
	.st372{fill:#05BCD5;}
	.st373{fill:#967417;}
	.st374{fill:#000107;}
	.st375{fill:#323D41;}
	.st376{fill:#FAC432;}
	.st377{fill:#283651;}
	.st378{fill:#121209;}
	.st379{fill:#F4BD21;}
	.st380{fill:#E4BB3F;}
	.st381{fill:#70590C;}
	.st382{fill:#7E6B28;}
	.st383{fill:#BC9010;}
	.st384{fill:#141B19;}
	.st385{fill:#342F33;}
	.st386{fill:#27364C;}
	.st387{fill:#23354C;}
	.st388{fill:#161912;}
	.st389{fill:#BD982F;}
	.st390{fill:#1D2718;}
	.st391{fill:#C78146;}
	.st392{fill:#35383E;}
	.st393{fill:#8D6A4B;}
	.st394{fill:#2D2D2A;}
	.st395{fill:#02060E;}
	.st396{fill:#15BCD4;}
	.st397{fill:#1C95A8;}
	.st398{fill:#1E96A8;}
	.st399{fill:#2C393F;}
	.st400{fill:#100808;}
	.st401{fill:#947945;}
	.st402{fill:#2B3B42;}
	.st403{fill:#D6B44C;}
	.st404{fill:#2B4C4F;}
	.st405{fill:#3B2A00;}
	.st406{fill:#34BECD;}
	.st407{fill:#01070A;}
	.st408{fill:#030C11;}
	.st409{fill:#2F2E2D;}
	.st410{fill:#121C21;}
	.st411{fill:#2D333B;}
	.st412{fill:#96AEB4;}
	.st413{fill:#72868D;}
	.st414{fill:#293238;}
	.st415{fill:#2C3439;}
	.st416{fill:#E21E27;}
	.st417{fill:#C58240;}
	.st418{fill:#333B40;}
	.st419{fill:#2F383C;}
	.st420{fill:#2A2F2B;}
	.st421{fill:#F8DCB6;}
	.st422{fill:#020102;}
	.st423{fill:#112126;}
	.st424{fill:#020200;}
	.st425{fill:#3D2F26;}
	.st426{fill:#2E3438;}
	.st427{fill:#2A231A;}
	.st428{fill:#080A0B;}
	.st429{fill:#AB9378;}
	.st430{fill:#AD9881;}
	.st431{fill:#18140E;}
	.st432{fill:#BDDBF3;}
	.st433{fill:#BDDCF4;}
	.st434{fill:#C3DDED;}
	.st435{fill:#BDDBF2;}
	.st436{fill:#BFDBF1;}
	.st437{fill:#020609;}
	.st438{fill:#161A1D;}
	.st439{fill:#171A1D;}
	.st440{fill:#1A2024;}
	.st441{fill:#D47751;}
	.st442{fill:#1E2D31;}
	.st443{fill:#2B1E19;}
	.st444{fill:#1F2621;}
	.st445{fill:#292924;}
	.st446{fill:#1C1C22;}
	.st447{fill:#C69158;}
	.st448{fill:#BEDBF1;}
	.st449{fill:#273338;}
	.st450{fill:#DA5455;}
	.st451{fill:#D08D4E;}
	.st452{fill:#2A3134;}
	.st453{fill:#35281C;}
	.st454{fill:#1F2624;}
	.st455{fill:#1F2322;}
	.st456{fill:#241C15;}
	.st457{fill:#161C1A;}
	.st458{fill:#CD854A;}
	.st459{fill:#D38A51;}
	.st460{fill:#BEDBF2;}
	.st461{fill:#FCFEFD;}
	.st462{fill:#CD955C;}
	.st463{fill:#050E12;}
	.st464{fill:#C4AB8A;}
	.st465{fill:#FCBF11;}
	.st466{fill:#FDC21D;}
	.st467{fill:#DDA913;}
	.st468{fill:#203540;}
	.st469{fill:#21374D;}
	.st470{fill:#F5BD2B;}
	.st471{fill:#15140A;}
	.st472{fill:#293853;}
	.st473{fill:#0E0D02;}
	.st474{fill:#2F4258;}
	.st475{fill:#323C42;}
	.st476{fill:#DBB533;}
	.st477{fill:#171B20;}
	.st478{fill:#27374C;}
	.st479{fill:#212219;}
	.st480{fill:#25260C;}
	.st481{fill:#233549;}
	.st482{fill:#2A1F03;}
	.st483{fill:#2C2726;}
	.st484{fill:#21282A;}
	.st485{fill:#222829;}
	.st486{fill:#FCFAF8;}
	.st487{fill:#D08D4F;}
	.st488{fill:#CD8C50;}
	.st489{fill:#CA9460;}
	.st490{fill:#1D3240;}
	.st491{fill:#DEA813;}
	.st492{fill:#BD9215;}
	.st493{fill:#B39035;}
	.st494{fill:#DDAA06;}
	.st495{fill:#08BCD4;}
	.st496{fill:#01BCD3;}
	.st497{fill:#CB8143;}
	.st498{fill:#2F2C26;}
	.st499{fill:#161F16;}
	.st500{fill:#2E373D;}
	.st501{fill:#CE884D;}
	.st502{fill:#51D0DE;}
	.st503{fill:#08BCDA;}
	.st504{fill:#16BED6;}
	.st505{fill:#17BFD7;}
	.st506{fill:#51D2E5;}
	.st507{fill:#2EC8DE;}
	.st508{fill:#0CB5CD;}
	.st509{fill:#BCDAF2;}
	.st510{fill:#BDDCF2;}
	.st511{fill:#25282D;}
	.st512{fill:#374147;}
	.st513{fill:#0291A6;}
	.st514{fill:#09B7D0;}
	.st515{fill:#0990A2;}
	.st516{fill:#10ABC1;}
	.st517{fill:#C09311;}
	.st518{fill:#BD9214;}
	.st519{fill:#BE9013;}
	.st520{fill:#BF940F;}
	.st521{fill:#39454A;}
	.st522{fill:#030912;}
	.st523{fill:#FDBF12;}
	.st524{fill:#C19B2A;}
	.st525{fill:#C09216;}
	.st526{fill:#BC9012;}
	.st527{fill:#C09314;}
	.st528{fill:#F8C329;}
	.st529{fill:#FEBE00;}
	.st530{fill:#319CA8;}
	.st531{fill:#02BEDA;}
	.st532{fill:#493D11;}
	.st533{fill:#FCFAF0;}
	.st534{fill:#9E8635;}
	.st535{fill:#BE9212;}
	.st536{fill:#BD951C;}
	.st537{fill:#FCFEFE;}
	.st538{fill:#FDFEFD;}
	.st539{fill:#FDC72B;}
	.st540{fill:#2199AD;}
	.st541{fill:#10ACBE;}
	.st542{fill:#078F9E;}
	.st543{fill:#FDBE12;}
	.st544{fill:#F8BD13;}
	.st545{fill:#FEBE06;}
	.st546{fill:#D2884D;}
	.st547{fill:#FCFDFD;}
	.st548{fill:#0D1B23;}
	.st549{fill:#263442;}
	.st550{fill:#8A3031;}
	.st551{fill:#C53033;}
	.st552{fill:#FCD3D5;}
	.st553{fill:#E0585B;}
	.st554{fill:#2F3D48;}
	.st555{fill:#EF6390;}
	.st556{fill:#B05677;}
	.st557{fill:#F3E1EA;}
	.st558{fill:#D47E9F;}
	.st559{fill:#DA88A6;}
	.st560{fill:#DD90AD;}
	.st561{fill:#744459;}
	.st562{fill:#1E2028;}
	.st563{fill:#2E1123;}
	.st564{fill:#F02838;}
	.st565{fill:#F2F2F4;}
	.st566{fill:#233846;}
	.st567{fill:#1B3845;}
	.st568{fill:#EFF0F0;}
	.st569{fill:#1F3543;}
	.st570{fill:#FDC52B;}
	.st571{fill:#976F13;}
	.st572{fill:#A3801D;}
	.st573{fill:#FAC42B;}
	.st574{fill:#DFAD22;}
	.st575{fill:#B99520;}
	.st576{fill:#17BED7;}
	.st577{fill:#16BFD6;}
	.st578{fill:#57D0DF;}
	.st579{fill:#BC9822;}
	.st580{fill:#BB9527;}
	.st581{fill:#FCFBF5;}
	.st582{fill:#B25575;}
	.st583{fill:#C1F3F5;}
	.st584{fill:#F78F6D;}
	.st585{fill:#6B71C7;}
	.st586{fill:#793348;}
	.st587{fill:#FECAAC;}
	.st588{fill:#D46C68;}
	.st589{fill:#C2F3F4;}
	.st590{fill:#63365B;}
	.st591{fill:#BD4E5B;}
	.st592{fill:#C0505B;}
	.st593{fill:#9F5A62;}
	.st594{fill:#FB7E9D;}
	.st595{fill:#07C2F7;}
	.st596{fill:#51274B;}
	.st597{fill:#14D2C3;}
	.st598{fill:#BF505C;}
	.st599{fill:#0AE1D6;}
	.st600{fill:#0BE2D6;}
	.st601{fill:#16C2F2;}
	.st602{fill:#0FC1F3;}
	.st603{fill:#17C0EE;}
	.st604{fill:#05CBC2;}
	.st605{fill:#1EBFF0;}
	.st606{fill:#51D2C8;}
	.st607{fill:#B9F4F4;}
	.st608{fill:#13CEC6;}
	.st609{fill:#DE9073;}
	.st610{fill:#1DBEEE;}
	.st611{fill:#C9E5E7;}
	.st612{fill:#32D1C4;}
	.st613{fill:#B65D64;}
	.st614{fill:#2DC2EC;}
	.st615{fill:#0ED4C5;}
	.st616{fill:#43D4CB;}
	.st617{fill:#B0706A;}
	.st618{fill:#FCF4ED;}
	.st619{fill:#B56769;}
	.st620{fill:#571626;}
	.st621{fill:#925559;}
	.st622{fill:#6063AF;}
	.st623{fill:#35D0C4;}
	.st624{fill:#7377BA;}
	.st625{fill:#696EB5;}
	.st626{fill:#5AD1C8;}
	.st627{fill:#DEF8FB;}
	.st628{fill:#ED7B97;}
	.st629{fill:#6066A0;}
	.st630{fill:#B3606A;}
	.st631{fill:#3DBEEB;}
	.st632{fill:#33C2EC;}
	.st633{fill:#BA6B68;}
	.st634{fill:#A04349;}
	.st635{fill:#854F55;}
	.st636{fill:#A0434C;}
	.st637{fill:#66E3DE;}
	.st638{fill:#6FE6DD;}
	.st639{fill:#FDCAAC;}
	.st640{fill:#5C4291;}
	.st641{fill:#6271B6;}
	.st642{fill:#6776B8;}
	.st643{fill:#482035;}
	.st644{fill:#6578B3;}
	.st645{fill:#9ABFC4;}
	.st646{fill:#8B5457;}
	.st647{fill:#FECAAB;}
	.st648{fill:#BD4F5A;}
	.st649{fill:#E86165;}
	.st650{fill:#BB505C;}
	.st651{fill:#AE4058;}
	.st652{fill:#6D6FC3;}
	.st653{fill:#502549;}
	.st654{fill:#F8A993;}
	.st655{fill:#B03F57;}
	.st656{fill:#5E4390;}
	.st657{fill:#FBBD6F;}
	.st658{fill:#6C6EC1;}
	.st659{fill:#BD5055;}
	.st660{fill:#C0515B;}
	.st661{fill:#F5B975;}
	.st662{fill:#C05257;}
	.st663{fill:#63375E;}
	.st664{fill:#7071C2;}
	.st665{fill:#602A42;}
	.st666{fill:#BA4C52;}
	.st667{fill:#FCA8A7;}
	.st668{fill:#58499A;}
	.st669{fill:#E58B76;}
	.st670{fill:#3F0315;}
	.st671{fill:#E4626B;}
	.st672{fill:#5F5098;}
	.st673{fill:#BE5151;}
	.st674{fill:#FD8B65;}
	.st675{fill:#BF5250;}
	.st676{fill:#B24545;}
	.st677{fill:#BA4D4D;}
	.st678{fill:#F0A58A;}
	.st679{fill:#F1A68D;}
	.st680{fill:#4F2549;}
	.st681{fill:#BC5354;}
	.st682{fill:#622A46;}
	.st683{fill:#985767;}
	.st684{fill:#F5937E;}
	.st685{fill:#5E2843;}
	.st686{fill:#4F1A2C;}
	.st687{fill:#C95F50;}
	.st688{fill:#B2514E;}
	.st689{fill:#F4957D;}
	.st690{fill:#3D0F2D;}
	.st691{fill:#56366B;}
	.st692{fill:#EFAC8C;}
	.st693{fill:#B54A48;}
	.st694{fill:#671611;}
	.st695{fill:#F7D0C1;}
	.st696{fill:#AB646D;}
	.st697{fill:#AED3DB;}
	.st698{fill:#8DADB7;}
	.st699{fill:#DAF6FC;}
	.st700{fill:#7D99A6;}
	.st701{fill:#708D9C;}
	.st702{fill:#432843;}
	.st703{fill:#A2C6CD;}
	.st704{fill:#CDFCFE;}
	.st705{fill:#9DC3CB;}
	.st706{fill:#CEF6FD;}
	.st707{fill:#D04C5E;}
	.st708{fill:#7FA0AC;}
	.st709{fill:#ABD7DC;}
	.st710{fill:#94BDC4;}
	.st711{fill:#A9D7DA;}
	.st712{fill:#657E8F;}
	.st713{fill:#99C0C5;}
	.st714{fill:#546D7E;}
	.st715{fill:#94BCC4;}
	.st716{fill:#A7D0D3;}
	.st717{fill:#290D29;}
	.st718{fill:#A0404D;}
	.st719{fill:#584493;}
	.st720{fill:#5A4799;}
	.st721{fill:#584598;}
	.st722{fill:#5A50A0;}
	.st723{fill:#523D8F;}
	.st724{fill:#554E9F;}
	.st725{fill:#7165A0;}
	.st726{fill:#4F418F;}
	.st727{fill:#7073D6;}
	.st728{fill:#6C6AA2;}
	.st729{fill:#6F73D8;}
	.st730{fill:#6161B0;}
	.st731{fill:#726B95;}
	.st732{fill:#5E58AB;}
	.st733{fill:#F8A891;}
	.st734{fill:#9E5964;}
	.st735{fill:#965262;}
	.st736{fill:#9A5462;}
	.st737{fill:#924C5E;}
	.st738{fill:#652332;}
	.st739{fill:#702432;}
	.st740{fill:#904B5D;}
	.st741{fill:#AD585F;}
	.st742{fill:#89364C;}
	.st743{fill:#8D4759;}
	.st744{fill:#934F60;}
	.st745{fill:#884155;}
	.st746{fill:#864154;}
	.st747{fill:#8F4A5A;}
	.st748{fill:#5D428F;}
	.st749{fill:#FAAB93;}
	.st750{fill:#583873;}
	.st751{fill:#0C0000;}
	.st752{fill:#4E2D63;}
	.st753{fill:#9E5F93;}
	.st754{fill:#FB7F9C;}
	.st755{fill:#4A1937;}
	.st756{fill:#0ED1CC;}
	.st757{fill:#30C1EF;}
	.st758{fill:#7ED7F1;}
	.st759{fill:#AEF5FE;}
	.st760{fill:#97E7F9;}
	.st761{fill:#94E9F9;}
	.st762{fill:#31C0EE;}
	.st763{fill:#3FC0EC;}
	.st764{fill:#70D5F5;}
	.st765{fill:#90DFF9;}
	.st766{fill:#95E7F8;}
	.st767{fill:#4FB9E0;}
	.st768{fill:#7FE5FE;}
	.st769{fill:#47D6CA;}
	.st770{fill:#13D1CA;}
	.st771{fill:#53274C;}
	.st772{fill:#FBADAC;}
	.st773{fill:#C6E9EC;}
	.st774{fill:#F7AC93;}
	.st775{fill:#522A4C;}
	.st776{fill:#330924;}
	.st777{fill:#180000;}
	.st778{fill:#4A296B;}
	.st779{fill:#DAA68B;}
	.st780{fill:#FDFCFC;}
	.st781{fill:#73303E;}
	.st782{fill:#F5A98F;}
	.st783{fill:#6B1E36;}
	.st784{fill:#5C2F49;}
	.st785{fill:#612033;}
	.st786{fill:#F5B092;}
	.st787{fill:#863858;}
	.st788{fill:#331126;}
	.st789{fill:#793043;}
	.st790{fill:#F5BB9F;}
	.st791{fill:#AC5553;}
	.st792{fill:#F0B396;}
	.st793{fill:#EE8A73;}
	.st794{fill:#C74554;}
	.st795{fill:#6B70C7;}
	.st796{fill:#5C56A8;}
	.st797{fill:#5E5CB0;}
	.st798{fill:#5D44A0;}
	.st799{fill:#EFAA65;}
	.st800{fill:#F3A15C;}
	.st801{fill:#6270D6;}
	.st802{fill:#C05160;}
	.st803{fill:#F2A857;}
	.st804{fill:#12C6F5;}
	.st805{fill:#F5A664;}
	.st806{fill:#E39C5D;}
	.st807{fill:#F9BE7D;}
	.st808{fill:#CB7F51;}
	.st809{fill:#A66340;}
	.st810{fill:#FACEA9;}
	.st811{fill:#4180B0;}
	.st812{fill:#E39D5F;}
	.st813{fill:#065A93;}
	.st814{fill:#DC8557;}
	.st815{fill:#EAEFF3;}
	.st816{fill:#039EDD;}
	.st817{fill:#BED2DE;}
	.st818{fill:#147BB4;}
	.st819{fill:#5DBFC6;}
	.st820{fill:#C9E5F3;}
	.st821{fill:#B7D6E8;}
	.st822{fill:#DC885A;}
	.st823{fill:#F7E8BF;}
	.st824{fill:#06A0AF;}
	.st825{fill:#D4E4ED;}
	.st826{fill:#C6D5DD;}
	.st827{fill:#B7D5E8;}
	.st828{fill:#819EC2;}
	.st829{fill:#ADC0DA;}
	.st830{fill:#7D9FC4;}
	.st831{fill:#B0C7D1;}
	.st832{fill:#DFB38D;}
	.st833{fill:#F5EEEA;}
	.st834{fill:#DC8658;}
	.st835{fill:#B6CCD7;}
	.st836{fill:#E39D5D;}
	.st837{fill:#B26E46;}
	.st838{fill:#EA9B59;}
	.st839{fill:#DE914F;}
	.st840{fill:#E18F4D;}
	.st841{fill:#DE8D4B;}
	.st842{fill:#B77448;}
	.st843{fill:#C47E4F;}
	.st844{fill:#D6935F;}
	.st845{fill:#F8EBC3;}
	.st846{fill:#F2E5BE;}
	.st847{fill:#F7D5AE;}
	.st848{fill:#BB6B46;}
	.st849{fill:#B56442;}
	.st850{fill:#5B362D;}
	.st851{fill:#613B30;}
	.st852{fill:#73473A;}
	.st853{fill:#E8B893;}
	.st854{fill:#513026;}
	.st855{fill:#F2C39F;}
	.st856{fill:#F1C39F;}
	.st857{fill:#E0AE8A;}
	.st858{fill:#DC8457;}
	.st859{fill:#488DC5;}
	.st860{fill:#DD8C49;}
	.st861{fill:#DC8D49;}
	.st862{fill:#0080C6;}
	.st863{fill:#0070AE;}
	.st864{fill:#1B70A2;}
	.st865{fill:#3C6497;}
	.st866{fill:#E8F0F7;}
	.st867{fill:#F2F5F8;}
	.st868{fill:#F4F9FA;}
	.st869{fill:#CFE1EC;}
	.st870{fill:#1192CE;}
	.st871{fill:#B9D0DD;}
	.st872{fill:#A9BDD4;}
	.st873{fill:#819ABA;}
	.st874{fill:#A2BECB;}
	.st875{fill:#AAC0CC;}
	.st876{fill:#B2C8D4;}
	.st877{fill:#B5CCD9;}
	.st878{fill:#CDDCE5;}
	.st879{fill:#049CD9;}
	.st880{fill:#8DBAD1;}
	.st881{fill:#BCD3E0;}
	.st882{fill:#37BBD7;}
	.st883{fill:#44BCD7;}
	.st884{fill:#91D3E8;}
	.st885{fill:#E5F3FC;}
	.st886{fill:#D7E6F0;}
	.st887{fill:#04B0C1;}
	.st888{fill:#225C8B;}
	.st889{fill:#9FBAC6;}
	.st890{fill:#A1BBC8;}
	.st891{fill:#AEC3CF;}
	.st892{fill:#E7AD75;}
	.st893{fill:#CF875B;}
	.st894{fill:#DABCA4;}
	.st895{fill:#F4EBE3;}
	.st896{fill:#554233;}
	.st897{fill:#E4DED9;}
	.st898{fill:#513F2F;}
	.st899{fill:#70503B;}
	.st900{fill:#0F88C2;}
	.st901{fill:#73A6CA;}
	.st902{fill:#1F73A4;}
	.st903{fill:#1F73A5;}
	.st904{fill:#2173A5;}
	.st905{fill:#3E88BD;}
	.st906{fill:#824725;}
	.st907{fill:#438BC1;}
	.st908{fill:#EAEEF2;}
	.st909{fill:#019DDD;}
	.st910{fill:#044C86;}
	.st911{fill:#2F4E74;}
	.st912{fill:#B0CDE0;}
	.st913{fill:#FAFCFD;}
	.st914{fill:#D6E5EE;}
	.st915{fill:#E8EFF7;}
	.st916{fill:#F4BB8A;}
	.st917{fill:#9B6141;}
	.st918{fill:#844016;}
	.st919{fill:#B65C16;}
	.st920{fill:#8DB5CA;}
	.st921{fill:#8D4316;}
	.st922{fill:#A9C2CF;}
	.st923{fill:#F0F4F7;}
	.st924{fill:#7796BE;}
	.st925{fill:#BCCDD7;}
	.st926{fill:#B8CEDA;}
	.st927{fill:#326393;}
	.st928{fill:#E7EDEF;}
	.st929{fill:#C7D6E0;}
	.st930{fill:#8CA5C2;}
	.st931{fill:#AFC3CF;}
	.st932{fill:#D8D6D2;}
	.st933{fill:#A35021;}
	.st934{fill:#7C3810;}
	.st935{fill:#A26242;}
	.st936{fill:#A36343;}
	.st937{fill:#EFA363;}
	.st938{fill:#EEA365;}
	.st939{fill:#D78555;}
	.st940{fill:#EFA466;}
	.st941{fill:#B35A12;}
	.st942{fill:#EA9E63;}
	.st943{fill:#F2D09E;}
	.st944{fill:#3E6598;}
	.st945{fill:#DBE4E9;}
	.st946{fill:#EEBF99;}
	.st947{fill:#EBBE99;}
	.st948{fill:#9D4B1E;}
	.st949{fill:#B15F1B;}
	.st950{fill:#7E3B11;}
	.st951{fill:#B85D12;}
	.st952{fill:#B95D12;}
	.st953{fill:#DD8C58;}
	.st954{fill:#A84E18;}
	.st955{fill:#9D491A;}
	.st956{fill:#F2DBB0;}
	.st957{fill:#AC6C47;}
	.st958{fill:#B95D13;}
	.st959{fill:#765243;}
	.st960{fill:#E0B18E;}
	.st961{fill:#8F4116;}
	.st962{fill:#E07E42;}
	.st963{fill:#FFE0AD;}
	.st964{fill:#F2D19E;}
	.st965{fill:#F08547;}
	.st966{fill:none;stroke:#E1BE91;stroke-width:5.8357;stroke-linecap:round;stroke-linejoin:round;stroke-miterlimit:10;}
	.st967{fill:#F0EBF0;}
	.st968{fill:#6BA9BA;}
	.st969{fill:#F4D3A1;}
	.st970{fill:#F0E8EB;}
	.st971{fill:none;stroke:#524643;stroke-linecap:round;stroke-linejoin:round;stroke-miterlimit:10;}
	.st972{fill:none;stroke:#524643;stroke-width:0.5;stroke-linecap:round;stroke-linejoin:round;stroke-miterlimit:10;}
	.st973{fill:#524643;}
	.st974{opacity:0.3;fill:#C7C7C7;}
	.st975{fill:#83462B;}
	.st976{fill:#F4A061;}
	.st977{fill:none;stroke:#E08B58;stroke-width:4.459;stroke-linecap:round;stroke-linejoin:round;stroke-miterlimit:10;}
	.st978{fill:#FBC883;}
	.st979{fill:#E98C54;}
	.st980{fill:#F2F0E7;}
	.st981{fill:#E2955B;}
	.st982{fill:none;stroke:#AE6D36;stroke-width:0.5;stroke-linecap:round;stroke-linejoin:round;stroke-miterlimit:10;}
	.st983{fill:#F0866F;}
	.st984{fill:none;stroke:#E08B58;stroke-width:5.1258;stroke-linecap:round;stroke-linejoin:round;stroke-miterlimit:10;}
</style>
<g>
	<path class="st0" d="M45.46,163.01l-5.88,13.44h-0.9l-5.9-13.44h3.06l3.3,8l3.28-8H45.46z"/>
	<path class="st0" d="M47.26,163.01h8.88v2.44h-6.18v2.68h4.54v2.3h-4.54v3.34h6.42v2.44h-9.12V163.01z"/>
	<path class="st0" d="M61.7,165.45h-4.22v-2.44h11.16v2.44H64.4v10.76h-2.7V165.45z"/>
	<path class="st0" d="M70.42,163.01h8.88v2.44h-6.18v2.68h4.54v2.3h-4.54v3.34h6.42v2.44h-9.12V163.01z"/>
	<path class="st0" d="M89.98,176.21l-3.42-4.66h-1.98v4.66h-2.7v-13.2h4.96c2.76,0,4.76,1.72,4.76,4.26c0,1.68-0.88,3.04-2.32,3.76
		l3.74,5.18H89.98z M84.58,169.17h2.26c1.26,0,2-0.76,2-1.9c0-1.12-0.78-1.88-2-1.88h-2.26V169.17z"/>
	<path class="st0" d="M94.68,163.01h2.7v13.2h-2.7V163.01z"/>
	<path class="st0" d="M111.64,163.01v13.44h-0.9l-7.64-8.16v7.92h-2.7v-13.44h0.88l7.66,8.12v-7.88H111.64z"/>
	<path class="st0" d="M122.44,174.49h-5.4l-0.74,1.72h-2.9l5.9-13.44h0.9l5.88,13.44h-2.9L122.44,174.49z M119.74,167.81l-1.76,4.46
		h3.52L119.74,167.81z M120.16,158.01h3.24v0.48l-2.74,3.24h-1.96L120.16,158.01z"/>
	<path class="st0" d="M135.98,176.21l-3.42-4.66h-1.98v4.66h-2.7v-13.2h4.96c2.76,0,4.76,1.72,4.76,4.26c0,1.68-0.88,3.04-2.32,3.76
		l3.74,5.18H135.98z M130.58,169.17h2.26c1.26,0,2-0.76,2-1.9c0-1.12-0.78-1.88-2-1.88h-2.26V169.17z"/>
	<path class="st0" d="M140.68,163.01h2.7v13.2h-2.7V163.01z"/>
	<path class="st0" d="M154.18,174.49h-5.4l-0.74,1.72h-2.9l5.9-13.44h0.9l5.88,13.44h-2.9L154.18,174.49z M151.48,167.81l-1.76,4.46
		h3.52L151.48,167.81z"/>
</g>
<g>
	<path class="st583" d="M135.11,64.98c-0.87,3.37-1.86,6.68-4.13,9.47c-0.64,0.79-1.45,1.6-1.39,2.78c-0.26,0.42-0.5,0.15-0.74-0.03
		c-0.45-0.65-0.85-1.36-1.55-1.8c-1.95-1.3-4.09-1.95-6.43-1.95c-1.69,0.09-3.29-0.52-4.95-0.59c-0.69-0.26-1.4-0.31-2.13-0.31
		c-1.69-0.15-3.35-0.58-5.06-0.6c-0.47-0.06-0.91-0.29-1.39-0.32c-0.48-0.01-0.94-0.1-1.39-0.25c-3.1-2.94-4.65-6.69-5.49-10.76
		c-0.21-1.01-0.07-2.17,1.43-2.42c2.65-0.43,3.93-2.41,3.3-5.02c-0.14-0.59-0.38-1.16-0.64-1.71c-0.23-1.55,0.85-2.84,0.88-4.35
		c0.01-0.88,0.03-1.76-0.04-2.64c-0.31-2.23-1.52-3.96-3.19-5.33c-1.7-1.39-2.92-2.97-3.27-5.19c-0.1-0.66-0.53-1.25-0.84-1.85
		c-1.56-2.04-3.62-2.59-6.05-2.05c-2.17,0.48-4.18,1.41-6.2,2.29c-2.18,0.95-4.4,1.71-6.84,1.54c-0.6-0.06-1.22-0.05-1.79-0.33
		c-0.34-0.2-0.56-0.48-0.61-0.88c0.68-2.2,2.64-3.3,4.26-4.53c7.39-5.64,15.93-7.86,25.01-6.78c9.61,1.15,17.65,5.71,23.59,13.53
		c4.93,6.5,7.09,13.94,6.98,22.06c-0.02,1.75-0.29,3.49-0.44,5.23C135.53,63.07,135.57,64.1,135.11,64.98z"/>
	<path class="st584" d="M61.55,57.65c0.66-1.42,1.8-2.36,3.09-3.15c0.8,0.39,1.46,1.1,2.44,1.07c1.59,0.02,3.2-0.09,4.7,0.61
		c0.89,0.41,1.5,1.25,2.42,1.6c0.94,0.28,1.89-0.07,2.84,0.07c0.99,0.49,1.34,1.41,1.66,2.37c0.03,0.21,0.01,0.42-0.05,0.62
		c-0.25,0.97-1.58,0.06-1.81,1.05c0.18,0.5,0.15,1.11,0.75,1.35c0.54-0.5-0.23-2.07,1.37-1.67c0.56,0.35,0.89,0.91,1.27,1.42
		c1.44,2.27,3.33,4.15,5.23,6.02c1.14,1.12,2.25,2.28,2.71,3.89c0.16,0.85-0.05,1.65-0.32,2.45c-0.66,1.57-1.69,2.72-3.44,3.09
		c-1.45,0.07-2.93,0.22-4.1-0.92c-0.3-0.39-0.68-0.75-0.4-1.35c-0.42,0.42,0.07,0.97-0.23,1.38c-0.48,1.11-1.19,2.03-2.32,2.55
		c-2.85,0.69-5.12,0.01-6.5-2.76c-0.28-0.62-0.35-1.28-0.31-1.96c0.01-0.31,0.05,0.09,0.03-0.22c-0.01-0.18-0.09-0.16-0.2,0.05
		c-1.52,2.52-0.97,4.8,0.75,6.94c0.8,1.06,2.08,1.55,2.96,2.47c1.27,1.32,1.56,3.08,1.76,4.83c0.16,1.32-0.19,2.94,1.43,3.55
		c1.7,0.64,2.35-0.96,3.28-1.88c0.19-0.12,0.4-0.18,0.62-0.21c1.31,0.25,1.96,1.37,2.81,2.19c2.9,2.8,5.53,2.81,8.48-0.01
		c0.38-0.37,0.75-0.75,1.12-1.13c0.38-0.37,0.77-0.73,1.14-1.11c0.72-0.64,1.31-1.44,2.23-1.85c0.33-0.11,0.66-0.14,1.01-0.1
		c2.01,0.49,3.68,1.38,4.17,3.61c-0.39,1.55-1.67,2.47-2.68,3.55c-1.49,1.59-2.98,3.18-4.45,4.79c-2.35,1.96-4.99,3.14-8.12,2.96
		c-2.83,0.17-5.65-0.01-8.47-0.13c-0.65,0.45-1.62,0.15-2.06,0.72c0.8-0.36,1.74-0.68,2.79-0.69c2.97,0.19,5.94,0.4,8.8,1.34
		c0.79,0.51,1.17,1.28,1.32,2.18c0,0.25-0.08,0.46-0.24,0.65c-0.85,0.59-1.76,0.2-2.65,0.15c-5.09-0.24-9.84,0.85-14.02,3.88
		c-0.67,0.49-2,0.88-1.12,2.24c0.24,0.22,0.42,0.48,0.47,0.82c-0.02,1.15-2.31,1.94-0.52,3.37c-0.14,1.04-1.38,1.57-1.27,2.73
		c-0.02,1.23-0.08,2.47,0.06,3.69c0.98,2.16,2.4,3.12,4.35,2.91c2.22-0.23,4.2-1.95,4.7-4.09c0.24-1.04,0.05-2.14,0.38-3.17
		c0.43-1.08,1.17-1.96,1.87-2.85c0.84-1.07,1.86-1.56,3.17-0.76c0.4,0.67,0.23,1.36-0.06,1.97c-1.06,2.22-1.12,4.55-0.88,6.93
		c0.01,0.42-0.02,0.85,0.11,1.36c-0.06-0.58-0.14-1.08-0.11-1.58c-0.11-3.17,1.53-5.64,3.21-8.1c0.47-0.63,1.04-1.18,1.47-1.84
		c3.02-2.68,6.88-3.59,10.52-4.95c0.28-0.16,0.58-0.29,0.88-0.41c1.02-0.34,1.56-1.12,1.98-2.06c1.04-2.28,2.32-4.43,3.55-6.61
		c0.54-0.97,1.01-2.09,2.34-2.29c2,0.48,3.93,1.07,5.2,2.87c0.18,1.06-0.64,1.62-1.17,2.32c-1.93,2.08-2.76,4.72-3.65,7.31
		c-0.29,0.45-0.14,0.99-0.28,1.48c-0.46,1.7-0.64,3.47-1.13,5.16c-0.21,0.72-0.22,1.55-1.05,1.93c-2.87-0.69-5.62-0.39-8.1,1.26
		c-1.64,1.09-2.71,2.66-3,4.67c-0.87,2.33-0.12,4.52,0.61,6.71c0.07,0.21,0.11,0.43,0.14,0.65c-2.16,1.31-4.51,2.11-7,2.49
		c-0.57-0.05-1.15,0-1.7-0.2c-1.9,0.02-3.81-0.26-5.71,0.14c-1.21-0.19-2.42-0.39-3.62-0.63c-5.57-1.31-9.97-4.52-13.85-8.57
		c-0.64-0.66-1.24-1.35-1.86-2.03c-1.06-0.73-2.02-1.51-1.89-3c0.26-0.85,0.97-1.35,1.52-1.98c5.9-6.76,5.9-16.98,0.01-23.74
		c-0.11-0.2-0.16-0.41-0.14-0.64c0.26-0.61,0.87-0.8,1.38-1.09c0.4-0.23,0.93-0.55,0.58-1.02c-1.05-1.44,0.05-1.97,0.98-2.63
		c0.53-0.38,1.39-0.74,1.08-1.51c-0.25-0.64-1.1-0.15-1.66-0.28c-0.45-0.09-0.84-0.25-0.97-0.75c0.14-1.36,1.79-1.56,2.2-2.9
		c-1.1-0.42-2.03,0.45-3.02,0.37c-0.46-0.04-0.85-0.19-1.01-0.67c0-1.15,1.36-1.53,1.52-2.61c-1.02-0.35-2.12,1.26-3.03-0.2
		c0.72-2.81,2.24-5.31,2.94-8.14c0.85-3.42,1.52-6.84,1.3-10.38c-0.09-1.24,0.12-2.5-0.19-3.73C62.79,58.95,61.4,58.77,61.55,57.65z
		"/>
	<path class="st583" d="M59.6,122.01c0.58,0.93,1.15,1.85,1.73,2.78c-14.9,3.84-30.86-4.13-35.97-19.17
		c-4.38-12.88,1.16-26.9,11.34-33.9c5.66-3.89,12.21-5.47,19.15-4.89c0.51,1.15-0.33,1.82-0.94,2.54c-1.7,1.98-3.8,3.43-6.19,4.48
		c-0.9,0.39-1.84,0.71-2.57,1.4c-0.74,0.58-1.19,1.3-1.09,2.28c0.32,3.07,2.06,4.87,4.98,5.62c0.63,0.09,1.26,0.06,1.89,0.1
		c0.33,0.02,0.64,0.09,0.94,0.22c0.19,0.11,0.35,0.25,0.47,0.44c0.06,0.21,0.09,0.43,0.08,0.64c-0.12,0.75-0.14,1.51-0.32,2.25
		c-0.17,1.6-0.7,3.03-1.65,4.37c-0.97,1.35-1.56,2.92-1.72,4.61c-0.38,2.6,0.4,4.77,2.36,6.53c0.5,0.45,0.98,0.95,1.31,1.56
		c0.13,0.3,0.18,0.62,0.17,0.95c-0.21,0.8-0.09,1.61-0.04,2.42c0.02,0.41-0.31,1.02,0.52,0.45c0.41,0.27,0.62,0.68,0.73,1.13
		c0.98,4.01,2.48,7.81,4.45,11.42C59.51,120.8,59.63,121.39,59.6,122.01z"/>
	<path class="st585" d="M95.02,100.28c2.26-2.59,4.52-5.18,6.78-7.77c0.31-1.43,1.53-2.59,1.22-4.2c1.74-2.27,4.35-3.86,5.23-6.79
		c0.47-1.31,0.93-2.62,1.32-3.96c0.09-0.29,0.2-0.58,0.22-0.89c0.01-0.18,0.12-0.35,0.08-0.54c-0.04,0.23-0.08,0.45-0.11,0.69
		c-0.41,1.48-0.9,2.94-1.42,4.38c-0.49,1.56-1.3,2.91-2.57,3.97c-2.15,0.18-2.31-0.02-1.97-2.47c1.79-2.99,2.86-6.21,3.11-9.69
		c0.05-0.68,0.2-1.36,0.59-1.95c0.31,0.08,0.62,0.16,0.94,0.23c1.8,0.44,3.58,1,5.47,0.64c0.7-0.04,1.39-0.06,2.02,0.33
		c1.75,0.45,3.49,1.07,5.35,0.61c2.41,0,4.61,0.61,6.49,2.17c0.38,0.7,0.93,1.27,1.41,1.9c0.14,0.1,0.29,0.19,0.43,0.29
		c0.46,0.6,0.71,1.28,0.8,2.03c-0.11,0.27-0.21,0.55-0.3,0.83c-0.08,0.88-0.13,1.76,0.04,2.64c0.17,0.35,0.04,0.78,0.31,1.11
		c0.06,1.15,0.11,2.3-0.33,3.4c-0.67,0.94-0.15,2.01-0.32,3c-0.06,1.01,0.15,2.02-0.18,3.01c-0.01,0.39-0.02,0.79-0.03,1.18
		c-0.22,0.17-0.42,0.16-0.61-0.04c-0.23-0.78,0.05-1.61-0.27-2.75c0.01,0.06-0.19,0.32-0.17,0.36c0.72,1.17,0.05,2.62,0.73,3.82
		c0.1,0.58,0.08,1.17,0.03,1.75c-0.54,1.22-0.56,2.48-0.26,3.75c-0.02,0.69-0.05,1.38-0.04,2.06c0.03,1.54-0.75,2.02-2.17,1.68
		c-0.77,0.66-1.68,0.67-2.6,0.51c-3.38-0.58-6.82-0.71-10.19-1.4c-0.86-0.3-1.36-0.85-1.3-1.81c-0.45-1.88,0.22-3.8-0.18-5.69
		c0.56-4.34,0.6-8.73,1.05-12.55c-0.48,3.26-0.38,7.11-1.11,10.88c-0.66,1.24-2.28,0.93-3.1,1.91c-0.63,0.52-1.22,1.06-1.41,1.9
		c-0.12,0.29-0.29,0.55-0.6,0.66c-2.32,2.82-3.81,6.13-5.41,9.36c-0.52,1.05-0.94,2.11-2.42,1.89c-0.43,0.05-0.86,0.25-1.3,0.05
		c-0.76-0.74-2.03-0.85-2.48-1.98c0.48-2.05,2.27-3.21,3.3-4.89c0.63-1.03,2.3-2.12,1.03-3.32c-1.25-1.18-2.52,0.14-3.56,1.05
		c-0.46,0.4-0.9,0.84-1.47,1.09c-0.5,0.21-1.01,0.38-1.57,0.27c-0.21-0.07-0.35-0.22-0.44-0.42
		C93.32,101.45,94.41,101.07,95.02,100.28z"/>
	<path class="st586" d="M106.03,47.47c-0.04,1.36-0.54,2.59-1.14,3.78c-0.8,0.88-2.26,0.24-2.99,1.28
		c-2.16,2.11-2.45,2.06-3.34-0.71c-0.22-0.68-0.47-1.3-1.09-1.68c-2.79-1.69-4.45-4.09-4.67-7.4c-0.02-0.3-0.24-0.56-0.4-0.81
		c-1.17-1.38-2.8-0.41-4.16-0.82c-0.02-0.01-0.1,0.06-0.1,0.08c0.02,0.07,0.05,0.14,0.08,0.21c-3.4,2.28-5.81,5.7-9.26,7.92
		c-1.16,0.74-2.32,1.44-3.78,1.32c-1.35-0.27-2.69-0.34-4.03,0.08c-0.48,0.11-0.96,0.14-1.45,0.09c-0.78-0.18-1.46-0.46-1.38-1.46
		c-1.47-1.6-2.97-3.19-3.11-5.55c0.13-0.15,0.23-0.32,0.31-0.5c0.12-1.19,0.13-2.38-0.01-3.58c-0.09-0.18-0.19-0.35-0.32-0.5
		c0.45-2.91,0.91-5.81,4.52-6.55c2.95-0.03,5.76,0.76,8.54,1.59c3.21,0.96,6.15,0.64,9.05-1.06c1.77-1.04,3.53-2.16,5.58-2.65
		c0.22-0.08,0.45-0.13,0.68-0.16c1.89-0.15,3.56,0.45,5.1,1.5c0.3,0.52,0.86,1.03,0.87,1.56c0.07,2.9,2.27,4.32,4.07,5.98
		c1.45,1.34,2.27,2.92,2.42,4.87C105.79,45.35,105.76,46.41,106.03,47.47z"/>
	<path class="st587" d="M105.27,120.2c0.43-1.92,0.88-3.83,1.28-5.76c0.13-0.66-0.06-1.43,0.87-1.65c0.49-0.43,1.06-0.31,1.62-0.2
		c0.56,0.03,1.11,0.12,1.65,0.27c0.83,0.26,1.65,0.58,2.47,0.88c1.22,0.43,2.46,0.76,4.09,1.21c-0.67-1.14-1.41-1.45-2.23-1.4
		c-1.81,0.11-2.23-0.93-2.19-2.43c0.02-0.85-0.06-1.7-0.04-2.54c0.13-1.16-0.18-2.37,0.41-3.47c0.24-0.34,0.59-0.5,0.98-0.58
		c4.04,0.56,7.7,2.28,11.48,3.68c0.48,0.26,0.77,0.66,0.92,1.17c-0.07,1.15,0.25,2.32-0.2,3.45c-0.01,0.45-0.01,0.91-0.02,1.36
		c-0.67,1.15,0.18,2.16,0.29,3.24c-2.89,4.57-6.27,8.56-11.82,9.98c-3.42-1.69-7.11-2.81-10.3-4.98
		C104.26,121.51,104.44,120.74,105.27,120.2z"/>
	<path class="st588" d="M115.06,127.08c4.76-2.05,8.16-5.69,11.22-9.7c-0.14-0.86,0.69-1.18,1-1.79c0.14-0.19,0.29-0.39,0.43-0.58
		c0.44-0.5,0.4-1.3,1.03-1.69c1.48-1.98,1.98-4.41,3.06-6.58c0.66-0.45,0.01-1.27,0.51-1.76c-0.02-0.65-0.02-1.29,0.38-1.84
		c0.65-0.49,0.04-1.68,1.08-1.96c0.53,1.07,0.71,2.22,0.72,3.41c-0.08,1.68-0.35,3.36,0.14,5.01c0.04,1.12,0.19,2.25-0.37,3.31
		c-0.71,0.24-0.09,1-0.54,1.35l0.04-0.02c-1.77,4.04-4.32,7.57-6.75,11.23c-1.68,2.52-4.3,3.09-6.14,5
		c-1.21,1.25-3.19,1.67-4.14,3.33c-0.76,0.78-2.09,0.29-2.77,1.24l-0.01-0.08c-4.34,0.27-8.69,0.57-12.99-0.29
		c-2.54-0.5-2.64-1.02-0.82-3.04c2.36-1.22,5.12-1.01,7.52-2.11c0.45-0.17,0.91-0.26,1.38-0.31
		C111.18,128.79,112.97,127.5,115.06,127.08z"/>
	<path class="st589" d="M58.18,56.19c-1.21-0.12-2.36-0.71-3.23-1.44c-1.36-1.15-2.81-1.3-4.46-1.28c-4.08,0.05-7.53-3.25-7.89-7.43
		c-0.32-3.78,2.79-7.95,6.47-8.66c3.64-0.7,6.62,0.36,8.7,3.48c1.94,2.9,2.09,6.1,0.14,8.85c-1.53,2.15-1.1,3.73,0.1,5.56
		c0.12,0.19,0.22,0.4,0.3,0.6C58.34,55.91,58.27,55.99,58.18,56.19z"/>
	<path class="st590" d="M45.78,75.2c0.11-1.33,1.31-1.35,2.17-1.72c3.32-1.42,6.12-3.43,7.91-6.65c1.26-1.49,1.75-3.35,2.4-5.13
		c0.63-1.73,1.4-3.34,3.29-4.04c0.53,0.63,1.89,0.37,1.78,1.67c-0.01,0.11-0.02,0.21-0.03,0.32c-0.04,0.55,0,1.1-0.19,1.64
		c-0.38,5.39-2.27,10.26-5.19,14.75c-1.01,1.55-2.17,2.99-3.74,3.99c-3.72,2.36-7.26,1.2-9.18-2.95
		C44.92,76.31,44.97,75.6,45.78,75.2z"/>
	<path class="st591" d="M100.59,131.7c-0.13,0.27-0.2,0.58-0.4,0.79c-0.3,0.32-0.86,0.51-0.73,1.04c0.14,0.57,0.74,0.37,1.15,0.47
		c1.94,0.47,3.91,0.54,5.89,0.44c2.52-0.13,5,0.22,7.49,0.51c-1.47,1.2-3.23,0.93-4.93,0.94c-1.21,0.25-2.41,0.25-3.62,0
		c-3.75,0.52-6.9-1.6-10.38-2.3c-0.16-0.05-0.32-0.11-0.48-0.16c-0.71-2.37-0.95-4.8-0.9-7.26c0.83-4.76,6.21-8.12,10.89-6.79
		c0.42,0.12,0.57,0.46,0.7,0.82c-0.16,0.73-0.33,1.45-0.5,2.18c0.17,2.92-1.97,4.75-3.32,6.94
		C100.99,130.07,100.15,130.64,100.59,131.7z"/>
	<path class="st592" d="M116.66,133.52c1.13-2.87,4.07-3.94,6.32-5.15c2.62-1.41,3.62-3.76,5.3-5.69c1.9-2.19,3.31-4.78,4.43-7.48
		c0.22-0.54,0.41-0.99,1.08-0.97c0.5,1.88-0.2,3.48-1.22,4.97c-0.34,0.5-0.81,0.93-0.04,1.44c0.31,0.66-0.02,1.18-0.4,1.68
		c-2.19,2.93-4.83,5.52-6.74,8.67c-0.32,0.52-0.95,0.76-1.46,1.1c-1.55,0.89-3.09,1.8-4.95,1.82c-0.68-0.33-1.41-0.07-2.1-0.18
		C116.81,133.66,116.73,133.59,116.66,133.52z"/>
	<path class="st593" d="M98.65,31.89c-1.74,0.07-3.22-1.17-4.99-0.95c-0.21-0.24,0.1-0.42,0.08-0.64c-0.45,0.16-0.89,0.07-1.32-0.09
		c0.31,0.21,0.73,0.29,0.82,0.74c-2.02,1.02-4.1,1.95-6.06,3.09c-2.73,1.59-5.52,1.91-8.55,1.03c-2.96-0.87-5.95-1.6-8.93-2.39
		c1.75-0.78,3.49-0.56,5.23,0.01c-0.18,0.27-0.36,0.41-0.59,0.05c0.05,0.31,0.3,0.27,0.51,0.26c0.44-0.01,0.9,0.09,1.31-0.16
		c0.15-0.05,0.29-0.1,0.44-0.14c0.2,0.14,0.41,0.29,0.61,0.43c0.5,0.72,1.12,0.23,1.69,0.17c3.33,0.14,6.19-1.32,9.12-2.61
		c2.31-1.02,4.67-1.92,7.27-1.24C96.73,29.82,98.03,30.39,98.65,31.89z"/>
	<path class="st594" d="M164.06,106.94c2.36,1.91,2.65,3.28,1.13,5.81c-0.63,1.04-1.36,2.01-2.05,3.02
		c-1.19,0.23-2.04-0.45-2.91-1.07c-0.56-0.47-1.25-0.72-1.9-1.02c-0.38-0.23-0.7-0.51-0.68-1.01c0.52-2.38,1.55-4.43,3.73-5.73
		C162.27,107.02,163.17,107.02,164.06,106.94z"/>
	<path class="st595" d="M157.65,112.66c0.31,0.21,0.62,0.41,0.93,0.62c0.5,0.52,1.24,0.58,1.83,0.93c0.91,0.51,1.82,1.03,2.73,1.55
		c-0.66,1.19-1.27,2.4-1.98,3.55c-1.35,2.19-3.07,2.72-4.92,1.6c-1.91-1.15-2.22-2.74-0.98-5.07c0.14-0.26,0.33-0.49,0.5-0.74
		c0.67-0.61,0.78-1.59,1.47-2.18C157.37,112.84,157.51,112.75,157.65,112.66z"/>
	<path class="st596" d="M125.48,108.61c-3.71-1.25-7.42-2.51-11.13-3.76c-0.37-0.33-0.78-0.65-0.43-1.23
		c4.3,0.48,8.61,0.95,12.91,1.43c-0.03,0.7-0.05,1.4-0.08,2.09c-0.01,0.2-0.11,0.31-0.29,0.32c0.32-0.04-0.37,0.13-0.18-0.11
		c0.2-0.23,0.02-0.46-0.03-0.16C126.14,107.75,126.24,108.4,125.48,108.61z"/>
	<path class="st597" d="M158.06,68.12c1.11-1.14,2.19-2.31,3.34-3.42c1.93-1.86,2.72,0.31,3.85,1.15c1.15,0.86,1.21,1.79,0.09,2.8
		c-1.18,1.06-2.3,2.2-3.44,3.31c-0.1-0.05-0.19-0.09-0.29-0.14c-0.58-1.53-1.12-3.11-3.15-3.21
		C158.28,68.49,158.15,68.32,158.06,68.12z"/>
	<path class="st598" d="M73.91,58.46c-0.82-0.35-1.39-0.98-1.9-1.68c-1.71-1.25-3.61-0.82-5.48-0.59c-1.06-0.08-1.67-0.67-1.89-1.69
		c0.79-0.49,1.55-1.07,2.55-1.07c1.35-0.92,2.87-0.57,4.34-0.61c1.09-0.02,1.93,0.57,2.81,1.1c1.03,0.95,2.37,1.66,2.49,3.3
		C76.37,58.83,74.87,58.01,73.91,58.46z"/>
	<path class="st599" d="M48.92,138.61c-1.26-2.51-0.97-4.59,0.84-6.11c1.63-1.37,4.1-1.33,6,0.09c-1.54,2.25-3.66,3.95-5.61,5.81
		C49.83,138.71,49.39,138.9,48.92,138.61z"/>
	<path class="st600" d="M56.37,133.2c1.85,2.64,1.61,4.47-0.88,6.78c-0.64,0.26-1.31,0.46-1.9,0.83c-0.44,0.01-0.88,0.01-1.32,0.02
		c-0.66-0.2-1.3-0.47-1.92-0.78l0.06-0.09c-0.18-0.29-0.16-0.62,0.04-0.85C52.27,136.98,54.11,134.87,56.37,133.2z"/>
	<path class="st601" d="M161.9,71.96c0.13,0.25,0.26,0.5,0.39,0.75c0.53,0.76-0.16,1.55,0.05,2.32c0.08,0.88,0.14,1.76,0,2.63
		c-0.05,0.23-0.13,0.45-0.25,0.65c-0.31,0.4-0.68,0.66-1.22,0.46c-1.07-0.81-2.13-1.62-3.2-2.43c-0.48-0.28-0.77-0.69-0.78-1.26
		c0.02-0.2,0.09-0.39,0.19-0.56c0.22-0.3,0.58-0.47,0.73-0.84c0.04-0.37,0.04-0.75,0.22-1.1c0.17-0.26,0.4-0.44,0.7-0.55
		c0.72-0.1,1.46-0.13,2.03-0.68c0.5-0.23,0.77,0.07,1.01,0.44L161.9,71.96z"/>
	<path class="st602" d="M157.26,74.48c-0.02,0.2-0.04,0.41-0.06,0.61c-1.86,0-2.5-1.43-3.22-2.76c-0.31-0.46-0.61-0.92-0.92-1.38
		c-0.24-0.35,0.07-0.6,0.13-0.89c-0.08-0.16-0.2-0.22-0.38-0.19c-0.44,0.04-0.85-0.07-1.24-0.26c-0.14-0.14-0.28-0.28-0.42-0.42
		c-0.25-0.85,0.38-1.23,0.88-1.69c0.61-0.34,1.26-0.37,1.93-0.27c0.3,0.04,0.6,0.1,0.91,0.13c0.3-0.02,0.6-0.06,0.91-0.09
		c0.54-0.03,1.02,0.17,1.47,0.43c0.27,0.14,0.54,0.28,0.81,0.41c0,0,0.13,0.12,0.13,0.12c0.35,0.23,0.66,0.48,0.43,0.97
		c-0.22,0.31-0.58,0.48-0.74,0.84c-0.12,0.35-0.21,0.71-0.36,1.05c-0.18,0.34-0.47,0.55-0.84,0.62c-0.19,0.09-0.64,0.05-0.24,0.47
		c0.22,0.11,0.44,0.21,0.65,0.33c0.15,0.1,0.26,0.24,0.35,0.39c0.1,0.26,0.11,0.53,0.08,0.8C157.5,73.99,157.41,74.25,157.26,74.48z
		"/>
	<path class="st603" d="M154.4,67.74c-0.76,0-1.52,0-2.27,0c-1.43,0.59-2.36,0.53-1.85-1.42c0.47-0.74,0.99-1.42,1.79-1.84
		c0.63-0.35,1.26-0.43,1.88,0.04c1.1,1.07,2.54,1.79,3.31,3.19c-0.61,0.01-1.22,0.02-1.83,0.03c-0.17,0-0.34-0.01-0.51-0.01
		C154.74,67.73,154.57,67.73,154.4,67.74z"/>
	<path class="st604" d="M56.37,133.2c-1.44,2.73-4.24,4.27-5.96,6.76c-0.84-0.07-1.16-0.71-1.49-1.35c1.88-1.23,3.2-3.06,4.85-4.54
		c0.62-0.55,1.07-1.33,1.99-1.48C55.97,132.79,56.17,133,56.37,133.2z"/>
	<path class="st605" d="M160.87,78.78c0.28-0.16,0.56-0.31,0.84-0.47c0.53-0.02,0.5-0.43,0.54-0.79c0.18-0.86-0.36-1.79,0.23-2.62
		c0.72-0.36,1.41,0.2,2.12,0.09c1.71,1.09,2.1,2.14,0.34,3.7C162.65,80.75,162.73,80.86,160.87,78.78z"/>
	<path class="st606" d="M155.41,78.45c-0.33,0.59-0.75,1.07-1.44,1.24c-0.85-0.15-1.24-0.64-1.13-1.51
		c-0.16-1.44-1.47-0.67-2.15-1.12c-0.37-0.28-0.41-0.71-0.52-1.12c0.41-0.53,0.77-1.11,1.44-1.36c0.09,0.1,0.18,0.18,0.28,0.26
		c-0.1-0.08-0.19-0.17-0.28-0.27c0.22-0.69,0.85-0.99,1.34-1.43c1.39,0.04,2.11,0.74,2.12,2.15
		C154.87,76.39,155.66,77.37,155.41,78.45z"/>
	<path class="st607" d="M68.31,49.34c0.4,0.41,0.81,0.79,1.41,0.85c0.78,0.6,1.75,0.16,2.59,0.46c0.77,0.28,1.3,0.78,1.35,1.62
		c0.05,0.8-0.46,1.02-1.17,0.95c-0.25-0.01-0.48-0.07-0.7-0.18c-0.49-0.26-1-0.19-1.53-0.15c-2.66,0.22-2.79,0.07-2.38-2.65
		C67.89,49.89,67.96,49.55,68.31,49.34z"/>
	<path class="st608" d="M154.44,75.55c0.36-1.33-0.66-1.8-1.48-2.39c0.34-0.27,0.68-0.54,1.02-0.82c1.07,0.92,2.15,1.84,3.22,2.76
		c0.16,0.42,0.32,0.83,0.48,1.25c-0.3,0.2-0.6,0.41-0.9,0.61c-0.87,0.34-1.03-0.74-1.68-0.84
		C154.85,75.96,154.64,75.76,154.44,75.55z"/>
	<path class="st609" d="M86.76,135.82c0.44,0.09,0.87,0.18,1.31,0.27c-3.73,0.59-7.43,0.67-11.03-0.69
		c1.29-0.16,2.53,0.08,3.75,0.43C82.78,135.46,84.77,135.47,86.76,135.82z"/>
	<path class="st610" d="M164.61,75c-0.58,0.91-1.23,0.37-1.87,0.1c-0.29-0.25-0.61-0.45-1.01-0.46c-0.72-0.91,0.82-1.15,0.57-1.92
		C163.23,73.3,163.94,74.13,164.61,75z"/>
	<path class="st611" d="M67.88,50.25c-0.21,1.92,0.43,2.76,2.46,2.03c0.72-0.26,1.57-0.45,1.6,0.81c-1.49,0.21-2.98,0.24-4.47-0.02
		C67.54,52.13,67.1,51.1,67.88,50.25z"/>
	<path class="st612" d="M153.5,78.32c-0.5,0.68,0.19,0.96,0.47,1.38c-1.44,1.31-2.06-0.08-2.87-0.86c0.74-0.25,1.07-0.9,1.43-1.52
		C153.39,77.14,153.15,78.01,153.5,78.32z"/>
	<path class="st613" d="M114,135.03c0.21-1.69,1.83-0.92,2.66-1.51c0,0,0.06,0.04,0.06,0.04c0.17,0.18,0.49,0.21,0.55,0.51
		C116.3,134.8,115.19,135.06,114,135.03z"/>
	<path class="st614" d="M150.28,66.32c-0.18,1.51,1.07,1.17,1.85,1.42c0.04,0.73-0.7,0.94-0.97,1.47
		C150.42,68.38,148.89,67.79,150.28,66.32z"/>
	<path class="st615" d="M152.57,77.41c0.23,1.22-0.23,1.72-1.47,1.42c-0.13-0.16-0.25-0.31-0.38-0.47c-0.24-0.36-0.3-0.72,0.01-1.07
		C151.37,77.03,151.99,76.91,152.57,77.41z"/>
	<path class="st616" d="M154.44,75.55c0.31,0.01,0.62,0.03,0.93,0.04c0.58,0.73,1.01,1.48,0.53,2.44c-0.16,0.14-0.32,0.28-0.49,0.43
		C154.84,77.57,154.21,76.7,154.44,75.55z"/>
	<path class="st617" d="M133.79,101.17c-0.46,0.6-0.33,1.52-1.08,1.96c0.11-1.09,0.22-2.18,0.34-3.36
		C133.95,100.13,133.71,100.71,133.79,101.17z"/>
	<path class="st618" d="M126.41,107.38c0.12-0.07,0.24-0.15,0.34-0.24c-0.07,1.9,0.53,3.84-0.39,5.69
		c-0.02-1.26-0.04-2.52-0.06-3.78C126.01,108.46,125.94,107.9,126.41,107.38z"/>
	<path class="st619" d="M134.65,109.59c-0.81-1.65-0.6-3.33-0.14-5.01C134.8,106.24,134.83,107.91,134.65,109.59z"/>
	<path class="st618" d="M127.29,115.58c0.03,0.8-0.6,1.23-1,1.79c-0.58-1.08-0.59-2.14,0.06-3.2
		C126.67,114.64,125.62,116.03,127.29,115.58z"/>
	<path class="st620" d="M65.19,39.22c0.13,0,0.25,0,0.38-0.01c0.38,1.53,0.46,3.06-0.04,4.59l-0.16-0.01c0,0-0.16,0.01-0.16,0.01
		C64.86,42.27,64.91,40.75,65.19,39.22z"/>
	<path class="st621" d="M67.46,53.08c1.49,0.01,2.98,0.01,4.47,0.02c0,0,0.02-0.02,0.02-0.02c0.2,0.04,0.28,0.11,0.23,0.2
		c-0.05,0.1-0.11,0.15-0.16,0.15c-1.61,0-3.21,0-4.82,0C67.29,53.32,67.37,53.2,67.46,53.08z"/>
	<path class="st622" d="M130.45,83.83c-0.14-0.31-0.29-0.62-0.43-0.93c-0.31-1.07-0.34-2.13,0.02-3.19c0.12-0.15,0.24-0.3,0.36-0.44
		C130.8,80.78,130.67,82.3,130.45,83.83z"/>
	<path class="st614" d="M154.34,69.92c-0.15,0.7-1.02,0.49-1.29,1.04c-0.49-0.45-0.99-0.89-1.48-1.34c0.51-0.16,1.02-0.32,1.53-0.48
		C153.43,69.53,153.89,69.72,154.34,69.92z"/>
	<path class="st623" d="M150.75,77.37c-0.01,0.33-0.01,0.66-0.02,0.99c-0.94-0.63-1.49-1.36-0.55-2.42c0.4,0.2,0.57,0.54,0.61,0.96
		c0.14,0.12,0.18,0.23,0.12,0.33C150.86,77.32,150.8,77.37,150.75,77.37z"/>
	<path class="st624" d="M129.06,97.74c0.02-0.65,0.03-1.3,0.05-1.95c-0.31-0.46-0.31-0.92,0.01-1.37c0.16,0,0.32,0,0.48-0.01
		c-0.01,1.43,0.13,2.88-0.41,4.26C128.84,98.41,128.88,98.08,129.06,97.74z"/>
	<path class="st625" d="M129.58,89.81c0-1.2,0-2.39,0-3.59c0.12-0.01,0.25-0.01,0.37-0.02c0.06,0.34,0.12,0.68,0.17,1.02
		c-0.04,0.86-0.09,1.73-0.14,2.59C129.85,90.04,129.71,90.03,129.58,89.81z"/>
	<path class="st626" d="M155.9,78.03c-0.18-0.81-0.35-1.63-0.53-2.44c1.01-0.1,0.79,1.06,1.41,1.37
		C156.77,77.55,156.5,77.92,155.9,78.03z"/>
	<path class="st627" d="M135.11,64.98c-0.06-1.04,0.04-2.03,0.9-2.77C136.08,63.25,135.97,64.24,135.11,64.98z"/>
	<path class="st628" d="M164.06,106.94c-0.89,0.55-1.79,0.56-2.68,0C162.27,106.43,163.17,106.44,164.06,106.94z"/>
	<path class="st629" d="M129.06,97.74c0.04,0.31,0.08,0.62,0.12,0.93c-0.05,0.88-0.09,1.75-0.14,2.63
		C128.45,100.11,128.39,98.93,129.06,97.74z"/>
	<path class="st624" d="M129.58,89.81c0.14,0,0.27,0,0.41,0c0.06,1.16,0.11,2.32-0.36,3.42C129.61,92.09,129.59,90.95,129.58,89.81z
		"/>
	<path class="st630" d="M105.44,135.89c1.21,0,2.41,0,3.62,0C107.86,136.3,106.65,136.29,105.44,135.89z"/>
	<path class="st631" d="M157.23,112.93c-0.24,0.89-0.49,1.78-1.47,2.18C156.08,114.26,156.26,113.33,157.23,112.93z"/>
	<path class="st632" d="M153.94,64.52c-0.63-0.01-1.25-0.03-1.88-0.04C152.7,63.77,153.34,63.27,153.94,64.52z"/>
	<path class="st633" d="M132.32,104.97c-0.32,0.55,0.68,1.47-0.51,1.76C131.85,106.11,131.89,105.48,132.32,104.97z"/>
	<path class="st634" d="M133.74,114.25c-0.01-0.51-0.17-1.1,0.02-1.52c0.36-0.83,0.34,0.12,0.52,0.18
		C134.24,113.4,134.35,113.97,133.74,114.25z"/>
	<path class="st635" d="M76.17,32.84c-0.38,0.43-0.88,0.41-1.38,0.37c-0.14-0.01-0.27-0.17-0.4-0.26c0.19-0.09,0.37-0.17,0.56-0.26
		C75.35,32.74,75.76,32.79,76.17,32.84z"/>
	<path class="st618" d="M128.75,113.31c-0.17,0.67-0.39,1.31-1.03,1.69C127.71,114.22,127.88,113.55,128.75,113.31z"/>
	<path class="st636" d="M117.27,134.07c-0.18-0.17-0.37-0.34-0.55-0.51c0.76,0.04,1.58-0.28,2.25,0.35
		C118.41,133.97,117.84,134.02,117.27,134.07z"/>
	<path class="st637" d="M50.35,140.05c0.79-0.1,1.38,0.27,1.92,0.78C51.45,141,50.81,140.74,50.35,140.05z"/>
	<path class="st638" d="M53.59,140.81c0.44-0.72,1.1-0.94,1.9-0.83C54.99,140.57,54.4,140.95,53.59,140.81z"/>
	<path class="st639" d="M101.55,52.1c0.84-1.34,2.11-1,3.34-0.85c1.63,2.34,1.41,5.23-0.5,6.94c-0.4,0.36-0.82,0.87-1.36,0.74
		c-2.81-0.66-2.29,1.48-1.88,2.63c1.19,3.34,2.58,6.63,4.91,9.4c0.44,2.98-2.07,7.65-4.92,9.15c-0.82,0.43-1.68,0.72-2.56,1
		c-1,0.19-1.99,0.19-2.99-0.01c-3.21-0.66-4.74-2.61-4.55-5.89c-0.02-0.85,0.1-1.67,0.58-2.4c1.03-0.82,2.37,0.14,3.41-0.61
		c0.83-0.2,1.35-0.86,1.97-1.37c1.07-1.25,1.4-2.79,1.7-4.33c0.05-0.19,0.08-0.41,0.23-0.56c-0.24,0.05-0.21,0.29-0.32,0.46
		c-0.62,0.73-1.06,1.77-2.33,1.24c-0.29-2.41,0.73-4.14,2.79-5.32c0.4-0.14,0.63-0.4,0.54-0.86c-0.25-0.72-0.02-1.49-0.23-2.27
		c-1.09,0.37-1.33,2.36-2.81,1.67c-1-0.47-0.5-1.59-0.43-2.46c0.23-0.82,0.51-1.62,1.14-2.24c1.58-0.23,3.12-0.24,4.5,0.72
		c1.17,0.01,1.32-0.64,1.06-1.6c-0.18-0.68-0.58-1.41,0.22-1.99c1.08-0.26,2.02-0.31,1.9,1.04c-0.03-0.37,0.09-1.03-0.64-1.3
		c-0.62-0.26-1.19,0.1-1.79,0.15C102.01,52.99,101.7,52.62,101.55,52.1z"/>
	<path class="st640" d="M98.62,80.54c4.81-1.39,6.17-5.44,7.44-9.58c0.48,0.03,0.95,0.06,1.43,0.1c0.26,4.32-0.78,8.29-3.22,11.88
		c-2.2,3.7-5.09,4.41-10.07,2.46c-1.14-0.43-2.14-1.04-2.81-2.1c-0.68-1.5-1.81-2.79-2.14-4.46c0.03-1.24,0.16-2.47,0.54-3.66
		c0.48-0.58,1.05-0.36,1.61-0.17c0.04,0.06,0.12,0.13,0.12,0.19c-0.24,2.98,1.41,4.53,4.05,5.32C96.58,81.01,97.6,81.04,98.62,80.54
		z"/>
	<path class="st641" d="M113.9,71.93c-1.95,0.85-3.72,0.2-5.47-0.64C110.25,71.51,112.07,71.72,113.9,71.93z"/>
	<path class="st642" d="M121.26,72.87c-2.01,0.98-3.92-0.2-5.88-0.3c0.03-0.06,0.05-0.14,0.1-0.16c0.14-0.06,0.29-0.1,0.43-0.15
		C117.69,72.47,119.48,72.67,121.26,72.87z"/>
	<path class="st643" d="M106.03,47.47c-0.57-1.06-0.59-2.12-0.01-3.18C106.23,45.35,106.2,46.41,106.03,47.47z"/>
	<path class="st644" d="M129.16,76.94c-0.78-0.4-1.39-0.93-1.41-1.9C128.48,75.49,129.12,75.99,129.16,76.94z"/>
	<path class="st645" d="M132.17,71.11c-0.71-0.13-1-0.52-1.02-1.23C131.82,70.04,132.18,70.38,132.17,71.11z"/>
	<path class="st646" d="M78.91,33.3c-0.61,0.42-1.22,0.81-1.69-0.17C77.78,33.19,78.34,33.24,78.91,33.3z"/>
	<path class="st587" d="M96.43,58.53c0.53,0.58-0.37,1.35,0.38,2.04c0.74-0.25,1.29-0.76,1.48-1.62c0.21-0.94,0.92-0.97,1.6-0.79
		c0.9,0.24,0.69,0.88,0.3,1.42c-0.55,0.75,0.09,1.48-0.06,2.21c0.18,0.52-0.07,0.77-0.55,0.89c-2.26,0.96-2.56,3.12-3.11,5.12
		c0.6,1.11-0.29,1.67-0.89,2.3c-1.01,1.07-2.37,1.61-3.67,2.21c-1.2,0.33-2.49,0.2-3.66,0.7c-0.24,0.02-0.44-0.06-0.6-0.25
		c-1.76-3.26-5.13-5.13-7.07-8.22c-0.28-0.44-0.5-0.91-0.75-1.37c0.31-1.3-0.05-2.27-1.38-2.75c-0.47-0.78-0.94-1.56-1.41-2.34
		c-0.33-0.19-0.59-0.43-0.52-0.86c-0.31-1.27-1.64-1.75-2.21-2.82c-0.74-0.67-0.85-1.48-0.5-2.38c0.62-0.52,1.3-0.53,2.02-0.25
		c0.68,0.37,0.62,2.41,2.15,0.95c-0.67-0.1-1.38-0.03-1.82-0.67c0.03-1.1,1.01-1.24,1.71-1.61c2.59-1.39,4.9-3.07,6.73-5.43
		c1.79-2.31,4.1-3.9,7.2-3.91c0.36,0.02,0.67,0.16,0.95,0.38c1.03,0.37,0.92,1.22,0.94,2.08c0.06,2.49,1.17,4.5,3.37,5.58
		c1.48,0.73,2.31,1.5,2.16,3.21c-0.04,0.46,0.33,0.96,0.5,1.42c1.09-0.11,0.91-1.47,1.84-1.64c0.58,0.03,0.85,0.34,0.87,0.9
		c0.02,1.59,0.03,3.19-0.9,4.6c-1.07-1.42-2.92-0.48-4.16-1.37c-0.99,1.07-3-0.17-3.71,1.59C94.43,58.76,95.66,57.72,96.43,58.53z"
		/>
	<path class="st591" d="M53.14,105c-0.01-0.31-0.03-0.62-0.04-0.93c-0.97-1.77-0.59-3.24,1-4.41c1.01-0.74,1.51-1.95,2.46-2.7
		c1.25-0.99,2.66-1.79,4.4-1.27c3.14,1.63,3.91,4.77,4.54,7.76c1.51,7.22-0.24,13.54-5.9,18.55c-3.04-4.34-4.5-9.33-5.95-14.32
		C53.3,106.83,52.61,106.03,53.14,105z"/>
	<path class="st587" d="M71.1,114.64c-0.51-0.01-1.17,0.2-1.29-0.56c-0.12-0.75,0.38-1.26,0.91-1.73c2.8-2.53,6.2-3.79,9.82-4.58
		c2.79-0.61,5.58-0.57,8.37,0c0.29-0.22,0.59-0.4,0.97-0.43c1.72,0.31,3.35,0.97,5.05,1.35c0.82,0.58,1.84,0.8,2.66,1.38
		c0.32,0.67,1.08,0.58,1.59,0.93c-3.55,1.58-7.43,2.43-10.56,4.9c-0.46,0.56-1.07,0.9-1.75,1.14c-0.8,0.2-1.6,0.54-2.39-0.02
		c-2.91-0.6-3.08,2.35-4.61,3.54c-0.45,0.82-0.96,1.83-2.06,1.16c-1.13-0.69-0.59-1.73-0.05-2.6c0.2-0.32,0.44-0.63,0.68-0.89
		c0.11-0.11,0.18-0.21,0.2-0.26c-0.08,0.08-0.18,0.19-0.3,0.32c-0.69,1.07-1.77,1.63-2.75,2.31c-0.84,0.58-1.76,1.11-2.62,0.17
		c-0.89-0.97-0.42-1.95,0.29-2.83c0.19-0.24,0.44-0.4,0.68-0.58c0.59-0.48,1.22-0.89,1.82-1.35c0.16-0.22,0.49-0.28,0.59-0.62
		c-0.15,0.31-0.45,0.44-0.64,0.67c-0.6,0.41-1.2,0.81-1.77,1.26c-0.9,0.49-1.61,1.5-2.86,1.08c-1.56,0.01-1.98-0.63-1.02-1.91
		c0.4-0.53,0.99-0.92,1.49-1.38c0.12-0.12,0.17-0.27,0.09-0.4C71.5,114.48,71.31,114.51,71.1,114.64z"/>
	<path class="st647" d="M49.08,95.83c-0.07-1.66,0.66-3.1,1.48-4.41c0.95-1.52,1.77-3.05,2.06-4.83c1.83-0.51,2.97-2.01,4.4-3.08
		c0.63-0.48,1.08-1.33,2.09-1.04c0.69-0.27,1.38-0.56,2.08-0.82c0.6-0.23,1.27-0.84,1.79-0.01c0.5,0.79-0.29,1.21-0.74,1.66
		c-0.53,0.53-1.12,0.99-1.69,1.48c-0.11,0.2-0.19,0.41-0.31,0.61c0.43,0.17,0.84,0.12,1.21-0.16c0.93-0.31,1.85-0.66,2.79-0.92
		c0.42-0.11,0.94-0.08,1.19,0.41c0.24,0.48,0.01,0.91-0.35,1.21c-0.88,0.72-1.79,1.38-2.69,2.07c-0.08,0.17-0.34,0.38-0.19,0.51
		c0.34,0.28,0.74,0.22,1.09-0.05c0.89-0.03,2.27-1.07,2.53,0.33c0.39,2.12-2.06,2.24-3.15,3.41c0.27,0.68,1.71,0.48,1.35,1.47
		c-0.49,1.33-1.9,1.32-3.03,1.68c-2.11,0.87-4.34,1.29-5.89,3.41c-1.32,1.8-4.44,0.95-5.48-1.2C49.36,97.01,49.33,96.38,49.08,95.83
		z"/>
	<path class="st648" d="M71.08,118.39c0.92-0.51,1.84-1.03,2.76-1.54c0.29,0.09,0.48,0.27,0.54,0.58c-0.4,0.45-0.83,0.87-1.18,1.35
		c-0.39,0.52-0.51,1.12,0.03,1.62c0.48,0.44,0.93,0.51,1.55,0.02c1.17-0.93,2.46-1.71,3.71-2.56c0.16-0.19,0.3-0.17,0.42,0.04
		c-0.19,0.42-0.39,0.83-0.57,1.25c-0.3,0.72-1.31,1.5-0.41,2.22c0.75,0.6,1.27-0.55,1.94-0.81c0.3,2.9-0.19,5.44-3.01,7.03
		c-3.05,1.73-5.98,0.82-7.5-2.39c0.23-1.51,0.3-3.02-0.05-4.53C69.25,119.4,70.11,118.85,71.08,118.39z"/>
	<path class="st649" d="M80.81,91.24c-0.37,1.85-1.48,2.88-3.38,2.67c-2.05-0.23-2.12-1.92-2.16-3.47
		c-0.08-2.77-0.51-5.29-3.41-6.63c-0.51-0.23-0.82-0.88-1.23-1.33c1.59-2.48,4.3-3.07,6.79-1.49c0.14,0.17,0.25,0.35,0.32,0.56
		c0.04,0.59-0.09,1.22,0.46,1.68c0.92,1.14,1.19,2.49,1.23,3.88c-0.08-0.41-0.02-0.79-0.05-1.17c-0.05-0.62-0.1-1.34,0.57-1.59
		c0.71-0.26,1.03,0.47,1.44,0.89c0.13,0.18,0.23,0.37,0.32,0.57c0.26,0.64,0.24,1.27-0.03,1.9C81.27,88.86,81.17,90.08,80.81,91.24z
		"/>
	<path class="st650" d="M59.12,82.46c-1.48,1.27-2.94,2.55-4.44,3.79c-0.59,0.48-1.19,1.35-2.05,0.33c0.16-0.78,0.03-1.63,0.51-2.34
		c0.21,0.03,0.34,0.2,0.5,0.31c-0.07-0.31-0.29-0.48-0.56-0.61l-0.02-0.05c-0.11-0.43,0.09-0.76,0.4-0.98
		c5.25-3.7,6.92-9.44,8.61-15.16c0.3-1.01,0.61-2.04,0.61-3.12c0.06-0.36,0.18-0.68,0.4-0.97c0.19-0.19,0.4-0.23,0.64-0.11
		c0.39,6.21-1.23,11.97-3.93,17.49C59.56,81.51,59.34,81.98,59.12,82.46z"/>
	<path class="st651" d="M81.26,86.13c-0.01-0.15-0.02-0.31-0.04-0.46c-0.72-1.82-2.6-2.61-3.68-4.11l0.03-0.07
		c-0.59-0.62-0.84-1.24-0.04-1.88c0.63-0.74,1.26-1.49,1.89-2.23c0.23-0.28,0.39-0.71,0.9-0.45c1.17,1.22,2.7,0.96,4.15,1.02
		c0.03,0.75-0.4,1.57,0.33,2.22c0.26,0.41,0.56,0.8,0.9,1.17c0.21,0.23,0.39,0.48,0.54,0.76c0.25,0.51,0.4,1.03,0.16,1.59
		C85.05,85.25,83.79,87.02,81.26,86.13z"/>
	<path class="st652" d="M89.53,78.76c0.77,1.38,1.55,2.77,2.32,4.15c-0.42,0.55-0.27,0.99,0.3,1.31c0.65,0.35,1.11,0.8,0.94,1.62
		c-0.36,1,0.42,1.28,1.05,1.66c0.89,0.7,2.34,0.6,2.81,1.91c-0.5,0.75-1.13,1.36-1.93,1.79c-1.46,0.7-2.19-0.49-3.13-1.18
		c-0.54-0.39-0.76-1.46-1.79-0.89c-2.79-1.67-3.25-3.49-1.38-5.35c0.71-0.65,0.13-1.25-0.1-1.84c-0.3-0.78-0.64-1.54-0.38-2.41
		C88.51,79.02,88.82,78.56,89.53,78.76z"/>
	<path class="st653" d="M89.53,78.76c-0.3,0.32-0.6,0.64-0.9,0.96c-0.46,0.78-1.2,1.15-2.04,1.35c-0.76,0.15-1.45-0.04-2.09-0.44
		c-1-0.89-1.28-1.79-0.01-2.7c1.5-0.43,2.27-1.58,2.89-2.89c0.86-0.38,0.23-1.47,0.91-1.94c1.08,0.2,2.1,0.46,1.77,1.94
		C90.25,76.34,90.08,77.58,89.53,78.76z"/>
	<path class="st654" d="M49.08,95.83c0.55,0.72,1.06,1.47,1.67,2.15c1.27,1.42,3.27,1.65,4.32,0.18c1.52-2.14,3.72-2.36,5.92-2.82
		c-0.01,0.12-0.01,0.24-0.03,0.36c-3.5,0.33-5.11,3.34-7.45,5.3c-0.92,0.77-0.24,2.04-0.42,3.07
		C50.35,102.01,48.43,99.55,49.08,95.83z"/>
	<path class="st655" d="M77.54,79.6c-0.33,0.64-0.08,1.26,0.04,1.88c-2.66-2.06-4.77-0.37-6.94,1c-2.32-3.11-2.43-4.98-0.45-7.87
		c1.17,0.41,0.3,1.68,0.97,2.3C72.56,79.53,74.77,80.23,77.54,79.6z"/>
	<path class="st656" d="M113.92,103.61c0.14,0.41,0.29,0.82,0.43,1.23c-0.26,0.07-0.52,0.14-0.78,0.2c-0.66,1.17-0.33,2.39-0.19,3.6
		c0.01,0.91,0.02,1.83,0.03,2.74c-0.16,0.17-0.34,0.18-0.53,0.05c-0.38-0.44-0.04-0.94-0.12-1.4c0.01,0.29-0.07,0.57-0.15,0.85
		c-0.13,0.87,0.35,1.86-0.56,2.55c-0.47,0.06-0.95,0.16-1.39-0.14c-0.61-0.03-1.22-0.05-1.84-0.08c0-0.64-1.54-0.56-0.74-1.58
		c1.47-0.29,2-1.2,2.15-2.68c0.17-1.62,0.02-3.35,0.91-4.85c0.46-0.62,0.92-1.23,1.39-1.85c0.11-0.16,0.25-0.2,0.43-0.12
		C113.05,102.79,113.27,103.34,113.92,103.61z"/>
	<path class="st657" d="M112.96,102.15c-0.14,0.04-0.28,0.08-0.43,0.12c-1.52-1.28-3.46-1.81-5.14-2.81
		c0.04-0.26,0.09-0.53,0.13-0.79c0.24-0.57,0.53-1.09,1.2-1.23c0.8,0.1,0.94-0.39,0.92-1.03c0.71-0.78,1.56-0.98,2.54-0.59
		c0.44,0.18,0.75,0.46,0.81,0.95C113.82,98.57,113.35,100.36,112.96,102.15z"/>
	<path class="st652" d="M86.22,83.38c-0.17-0.45-0.34-0.89-0.51-1.34c1.52-0.04,2.71,1.13,2.22,2.36c-0.7,1.75-1.49,3.44-3.57,4.13
		c-1.64,0.55-1.9,1.6-0.85,2.96c0.93,1.21,2,2.32,3.42,2.99c0.58,0.27,1.19,0.23,1.8,0.14c1.98-0.51,3.18-2.27,4.95-3.12
		c0.37,0.04,0.61,0.18,0.47,0.61c-0.71,1.23-1.77,2.1-2.95,2.82c-2.57,1.57-4.91,1.27-7.06-0.82c-0.98-0.96-1.96-1.92-2.94-2.88
		c-0.61-1.24,0.17-2.37,0.29-3.55c0.2-0.34,0.51-0.6,0.88-0.65C84.51,86.71,85.6,85.3,86.22,83.38z"/>
	<path class="st658" d="M111.15,104.11c0,1.74-0.24,3.49-0.25,5.2c-0.01,2.35-0.78,3.07-2.95,2.59c-0.22,0.16-0.38,0.1-0.48-0.14
		C107.96,108.87,108.95,106.2,111.15,104.11z"/>
	<path class="st659" d="M84.47,117.01c0.77-0.15,1.54-0.3,2.31-0.45c0.34,0.21,0.75,0.39,0.47,0.91c-1.38,2.63-3.21,5.08-3.29,8.23
		c-0.22,0.26-0.34,0.71-0.84,0.44C82.14,122.89,83.06,119.91,84.47,117.01z"/>
	<path class="st660" d="M87.94,105.43c-3.02-0.44-6.04-0.88-9.06-1.32c0.1-0.09,0.15-0.16,0.15-0.16c0.2-0.06,0.2-0.1,0.01-0.11
		c-0.37-0.02-0.77,0.1-1.06-0.24c3.06-0.99,6.19-0.27,9.28-0.37C87.68,103.9,88.66,104.4,87.94,105.43z"/>
	<path class="st661" d="M103.31,88.52c0.83,1.84-0.24,2.95-1.51,3.99c-0.79-1.83-2.37-2.63-4.13-3.2c-0.06-0.56,0.23-0.95,0.64-1.28
		c1.25-0.78,2.6-0.83,3.99-0.55C102.82,87.65,103.14,88,103.31,88.52z"/>
	<path class="st585" d="M90.14,107.72c-0.41,0.01-0.82,0.03-1.23,0.04c0.03-0.11,0.07-0.22,0.1-0.33c-0.34-1.28-0.81-2.52-1.66-4.22
		c2.31,0.8,3.91-0.85,5.86-0.52c0.74,1.52-0.87,2.01-1.31,3.02c-0.1,0.16-0.23,0.3-0.35,0.44c-0.32,0.31-0.55,0.7-0.79,1.08
		C90.61,107.47,90.38,107.61,90.14,107.72z"/>
	<path class="st662" d="M97.88,115.17c0.24-0.29,0.42-0.66,0.72-0.84c0.86-0.53,1.87-1.09,2.6,0.02c0.77,1.18-0.16,1.96-0.98,2.67
		c-0.57,0.49-1.26,0.45-1.95,0.38C97.72,116.73,98.24,115.87,97.88,115.17z"/>
	<path class="st663" d="M76.21,71.83c-0.46-0.07-0.94-0.28-0.72-0.79c0.35-0.8,1.1-1.1,1.97-1.05c1.39-0.25,2.74-0.72,4.18-0.67
		c0.42,0.09,0.74,0.27,0.63,0.79c0.02,0.61-0.23,1.08-0.79,1.36c-0.92,0.19-1.55,1.28-2.67,0.89C77.94,72.18,77.2,71.36,76.21,71.83
		z"/>
	<path class="st664" d="M93.21,102.7c-1.62,0.56-3.19,1.29-5.05,0.89c0.35,1.38,0.96,2.53,0.86,3.84c-0.36-0.67-0.72-1.33-1.08-2
		c-0.14-0.76-0.93-1.32-0.69-2.2c3.04,0.19,5.4-1.37,7.77-2.95C94.75,101.34,93.61,101.74,93.21,102.7z"/>
	<path class="st665" d="M69.2,63.92c0.06-0.88-0.04-1.84,0.92-1.68c1.16,0.19,1.21,1.38,1.39,2.32c0.13,0.65-0.11,1.36-0.84,1.33
		C69.33,65.83,69.55,64.54,69.2,63.92z"/>
	<path class="st666" d="M93.68,126.16c0.69,2.37,0.7,4.83,0.9,7.27C93.36,131.12,92.9,128.72,93.68,126.16z"/>
	<path class="st667" d="M78.44,60.4c0.86,0.05,1.96-0.39,2.48,0.54c0.59,1.06-0.86,1.39-1.1,2.21c-0.55-0.3-0.84-0.78-0.92-1.39
		c-0.24-0.26-0.67-0.42-0.46-0.91C78.44,60.69,78.44,60.55,78.44,60.4z"/>
	<path class="st668" d="M94.14,92.11c-0.16-0.15-0.31-0.3-0.47-0.45c-1.68-0.22-2.64-1.26-3.22-2.76c-0.13-0.32-0.25-0.64-0.51-1.3
		c2.01,1.18,2.9,3.32,5.06,3.6C94.84,91.62,94.6,91.96,94.14,92.11z"/>
	<path class="st669" d="M78.44,60.84c0.15,0.3,0.31,0.61,0.46,0.91c-1.25,0.61,0.27,2.12-0.9,2.76c-0.8-0.73-0.61-2.12-1.75-2.61
		C75.92,59.33,78.03,61.87,78.44,60.84z"/>
	<path class="st670" d="M76.25,61.89c2.55-0.44,1.36,1.61,1.75,2.61C76.12,64.5,76.76,62.81,76.25,61.89z"/>
	<path class="st671" d="M81.78,87.59c-0.19,1.21-0.39,2.43-0.58,3.64c-0.13,0-0.26,0-0.38,0.01c-0.85-1.36,0.05-2.52,0.44-3.73
		C81.47,87.3,81.64,87.33,81.78,87.59z"/>
	<path class="st672" d="M98.4,88.44c-0.25,0.29-0.5,0.58-0.74,0.87c-0.24,0.03-0.48,0.07-0.72,0.1c-1.08-0.48-2.17-0.97-3.25-1.45
		c-0.1-0.48,0.21-0.64,0.59-0.74C95.72,87.39,97.2,87.47,98.4,88.44z"/>
	<path class="st673" d="M66.53,56.19c1.9-0.51,3.82-1.18,5.48,0.59C70.24,56.15,68.37,56.29,66.53,56.19z"/>
	<path class="st674" d="M86.76,135.82c-1.99,0-3.98,0-5.97,0C82.78,135.08,84.77,135.08,86.76,135.82z"/>
	<path class="st675" d="M77.97,103.6c0.62,0.03,1.25,0.06,1.93,0.1c-0.28,0.54-0.7,0.32-1.02,0.42c-0.87,0.11-1.69,0.58-2.64,0.29
		C76.54,103.52,77.31,103.68,77.97,103.6z"/>
	<path class="st676" d="M71.16,76.92c-0.78-0.57-0.4-1.64-0.97-2.3c0.22-0.5,0.56-0.87,1.37-1.21
		C71.03,74.71,71.09,75.81,71.16,76.92z"/>
	<path class="st677" d="M69.31,120.66c0.7,1.5,0.64,3.01,0.05,4.53C69.34,123.68,69.32,122.17,69.31,120.66z"/>
	<path class="st678" d="M61.45,85.22c-0.63,0.66-1.44,0.99-2.59,1.34c0.44-0.95,0.98-1.44,1.69-1.79
		C60.75,85.13,61.09,85.19,61.45,85.22z"/>
	<path class="st679" d="M63.3,88.45c-0.72,0.53-1.48,0.9-2.47,0.8c0.25-0.88,1.01-0.93,1.56-1.25
		C62.59,88.35,62.93,88.41,63.3,88.45z"/>
	<path class="st680" d="M63.72,63.55c-0.14,0.02-0.27,0.04-0.4,0.07c-0.99-1.33-0.23-2.69-0.06-4.04c0.04-0.08,0.07-0.16,0.08-0.25
		C63.93,60.69,63.64,62.14,63.72,63.55z"/>
	<path class="st681" d="M76.51,57.2c0.17,0.29,0.35,0.57,0.52,0.86c-0.97,0.7-2.04,0.57-3.12,0.4
		C74.64,57.74,76.04,58.43,76.51,57.2z"/>
	<path class="st682" d="M81.69,69.59c-1.34,0.87-2.82,0.29-4.24,0.41c0.38-0.47,0.94-0.37,1.44-0.46
		C79.84,69.03,80.77,68.87,81.69,69.59z"/>
	<path class="st683" d="M81.69,69.59c-0.93-0.02-1.86-0.03-2.8-0.05c0.03-0.11,0.05-0.23,0.05-0.34c1.22-0.52,2.44-0.41,3.68-0.07
		c0.04,0.39-0.02,0.74-0.36,0.98C82.08,69.93,81.88,69.76,81.69,69.59z"/>
	<path class="st684" d="M82.63,69.12c-1.23,0.02-2.45,0.04-3.68,0.07C80.16,68.34,81.39,68.43,82.63,69.12z"/>
	<path class="st685" d="M78.48,71.88c1-0.14,2-0.28,3-0.41c-0.23,0.29-0.46,0.58-0.69,0.87c-0.17,0.16-0.37,0.28-0.59,0.37
		c-0.59,0.11-1.16,0.11-1.69-0.23C78.31,72.28,78.3,72.08,78.48,71.88z"/>
	<path class="st686" d="M78.48,71.88c0,0.14,0,0.27-0.02,0.41c-0.11,0.22-0.27,0.27-0.49,0.13c-0.59-0.2-1.18-0.39-1.77-0.59
		C76.98,70.99,77.73,71.58,78.48,71.88z"/>
	<path class="st687" d="M83.13,126.14c0.28-0.15,0.56-0.29,0.84-0.44c0,0.6,0,1.2,0,1.86C83.17,127.33,83.2,126.71,83.13,126.14z"/>
	<path class="st688" d="M87.26,117.47c-0.16-0.3-0.32-0.61-0.47-0.91c0.61-0.22,1.22-0.44,1.83-0.67
		C88.43,116.65,87.86,117.08,87.26,117.47z"/>
	<path class="st689" d="M80.35,72.4c0.14-0.04,0.29-0.06,0.44-0.06c-0.5,1.41-1.38,1.05-2.3,0.49
		C79.01,72.28,79.78,72.81,80.35,72.4z"/>
	<path class="st690" d="M88.23,73.12c-0.22,0.67,0.29,1.67-0.86,1.93c0.09-0.77,0.18-1.54,0.27-2.3c0.15-0.04,0.29-0.08,0.44-0.12
		C88.24,72.76,88.3,72.92,88.23,73.12z"/>
	<path class="st691" d="M107.46,111.77c0.16,0.05,0.32,0.09,0.48,0.14c0.26,0.46,0.98,0.61,0.89,1.32
		c-0.47-0.15-0.94-0.29-1.42-0.44C107.26,112.44,107.07,112.09,107.46,111.77z"/>
	<path class="st692" d="M71.1,114.64c0.39-0.43,0.81-0.79,1.49-0.72c0,0.73-0.57,0.91-1.04,1.19
		C71.4,114.95,71.25,114.79,71.1,114.64z"/>
	<path class="st693" d="M97.88,115.17c0.65,0.65,0.3,1.48,0.39,2.24C97.32,116.8,97.61,115.98,97.88,115.17z"/>
	<path class="st694" d="M80.33,76.91c-0.3,0.15-0.6,0.3-0.9,0.45c0.03-0.49-0.25-1.02,0.15-1.47
		C79.83,76.24,80.08,76.57,80.33,76.91z"/>
	<path class="st695" d="M99.18,110.99c-0.63-0.09-1.37,0.19-1.82-0.53c0.3-0.24,0.61-0.23,0.94-0.05c0.42,0.1,0.85,0.19,1.27,0.29
		C99.44,110.8,99.31,110.9,99.18,110.99z"/>
	<path class="st696" d="M80.35,72.4c-0.52,0.57-1.23,0.35-1.86,0.43c-0.17-0.13-0.33-0.27-0.5-0.4c0.16-0.04,0.32-0.09,0.49-0.13
		C79.09,72.32,79.72,72.36,80.35,72.4z"/>
	<path class="st680" d="M63.26,64.5c-0.69,5.89-2.79,11.24-6.16,16.09c-1.03,1.48-2.59,2.33-4.04,3.31
		c-0.28-0.04-0.56-0.08-0.84-0.13c-0.75-0.26-1.5-0.28-2.25,0.01c-3.6-0.83-5.43-2.96-5.47-6.39c0.21-0.3,0.46-0.5,0.85-0.47
		c3.26,5.95,8.61,3.78,11.42-0.35c2.99-4.39,5.22-9.11,5.6-14.52c0.03-0.47,0.06-0.92,0.45-1.25C63.44,61.99,62.7,63.32,63.26,64.5z
		"/>
	<path class="st697" d="M41.17,78.75c-1.4-1.07-1.03-2.37-0.48-3.69c0.29,0.02,0.32,0.3,0.46,0.48l0.11,0.04
		C41.45,76.64,42.27,77.72,41.17,78.75z"/>
	<path class="st698" d="M45.91,70.7c-0.52,0.79-1.01,1.62-2.4,2.25C44.26,71.7,44.89,71.02,45.91,70.7z"/>
	<path class="st699" d="M53.14,105c0.17,0.89,0.34,1.79,0.51,2.68c-0.1,0.17-0.19,0.34-0.29,0.51
		C53.17,107.14,52.2,106.14,53.14,105z"/>
	<path class="st700" d="M50.41,116.04c0.67,0.57,0.7,1.29,0.75,2.49c-0.97-0.95-1.07-1.72-1.13-2.52
		C50.17,115.81,50.29,115.82,50.41,116.04z"/>
	<path class="st701" d="M49.41,110.61c0.16,1.05,0.32,2.09,0.49,3.14c-0.15,0.22-0.29,0.2-0.43-0.01c-0.54-0.85-0.44-1.81-0.49-2.75
		C48.82,110.53,49,110.44,49.41,110.61z"/>
	<path class="st702" d="M45.34,76.93c-0.28,0.16-0.57,0.31-0.85,0.47c-0.1-1.04-0.12-2.03,1.28-2.2
		C45.36,75.71,45.35,76.32,45.34,76.93z"/>
	<path class="st703" d="M49.41,110.61c-0.14,0.13-0.28,0.26-0.43,0.38c-0.53-0.56-0.5-1.2-0.23-2
		C49.62,109.32,49.46,109.99,49.41,110.61z"/>
	<path class="st704" d="M41.17,78.75c0.03-1.06,0.06-2.12,0.08-3.17c0.14,0.31,0.28,0.62,0.42,0.92c0.76,0.92,0.73,1.83-0.02,2.74
		C41.49,79.07,41.33,78.91,41.17,78.75z"/>
	<path class="st705" d="M47.81,118.32c0.56,0.53,1.01,1.12,1.05,2.15C48.02,119.84,47.78,119.15,47.81,118.32z"/>
	<path class="st706" d="M42.67,76.48c0.54,1.08,0.59,2.14-0.04,3.21c-0.59-0.64-0.5-1.44-0.49-2.21
		C42.18,77.07,42.33,76.72,42.67,76.48z"/>
	<path class="st707" d="M53.07,83.94c1.37,0.01,0.96,0.95,0.93,2.08c-0.39-0.8-0.63-1.29-0.87-1.78
		C53.07,84.15,53.05,84.05,53.07,83.94z"/>
	<path class="st708" d="M42.67,76.48c-0.06,0.29-0.11,0.59-0.17,0.88c-0.18,0.15-0.36,0.15-0.53-0.01c-0.09-0.31-0.13-0.62,0.08-0.9
		c0.1-0.41,0.19-0.81,0.31-1.3C43,75.63,42.45,76.11,42.67,76.48z"/>
	<path class="st709" d="M42.06,76.45c0.03,0.31,0.06,0.61,0.09,0.92c0.27,0.64,0.34,1.28-0.06,1.89c-0.14-0.01-0.28-0.02-0.43-0.03
		c0.01-0.91,0.01-1.83,0.02-2.74C41.8,76.48,41.93,76.47,42.06,76.45z"/>
	<path class="st710" d="M41.15,75.54c-0.15-0.16-0.3-0.32-0.46-0.48c0.11-0.54-0.12-1.24,0.77-1.53
		C41.35,74.24,41.25,74.89,41.15,75.54z"/>
	<path class="st711" d="M46.68,115.16c-0.4-0.48-0.73-1.15-0.07-1.45c0.42-0.19,0.5,0.57,0.52,1.01
		C47.03,114.92,46.88,115.07,46.68,115.16z"/>
	<path class="st712" d="M49.47,113.74c0.14,0,0.28,0,0.43,0.01c0.17,0.76,0.34,1.53,0.51,2.29c-0.13-0.02-0.25-0.03-0.38-0.02
		C49.76,115.28,49.36,114.57,49.47,113.74z"/>
	<path class="st713" d="M46.68,115.16c0.15-0.15,0.3-0.3,0.45-0.44c0.06,0.66,0.12,1.32,0.18,2.06
		C46.44,116.38,46.83,115.68,46.68,115.16z"/>
	<path class="st714" d="M53.22,122.27c-1.04-0.36-1.04-0.92-1.34-1.57C52.9,120.99,52.75,121.62,53.22,122.27z"/>
	<path class="st715" d="M42.08,79.26c0.02-0.63,0.04-1.26,0.06-1.89c0.12,0.01,0.24,0.01,0.36,0c0.04,0.77,0.08,1.55,0.13,2.32
		C41.97,80.17,42.21,79.48,42.08,79.26z"/>
	<path class="st716" d="M42.82,70.81c0.06,0.72-0.29,1.05-0.95,1.21C41.79,71.28,42.21,71.01,42.82,70.81z"/>
	<path class="st717" d="M49.96,83.78c0.75-0.57,1.5-0.59,2.25-0.01C51.46,83.97,50.71,83.96,49.96,83.78z"/>
	<path class="st718" d="M90.14,107.72c0.1-0.15,0.21-0.3,0.31-0.45c0.39-0.39,0.44-1.03,0.97-1.33l-0.02,0.01
		c0.98-1.34,2.04-2.61,3.31-3.69c0.94-0.76,1.85-1.56,2.83-2.27c1.08-0.78,2.36-1.01,3.36-0.07c1.07,1,0.37,2.11-0.36,3.06
		c-1.49,1.93-3,3.84-4.5,5.76c-0.28,0.26-0.62,0.4-1,0.43C93.29,109.07,91.59,108.8,90.14,107.72z"/>
	<path class="st719" d="M113.01,96.77c-0.3-0.2-0.61-0.41-0.91-0.61c-0.26-0.27-0.28-0.55-0.05-0.84c0.19-4.15,0.44-8.28,1.7-12.3
		C113.89,87.63,114.17,92.23,113.01,96.77z"/>
	<path class="st652" d="M94.14,84.79c3.64,1.32,7.13,1.75,9.93-1.74c0.04-0.05,0.13-0.07,0.2-0.11c-0.29,1.18-0.53,2.33,1.39,1.82
		c-0.01,1.34-0.7,1.98-2.03,1.95c-2.4-0.14-4.79,0.34-7.19,0.09C95.24,86.67,93.9,86.61,94.14,84.79z"/>
	<path class="st720" d="M103.8,86.59c0.79-0.44,1.41-1.04,1.86-1.82c0.91-1.14,1.85-2.25,2.3-3.68c0.42-0.1,0.65-0.01,0.47,0.48
		c-0.59,3.15-2.96,4.97-5.13,6.95c-0.3-0.2-0.61-0.4-0.91-0.61C102.33,86.9,102.95,86.62,103.8,86.59z"/>
	<path class="st721" d="M118.08,75.57c-1.65,2.83-2.73,5.86-3.06,9.14c-0.33-3.64-0.22-7.15,3.05-9.66
		c0.14,0.11,0.19,0.23,0.15,0.34C118.18,75.51,118.13,75.57,118.08,75.57z"/>
	<path class="st722" d="M108.43,81.57c-0.16-0.16-0.32-0.32-0.47-0.48c0.5-1.52,1.24-2.96,1.38-4.59c0.86-0.06,0.71,0.4,0.46,0.9
		C109.63,78.88,109.22,80.29,108.43,81.57z"/>
	<path class="st723" d="M119.94,100.37c0.91,0.05,1.82,0.09,2.73,0.14c0.25,0.26,0.28,0.52,0,0.78c-1.42,0.24-2.72-0.49-4.11-0.46
		C118.7,99.71,119.4,100.26,119.94,100.37z"/>
	<path class="st664" d="M94.71,102.27c-0.91,1.4-1.96,2.68-3.31,3.69c-0.08-1.47,1.83-1.83,1.81-3.26
		C93.71,102.56,94.21,102.41,94.71,102.27z"/>
	<path class="st724" d="M119.94,100.37c-0.49,0.06-1.04-0.04-1.38,0.46c-1,0.1-1.85-0.37-2.73-0.72
		C117.22,100.03,118.62,99.58,119.94,100.37z"/>
	<path class="st725" d="M95.03,109.18c0.23-0.38,0.6-0.46,1-0.43c0.64,0.71,2.04,0.4,2.26,1.67c-0.31,0.02-0.62,0.03-0.94,0.05
		C96.87,109.51,95.61,109.97,95.03,109.18z"/>
	<path class="st726" d="M122.67,101.29c0-0.26,0-0.52,0-0.78c1.18,0.44,2.54,0.23,3.76,1.08
		C125.04,102.03,123.89,101.15,122.67,101.29z"/>
	<path class="st727" d="M129.12,94.42c0,0.46,0,0.91-0.01,1.37c-0.84-1.31-0.39-2.68,0.01-4.05
		C129.12,92.64,129.12,93.53,129.12,94.42z"/>
	<path class="st728" d="M112.04,95.32c0.02,0.28,0.03,0.56,0.05,0.84c-0.89-0.23-1.73-0.24-2.4,0.52c-0.1,0.15-0.24,0.23-0.41,0.26
		c-0.18-0.02-0.32-0.1-0.43-0.23C109.59,95.49,110.79,95.34,112.04,95.32z"/>
	<path class="st729" d="M130.03,79.7c-0.01,1.06-0.01,2.13-0.02,3.19C129.33,81.83,129.32,80.76,130.03,79.7z"/>
	<path class="st730" d="M109.8,77.4c-0.03-0.36-0.1-0.7-0.46-0.9c0.2-0.47,0.4-0.94,0.7-1.65C110.31,75.93,110.44,76.71,109.8,77.4z
		"/>
	<path class="st731" d="M108.85,96.71c0.16,0.01,0.31,0.01,0.47,0.02c0.13,0.43-0.09,0.63-0.47,0.71c-0.44,0.41-0.88,0.82-1.31,1.23
		C107.46,97.68,108.12,97.17,108.85,96.71z"/>
	<path class="st732" d="M118.08,75.57c0-0.17-0.01-0.35-0.01-0.52c0.23-0.49,0.58-0.84,1.17-1.09
		C119.3,74.93,118.6,75.18,118.08,75.57z"/>
	<path class="st733" d="M91.84,41.5c-2.26,0.29-4.41,0.99-5.78,2.85c-2.59,3.52-6.14,5.74-9.85,7.79c0,0,0.02-0.02,0.02-0.02
		c-0.78-0.01-1.56-0.02-2.34-0.03c-0.42-0.41-0.77-0.85-0.52-1.49c0.58-0.38,1.15-0.75,1.88-0.38c2.86-0.49,4.9-2.3,6.83-4.26
		c1.85-1.88,3.56-3.94,6.19-4.81C89.49,40.88,90.77,40.14,91.84,41.5z"/>
	<path class="st734" d="M66.98,40.85c0.1-1-0.1-2.3,1.33-2.49c1.44-0.19,1.33,1.15,1.59,2.04c0.55,1.85,1.51,3.46,2.75,4.92
		c0.51,0.6,0.95,1.2,0.24,1.99c-0.6,0.66-1.17,0.43-1.84,0.14C68.15,46.21,67.18,43.8,66.98,40.85z"/>
	<path class="st735" d="M81.73,41.99c1.9-1.22,3.53-2.9,5.85-3.44c1.6-0.37,3.13-0.44,4.67,0.57c-3.98-0.66-7.21,0.81-10.09,3.31
		C81.68,42.62,81.61,42.4,81.73,41.99z"/>
	<path class="st735" d="M101.28,48.82c-1.37-2.03-2.14-4.41-3.97-6.11C99.65,44.08,100.91,46.17,101.28,48.82z"/>
	<path class="st611" d="M73.49,50.65c0.13,0.48,0.26,0.95,0.39,1.43c0.14,0.77,0.28,1.53,0.42,2.3c-0.95,0.14-1.35-1.05-2.28-0.95
		c-0.03-0.12-0.05-0.23-0.07-0.35c0.44-0.17,1.21,0.13,1.24-0.63c0.03-0.63-0.34-1.11-1.04-1.27c-0.86-0.19-1.78-0.26-2.43-0.99
		c0.47,0.01,0.93,0.02,1.4,0.04C71.99,49.9,72.76,50.2,73.49,50.65z"/>
	<path class="st736" d="M92.29,37.83c-1.75-0.74-3.66-0.34-5.94-0.64c2.5-1.29,4.45-0.69,6.38,0.2
		C92.84,37.8,92.77,38.02,92.29,37.83z"/>
	<path class="st737" d="M103.11,44.76c-1.43-1.32-3.27-1.98-4.93-2.93C100.37,41.88,102.01,42.87,103.11,44.76z"/>
	<path class="st738" d="M73.49,50.65c-0.79-0.14-1.58-0.28-2.37-0.42c1.37-0.71,2.74-0.68,4.12-0.02
		C74.66,50.36,74.07,50.5,73.49,50.65z"/>
	<path class="st739" d="M91.84,41.5c-1.12-0.88-2.39-0.22-3.57-0.36c1.23-0.91,3.36-0.76,4.48,0.31
		C92.44,41.47,92.14,41.48,91.84,41.5z"/>
	<path class="st740" d="M99.39,40.79c1.57-0.43,2.67-0.1,3.54,1.04C101.84,41.51,100.75,41.19,99.39,40.79z"/>
	<path class="st741" d="M93.24,30.95c-0.46-0.22-0.91-0.44-1.73-0.83c1.38,0,2.39,0,3.54,0c-0.51,0.3-0.94,0.56-1.38,0.81
		C93.53,30.94,93.39,30.95,93.24,30.95z"/>
	<path class="st742" d="M65.53,43.8c0.01-1.53,0.03-3.06,0.04-4.59C66.31,40.74,66.38,42.28,65.53,43.8z"/>
	<path class="st743" d="M81.73,41.99c0.15,0.15,0.29,0.29,0.44,0.44c-0.58,0.64-1.29,0.99-2.48,0.82
		C80.49,42.75,81.11,42.37,81.73,41.99z"/>
	<path class="st744" d="M92.3,35.5c0.65,0.13,1.31,0.23,1.75,1.17c-0.85-0.27-1.52-0.49-2.2-0.7C91.73,35.55,91.82,35.34,92.3,35.5z
		"/>
	<path class="st745" d="M92.3,35.5c-0.15,0.16-0.3,0.31-0.45,0.47c-0.53-0.02-1.02-0.15-1.69-0.92C91.1,35.14,91.73,34.84,92.3,35.5
		z"/>
	<path class="st746" d="M95.37,36.19c-0.78-0.26-0.75-0.82-1.19-1.56C95.14,34.97,95.3,35.43,95.37,36.19z"/>
	<path class="st747" d="M92.29,37.83c0.15-0.15,0.3-0.3,0.45-0.44c0.5,0.22,0.95,0.49,1.11,1.12
		C93.12,38.71,92.71,38.26,92.29,37.83z"/>
	<path class="st748" d="M100.59,131.7c-1.08-0.06-1.79-0.48-0.79-1.47c2.27-2.25,3.72-4.98,4.98-7.85
		c3.58,1.24,7.02,2.78,10.29,4.71c-1.65,1.49-3.67,2.15-5.76,2.69c-0.46-0.39-0.9-0.33-1.3,0.09
		C105.78,131.52,103.1,131.26,100.59,131.7z"/>
	<path class="st749" d="M113.09,111.6c0.11-0.07,0.22-0.13,0.32-0.2c0.05,0.91-0.06,1.76,1.44,1.47c1.84-0.34,2.89,0.74,3.39,2.63
		c-1.99,0.13-3.6-0.64-5.24-1.3C112.43,113.31,112.27,112.44,113.09,111.6z"/>
	<path class="st750" d="M113.09,111.6c-0.03,0.87-0.06,1.73-0.08,2.6c-0.77-0.32-1.75-0.12-2.35-0.9c0.48-0.01,0.95-0.02,1.43-0.03
		c0.59-0.84-0.12-1.9,0.45-2.75c0.09-0.18,0.09-0.74,0.41-0.24C113.16,110.61,113.05,111.15,113.09,111.6z"/>
	<path class="st751" d="M126.41,107.38c-0.04,0.55-0.07,1.11-0.11,1.66c-0.27-0.14-0.55-0.29-0.82-0.43
		c0.57-0.62,0.38-1.43,0.56-2.25C126.19,106.75,126.3,107.06,126.41,107.38z"/>
	<path class="st752" d="M113.38,108.66c-0.49-1.23-0.76-2.45,0.19-3.61C113.51,106.25,113.45,107.45,113.38,108.66z"/>
	<path class="st753" d="M107.99,129.86c0.39-0.64,0.77-1.55,1.31-0.09C108.86,129.8,108.43,129.83,107.99,129.86z"/>
	<path class="st754" d="M49.22,42.02c1.12,0.68,2.39,0.44,3.75,0.03c0.87-0.26,1.61,0.38,2.11,1.12c0.51,0.75,0.62,1.56,0.1,2.37
		c-0.12,0.19-0.34,0.31-0.47,0.5c-3.74,5.47-4.27,3.78-7.98-0.2c-0.72-0.77-0.47-1.74,0.01-2.58C47.24,42.37,48,41.93,49.22,42.02z"
		/>
	<path class="st755" d="M63.26,64.5c-0.86-1.14-0.23-2.46-0.44-3.68c0.06-0.44-0.15-0.98,0.44-1.24c0.02,1.35,0.04,2.7,0.06,4.04
		C63.3,63.92,63.28,64.21,63.26,64.5z"/>
	<path class="st631" d="M160.41,114.21c-0.82,0.11-1.46-0.16-1.83-0.93C159.41,113.16,159.93,113.65,160.41,114.21z"/>
	<path class="st756" d="M158.59,69.12c-0.13-0.29-0.26-0.59-0.39-0.88c1.12-0.16,2.15,0.79,3.89-0.34c-1.11,1.75-0.2,2.79-0.33,3.9
		c-0.3-0.13-0.6-0.26-0.9-0.39c-0.3-0.03-0.53-0.17-0.74-0.37c-0.37-0.41-0.81-0.77-1.21-1.15
		C158.72,69.67,158.59,69.42,158.59,69.12z"/>
	<path class="st757" d="M160.43,70.96c0.15,0.15,0.29,0.3,0.44,0.46c0.06,2.22-1.33,0.97-2.22,0.93c-0.47-0.07-0.71-0.38-0.84-0.8
		c-0.04-0.2-0.06-0.4-0.05-0.61c0.15-0.55-0.08-0.96-0.51-1.29c0.28-0.61,0.83-0.5,1.34-0.52c0.15,0.15,0.3,0.3,0.45,0.45
		C159.32,70.21,159.92,70.54,160.43,70.96z"/>
	<path class="st758" d="M161.72,74.64c0.83-0.92,0.91-0.21,1.01,0.46c-0.03,0.93-0.07,1.86-0.1,2.78c-0.24,0.24-0.49,0.24-0.73,0
		C161.84,76.8,161.78,75.72,161.72,74.64z"/>
	<path class="st759" d="M157.26,74.48c-0.03-0.26-0.62-0.47-0.07-0.78c0.48-0.36,0.93-0.36,1.36,0.08
		C158.46,74.63,157.91,74.65,157.26,74.48z"/>
	<path class="st760" d="M158.07,71.5c0.19,0.28,0.38,0.56,0.57,0.84c-0.16,0.18-0.32,0.35-0.48,0.53c-0.34,0.21-0.65,0.19-0.93-0.12
		l0.01-0.02C156.76,71.82,157.06,71.42,158.07,71.5z"/>
	<path class="st761" d="M161.9,77.88c0.24,0,0.49,0,0.73,0c0.1,0.41,0.25,0.9-0.28,1.08c-0.49,0.16-0.51-0.33-0.63-0.65
		C161.78,78.17,161.84,78.03,161.9,77.88z"/>
	<path class="st762" d="M157.23,72.76c0.31,0.04,0.62,0.08,0.93,0.12c0.13,0.3,0.26,0.6,0.39,0.9c-0.45-0.03-0.91-0.05-1.36-0.08
		C157.2,73.38,157.22,73.07,157.23,72.76z"/>
	<path class="st763" d="M158.07,71.5c-0.62,0.18-0.87,0.61-0.83,1.24c-0.33,0.01-0.67,0.02-1,0.02c-0.33-0.43-0.38-0.86-0.02-1.3
		c0.42-0.04,0.79-0.16,1.02-0.55c0.31-0.23,0.6-0.19,0.88,0.06C158.11,71.14,158.09,71.32,158.07,71.5z"/>
	<path class="st764" d="M158.12,70.96c-0.29-0.02-0.59-0.04-0.88-0.06c0-0.42,0-0.85,0.01-1.27
		C158.25,69.61,159.03,69.73,158.12,70.96z"/>
	<path class="st765" d="M156.22,71.46c0.01,0.43,0.01,0.87,0.02,1.3c-0.48,0-0.9-0.14-0.83-0.71
		C155.46,71.66,155.58,71.15,156.22,71.46z"/>
	<path class="st766" d="M154.34,69.92c-0.7,0.19-1.34,0.3-1.24-0.78C153.72,69.07,154.2,69.23,154.34,69.92z"/>
	<path class="st767" d="M154.4,67.74c0.18-0.14,0.35-0.28,0.53-0.42c0.22,0.28,0.22,0.56-0.01,0.84
		C154.74,68.02,154.57,67.88,154.4,67.74z"/>
	<path class="st768" d="M154.92,68.16c0-0.28,0.01-0.56,0.01-0.84c0.17,0.14,0.33,0.28,0.5,0.42
		C155.26,67.88,155.09,68.02,154.92,68.16z"/>
	<path class="st769" d="M150.75,77.37c0.01-0.16,0.03-0.31,0.04-0.47c1.27-0.23,2.89-1.14,2.71,1.41c-0.31-0.3-0.62-0.61-0.93-0.91
		C151.97,77.4,151.36,77.38,150.75,77.37z"/>
	<path class="st770" d="M151.62,74.58c0.41,0.09,0.95-0.1,1.15,0.45c0.03,0.09-0.21,0.4-0.35,0.42
		C151.8,75.53,151.73,75.02,151.62,74.58C151.62,74.59,151.62,74.58,151.62,74.58z"/>
	<path class="st771" d="M91.87,71.88c0.49-1.25,1.96-1.09,2.78-1.92c0.67-0.68,1.74-0.99,1.81-2.17c0.65-0.66,1.3-1.31,1.95-1.97
		c0.33-0.02,0.55,0.12,0.68,0.43c0.27,1.95-0.38,3.59-1.73,4.98c-1.26-0.25-1.59,1.33-2.7,1.38c-0.94,0.37-1.84,0.03-2.75-0.13
		C91.69,72.29,91.68,72.09,91.87,71.88z"/>
	<path class="st772" d="M96.43,58.53c-0.15,0.02-0.31,0.03-0.45,0.07c-1.09,0.38-2.18,0.76-3.15-0.26c-0.32-0.33-0.3-0.66-0.02-1
		c0.84-0.99,1.85-1.5,3.19-1.19c0.43,0.1,0.9,0.05,1.36,0.07C97.54,57.19,96.86,57.81,96.43,58.53z"/>
	<path class="st773" d="M91.87,71.88c-0.01,0.15-0.04,0.3-0.09,0.44c0.01,0.19,0.02,0.38,0.05,0.58c-0.02,0.74,0,1.48-0.44,2.13
		c-0.44,0.64-0.9-0.09-1.35,0.03c-0.32-0.91-1.06-1.43-1.82-1.92c-0.05-0.16-0.1-0.33-0.15-0.49C89.1,71.14,90.6,72.1,91.87,71.88z"
		/>
	<path class="st774" d="M101.52,57.6c-0.11-1.61-0.06-3.19,0.9-4.6c0.63-0.07,0.97-1.35,1.84-0.45c-0.1,0.52-0.5,0.73-0.92,0.92
		c-0.6,0.46-0.17,0.91,0,1.38C104.21,57.26,104.03,57.53,101.52,57.6z"/>
	<path class="st587" d="M103.34,53.47c0.31-0.31,0.61-0.61,0.92-0.92c1.67,0.73,0.66,2.06,0.7,3.19
		C104.69,54.76,104.93,53.45,103.34,53.47z"/>
	<path class="st775" d="M95.05,72.29c0.54-0.84,0.84-2.21,2.3-1.07c-0.61,0.52-0.87,1.46-1.86,1.51
		C95.28,72.66,95.13,72.51,95.05,72.29z"/>
	<path class="st776" d="M95.05,72.29c0.15,0.15,0.29,0.3,0.44,0.44c-1.2,0.64-2.43,0.22-3.66,0.15c-0.32-0.16-0.61-0.33-0.05-0.58
		C92.87,72.31,93.96,72.3,95.05,72.29z"/>
	<path class="st777" d="M99.08,66.24c-0.23-0.14-0.45-0.28-0.68-0.43c0.27-0.58,0.3-1.31,1.14-1.69
		C99.95,64.99,99.65,65.64,99.08,66.24z"/>
	<path class="st778" d="M98.62,80.54c-0.92,0.75-1.6,0.75-3.05-0.01C96.58,80.53,97.6,80.54,98.62,80.54z"/>
	<path class="st779" d="M99.57,62.67c0.18-0.3,0.37-0.59,0.55-0.89c0.41,0.33,0.57,0.74,0.15,1.13
		C100.02,63.16,99.74,62.96,99.57,62.67z"/>
	<path class="st585" d="M103.8,86.59c-0.47,0.44-0.94,0.88-1.41,1.32c-1.38-0.18-2.68,0.17-3.99,0.53
		c-1.51,0.11-2.92-0.27-4.27-0.93c-0.61-0.31-1.59-0.23-1.39-1.36c0.03-0.76-0.24-1.14-1.03-1.47c-1.23-0.51-1.21-1.27,0.13-1.76
		c0.46,1,1.42,1.38,2.29,1.88c0.37,0.96,0.99,1.48,2.08,1.35c2.22-0.28,4.51,0.54,6.7-0.59C103.86,85.07,103.72,86.05,103.8,86.59z"
		/>
	<path class="st780" d="M93.19,63.48c-0.17,1.75-0.87,3.39-3.09,4.01c-2.07,0.58-4.34-0.12-5.57-1.72c-0.69-0.9-0.35-1.34,0.49-1.75
		c1.78-0.88,3.56-1.76,5.33-2.66C92.6,60.2,93.2,60.58,93.19,63.48z"/>
	<path class="st781" d="M76.2,52.14c1.11,0,2.24-0.42,3.48,0.16c-0.46,0.84-1.32,1.04-2.02,1.33c-0.62,0.26-1.29,1.21-2,0.4
		c-0.64-0.74,0.47-1.24,0.56-1.92C76.22,52.12,76.2,52.14,76.2,52.14z"/>
	<path class="st782" d="M82.94,61.07c0.22-0.17,0.38-0.34,0.58-0.44c0.87-0.44,1.74-1.03,2.77-0.54c0.33,0.16,0.14,0.61-0.08,0.76
		C85.19,61.56,84.15,62.16,82.94,61.07z"/>
	<path class="st783" d="M92.32,49.72c0.37,0.1,0.78,0.25,0.73,0.68c-0.06,0.5-0.56,0.39-0.89,0.38c-1.49-0.02-2.97-0.07-4.45-0.11
		c-0.08-0.47,0.23-0.65,0.58-0.8C89.61,49.42,90.98,49.86,92.32,49.72z"/>
	<path class="st784" d="M90.15,56.58c-0.46-0.29-1.04-0.39-1.04-1.07c0-0.9,0.7-0.83,1.26-0.87c0.66-0.05,0.64,0.51,0.61,0.92
		C90.95,56.08,90.8,56.58,90.15,56.58z"/>
	<path class="st785" d="M88.16,49.42c1.21-0.57,2.42-0.54,3.63-0.02c-0.93,1.35-2.28,0.27-3.39,0.59
		C88.1,49.89,88.02,49.7,88.16,49.42z"/>
	<path class="st786" d="M93.17,67.21c-0.4,1.63-1.4,1.43-2.57,1.77C91.3,67.92,92.12,67.76,93.17,67.21z"/>
	<path class="st787" d="M88.16,49.75c1.21-0.11,2.49,0.42,3.63-0.35c0.17,0.11,0.35,0.21,0.52,0.32c-1.28,1-2.78,0.33-4.16,0.52
		c-0.12-0.11-0.16-0.22-0.12-0.33C88.08,49.8,88.12,49.75,88.16,49.75z"/>
	<path class="st788" d="M79.97,57.65c-0.03,0.29,0.02,0.7-0.34,0.72c-0.68,0.02-0.82-0.58-0.96-1.08c-0.11-0.38,0.16-0.49,0.51-0.51
		C79.84,56.73,79.9,57.18,79.97,57.65z"/>
	<path class="st789" d="M88.16,49.75c0,0.16,0,0.33-0.01,0.49c-0.15,0.14-0.3,0.28-0.45,0.42c-0.32,0.02-0.84,0.21-0.8-0.29
		c0.05-0.66,0.71-0.79,1.26-0.95C88.17,49.53,88.17,49.64,88.16,49.75z"/>
	<path class="st790" d="M75.71,116.06c0.16-1.08,1.03-1.25,1.85-1.47C77.21,115.41,76.65,115.99,75.71,116.06L75.71,116.06z"/>
	<path class="st791" d="M74.37,117.43c-0.18-0.19-0.36-0.39-0.54-0.58c0.52-0.51,1.14-0.79,1.88-0.8c0,0-0.01-0.01-0.01-0.01
		C75.51,116.75,74.93,117.08,74.37,117.43z"/>
	<path class="st792" d="M78.9,117.9c-0.14,0.01-0.28,0-0.42-0.04c0.35-0.53,0.64-1.14,1.46-1.18
		C79.95,117.43,79.38,117.62,78.9,117.9z"/>
	<path class="st793" d="M81.78,87.59c-0.17-0.03-0.35-0.05-0.52-0.08c0.27-0.46,0.25-0.92,0-1.38c2.12-0.08,3.56-1.38,4.96-2.75
		C86.46,86.34,85.33,87.42,81.78,87.59z"/>
	<path class="st671" d="M77.54,81.56c2.07,0.61,3.24,2.04,3.68,4.11c-0.39-0.31-0.78-0.61-1.2-0.94c-0.51,1.4,0.37,2.92-0.59,4.17
		c-0.58-1.12,0.05-2.4-0.44-3.52c-0.33-0.75-0.26-1.8-1.38-2.01C76.18,82.8,77.34,82.17,77.54,81.56z"/>
	<path class="st794" d="M77.6,83.36c0.08-0.78,0.4-0.7,0.77-0.19c1.28,1.73,1.04,3.75,1.05,5.72c-1.05-0.79-0.17-1.99-0.61-2.92
		C78.4,85.11,78.4,84.05,77.6,83.36z"/>
	<path class="st795" d="M90.46,88.89c1.07,0.92,2.14,1.84,3.22,2.76c-1.11,1.77-2.91,2.67-4.64,3.66c-0.75-0.34-1.5-0.35-2.24,0.01
		c-1.64-0.89-2.87-2.26-4.05-3.63c-1.32-1.53-0.67-3.35,1.24-3.73c2.07-0.41,2.94-2.1,3.48-3.75c0.25-0.75-0.48-1.99-1.75-2.17
		c-0.13-0.14-0.26-0.28-0.38-0.42c0.75-1.61,1.76-0.57,2.62-0.19c0.62,0.28,0.78,1.07,1.22,1.57c0.3,0.37,0.53,0.77,0.39,1.28
		c-1.36,0.47-2.67,0.91-0.82,2.49C89.42,87.36,89.16,88.76,90.46,88.89z"/>
	<path class="st652" d="M89.06,83.38c-0.93,0-0.78-1-1.26-1.37c-0.72-0.55-1.47-1.46-2.48-0.38c-0.28-0.33-0.55-0.66-0.83-0.99
		c0.74-0.02,1.48-0.04,2.23-0.06C89.21,80.08,88.82,81.99,89.06,83.38z"/>
	<path class="st796" d="M89.06,83.38c-0.67-1.02-0.36-2.87-2.34-2.8c0.64-0.28,1.27-0.57,1.91-0.85c-0.09,0.96,0.46,1.71,0.81,2.54
		c0.27,0.64,0.95,1.3,0.12,2.01C89.39,83.98,89.23,83.68,89.06,83.38z"/>
	<path class="st797" d="M92.75,86.15c0.46,0.45,0.93,0.91,1.39,1.36c-0.15,0.15-0.3,0.3-0.45,0.45
		C93.28,87.41,91.8,87.41,92.75,86.15z"/>
	<path class="st798" d="M112.54,110.52c-0.14,0.92,0.37,1.94-0.45,2.75C112.22,112.35,111.74,111.33,112.54,110.52z"/>
	<path class="st799" d="M112.58,97.51c-0.53,0.8-0.96,1.46-1.47,2.23C110.89,98.15,110.89,98.15,112.58,97.51z"/>
	<path class="st800" d="M108.84,97.44c0.16-0.24,0.32-0.47,0.47-0.71c0.12-0.05,0.25-0.06,0.37-0.04c0.32,0.08,0.86,0.07,0.59,0.58
		c-0.21,0.41-0.39,1.03-0.98,1.02C108.82,98.28,108.93,97.76,108.84,97.44z"/>
	<path class="st801" d="M86.79,95.33c0.75-0.66,1.49-0.66,2.24-0.01C88.29,95.32,87.54,95.32,86.79,95.33z"/>
	<path class="st802" d="M83.99,121.53c-0.54-1.38,0.15-1.81,0.58-2.77C85.03,120.04,84.54,120.61,83.99,121.53z"/>
	<path class="st803" d="M102.49,89.22c-0.64,0.15-1.27,0.3-2.21,0.52C100.99,88.73,101.61,88.46,102.49,89.22z"/>
	<path class="st664" d="M91.42,105.95c-0.1,0.6-0.36,1.09-0.97,1.33C90.44,106.59,90.48,105.95,91.42,105.95z"/>
	<path class="st804" d="M160.43,70.96c-1.02,0.09-1.47-0.38-1.39-1.39C159.63,69.9,160.39,70.07,160.43,70.96z"/>
</g>
</svg>
