<?xml version="1.0" encoding="utf-8"?>
<!-- Generator: Adobe Illustrator 26.1.0, SVG Export Plug-In . SVG Version: 6.00 Build 0)  -->
<svg version="1.1" id="Camada_1" xmlns="http://www.w3.org/2000/svg" xmlns:xlink="http://www.w3.org/1999/xlink" x="0px" y="0px"
	 viewBox="0 0 200 57" style="enable-background:new 0 0 200 57;" xml:space="preserve">
<style type="text/css">
	.st0{fill:#5A2BAF;}
	.st1{fill:#FFDA55;}
</style>
<g>
	<g>
		<g>
			<path class="st0" d="M78.68,25.18c0.19,13.46-1.66,22.25-5.54,26.37c-1.71,1.85-3.79,2.77-6.26,2.77c-0.24,0-0.5-0.02-0.78-0.07
				c-0.57-0.05-1.04-0.28-1.42-0.71c-0.38-0.43-0.54-0.94-0.5-1.53c0.05-0.59,0.3-1.07,0.75-1.42c0.45-0.36,0.96-0.51,1.53-0.46
				c1.42,0.09,2.63-0.38,3.63-1.42c3.13-3.32,4.6-11.14,4.41-23.46c-0.1-5.97-0.55-11.94-1.35-17.91c-0.05-0.57,0.09-1.09,0.43-1.56
				c0.33-0.47,0.78-0.75,1.35-0.82c0.57-0.07,1.09,0.07,1.56,0.43c0.47,0.36,0.73,0.82,0.78,1.39
				C78.06,12.88,78.53,19.02,78.68,25.18z"/>
			<path class="st0" d="M103.77,12.88c1.85,5.07,2.63,10.95,2.35,17.63c-0.24,5.88-1.26,10.78-3.06,14.71
				c-2.27,4.88-5.4,7.32-9.38,7.32c-3.6,0-6.54-2.11-8.81-6.33c-2.65-4.88-3.96-11.35-3.91-19.41c0.05-8.15,1.49-14.43,4.34-18.84
				c2.27-3.46,5.12-5.05,8.53-4.76C98.18,3.54,101.49,6.77,103.77,12.88z M101.92,30.29c0.14-3.6-0.08-7.11-0.68-10.52
				c-0.59-3.41-1.58-6.3-2.95-8.67c-1.38-2.37-2.96-3.63-4.76-3.77c-0.19,0-0.33,0-0.43,0c-1.61,0-3.06,0.97-4.34,2.91
				c-1.14,1.75-2.03,4.09-2.67,7c-0.64,2.91-0.96,6.1-0.96,9.56c-0.05,7.35,1.09,13.15,3.41,17.42c1.47,2.75,3.17,4.12,5.12,4.12
				c2.18,0,4.03-1.63,5.54-4.9C100.83,40.03,101.73,35.65,101.92,30.29z"/>
			<path class="st0" d="M128.15,2.71c0.38,0,0.73,0.1,1.07,0.28c0.33,0.19,0.59,0.44,0.78,0.75c0.19,0.31,0.28,0.65,0.28,1.03v45.21
				c0,0.57-0.21,1.05-0.64,1.46c-0.43,0.4-0.92,0.6-1.49,0.6c-0.57,0-1.06-0.2-1.46-0.6c-0.4-0.4-0.6-0.89-0.6-1.46V31.86
				l-12.72-19.9v38.03c0,0.57-0.21,1.05-0.64,1.46c-0.43,0.4-0.92,0.6-1.49,0.6c-0.57,0-1.06-0.2-1.46-0.6
				c-0.4-0.4-0.6-0.89-0.6-1.46V4.78c0-1.04,0.5-1.71,1.49-1.99c1-0.28,1.78,0,2.35,0.85l13.08,20.47V4.78c0-0.57,0.2-1.05,0.6-1.46
				C127.1,2.92,127.58,2.71,128.15,2.71z"/>
		</g>
	</g>
	<g>
		<g>
			<path class="st1" d="M154.98,7.78c2.99,2.56,4.48,6.47,4.48,11.73c0,6.68-2.11,11.8-6.33,15.35c-1.8,1.56-3.86,2.65-6.18,3.27
				v11.94c0,0.57-0.2,1.05-0.6,1.46c-0.4,0.4-0.9,0.6-1.49,0.6c-0.59,0-1.09-0.2-1.49-0.6c-0.4-0.4-0.6-0.89-0.6-1.46V8.35
				c0-0.24,0.05-0.47,0.14-0.71c-0.05-0.09-0.1-0.21-0.14-0.36c-0.1-0.57,0.04-1.08,0.39-1.53c0.36-0.45,0.82-0.72,1.39-0.82
				c0.09-0.05,0.24-0.07,0.43-0.07c0.19,0,0.52-0.01,1-0.04c0.47-0.02,0.95-0.02,1.42,0c0.47,0.02,1.04,0.1,1.71,0.21
				c0.66,0.12,1.3,0.28,1.92,0.5c0.62,0.21,1.28,0.51,1.99,0.89C153.7,6.81,154.36,7.26,154.98,7.78z M146.95,8.99V33.8
				c0.81-0.33,1.6-0.77,2.38-1.32c0.78-0.54,1.67-1.34,2.67-2.38c1-1.04,1.79-2.49,2.38-4.34c0.59-1.85,0.89-3.93,0.89-6.26
				c0-3.98-1-6.85-2.99-8.6C150.9,9.77,149.13,9.13,146.95,8.99z"/>
			<path class="st1" d="M170.9,49.93c0.57,0,1.05,0.2,1.46,0.6c0.4,0.4,0.6,0.9,0.6,1.49c0,0.59-0.2,1.09-0.6,1.49
				c-0.4,0.4-0.89,0.6-1.46,0.6h-6.97c-0.57,0-1.06-0.2-1.46-0.6c-0.4-0.4-0.6-0.89-0.6-1.46V6.14c0-0.57,0.2-1.05,0.6-1.46
				c0.4-0.4,0.89-0.6,1.46-0.6h6.97c0.57,0,1.05,0.2,1.46,0.6c0.4,0.4,0.6,0.89,0.6,1.46s-0.2,1.06-0.6,1.46
				c-0.4,0.4-0.89,0.6-1.46,0.6h-4.83v19.48h3.48c0.57,0,1.05,0.2,1.46,0.6c0.4,0.4,0.6,0.9,0.6,1.49c0,0.59-0.2,1.09-0.6,1.49
				c-0.4,0.4-0.89,0.6-1.46,0.6h-3.48v18.06H170.9z"/>
			<path class="st1" d="M192.94,2.87c0.57,0,1.05,0.21,1.46,0.64c0.4,0.43,0.6,0.92,0.6,1.49c0,0.57-0.2,1.06-0.6,1.46
				c-0.4,0.4-0.89,0.6-1.46,0.6h-6.26v42.65c0,0.57-0.2,1.07-0.6,1.49c-0.4,0.43-0.89,0.64-1.46,0.64c-0.57,0-1.07-0.21-1.49-0.64
				s-0.64-0.92-0.64-1.49V7.07h-6.26c-0.57,0-1.06-0.2-1.46-0.6c-0.4-0.4-0.6-0.89-0.6-1.46c0-0.57,0.2-1.07,0.6-1.49
				c0.4-0.43,0.89-0.64,1.46-0.64H192.94z"/>
		</g>
	</g>
	<g>
		<path class="st1" d="M26.97,22.9c4.05-1.25,8.29,0.28,10.52,3.99c1.65,2.75,3.91,4.72,6.64,6.31c1.56,0.91,3.03,2.03,4.36,3.26
			c3.04,2.83,3.59,8.65-2.1,11.51c-1.61,0.81-3.28,1.26-5.12,1.05c-4.55-0.52-8.39,1.12-11.87,3.91c-2.53,2.03-6.7,2.27-9.42,0.55
			c-2.32-1.47-3.41-3.63-3.23-6.37c0.13-1.95,0.7-3.8,1.6-5.53c1.52-2.92,2.32-5.98,2.28-9.3c-0.03-2.12,0.51-4.14,1.66-5.96
			C23.39,24.58,24.98,23.46,26.97,22.9z"/>
		<path class="st1" d="M23,13.89c0.71,2.33,0.84,4.34,0.17,6.35c-1.1,3.26-4.18,4.7-7.37,3.39c-2.15-0.88-3.67-2.48-4.74-4.49
			c-1.38-2.57-1.89-5.28-0.93-8.12c1.11-3.29,4.19-4.68,7.38-3.33C20.44,8.92,22.09,11.31,23,13.89z"/>
		<path class="st1" d="M24.99,12.89c-0.59-2.13-0.59-4.87,0.86-7.48c1.85-3.35,5.61-4.03,8.55-1.58c3.51,2.91,4.64,8.84,2.46,12.84
			c-1.97,3.61-6.05,4.19-9.07,1.29C26.61,16.82,25.74,15.35,24.99,12.89z"/>
		<path class="st1" d="M50.42,19.18c0.65,2.54,0.61,5.2-0.88,7.71c-1.84,3.09-5.42,3.59-8.03,1.12c-3.36-3.17-3.74-9.49-0.77-12.75
			c1.85-2.03,4.51-2.28,6.71-0.62C48.92,15.75,49.79,17.27,50.42,19.18z"/>
		<path class="st1" d="M17.44,30.58c0.53,1.67,0.73,3.36,0.28,5.08c-0.83,3.24-3.84,4.79-6.92,3.46c-3.2-1.38-4.91-3.98-5.62-7.3
			c-0.29-1.34-0.24-2.68,0.18-4c0.92-2.9,3.61-4.27,6.48-3.25c2.5,0.88,4.1,2.73,5.21,5.06C17.2,29.93,17.31,30.26,17.44,30.58z"/>
	</g>
</g>
</svg>
